<svg width="42" height="65" viewBox="0 0 42 65" fill="none" xmlns="http://www.w3.org/2000/svg">
<g opacity="0.8">
<path d="M22.2241 48.4125V48.2486L4.01367 38.6321L4.17757 43.291L22.2132 53.534L40.4236 44.0815V39.3133L22.2241 48.4125ZM20.1918 45.1159V41.1091L7.44452 35.6452L7.49916 38.399L20.1918 45.1159ZM30.3241 28.1196L29.1987 38.4719L32.8408 40.4061L36.1915 38.5848L33.1977 36.9493L34.9823 27.4785L30.3241 28.1196ZM22.6102 37.7361V35.3648L14.9618 36.0459L10.8462 32.7676L7.71403 33.9915L20.1773 39.1676L22.6102 37.7361ZM24.2309 33.4852L23.7356 41.8631L26.4526 43.3201L31.6171 40.9998L27.8584 39.0146L29.2278 28.524L15.2568 30.7314L22.7522 27.8975L14.8161 18.8274L10.4456 30.1595L16.018 34.7091L24.2309 33.4852ZM32.5458 25.9341L26.1211 24.0254L22.3079 17.4104L28.4557 23.785L34.2503 25.5698L33.4381 15.5017L31.1035 21.767L27.9568 18.3357H28.1207C28.6509 18.3348 29.1779 18.2525 29.6831 18.0916C31.3876 17.5197 32.7024 16.0736 33.3252 13.9755C33.9497 11.7876 33.9015 9.46237 33.1868 7.30227C32.0068 3.59776 29.2606 0.873122 26.3506 0.490651C26.1413 0.468902 25.9309 0.460383 25.7205 0.46515C25.1891 0.466 24.6609 0.5483 24.1544 0.709197C22.4536 1.28108 21.1643 2.75268 20.5123 4.82531C19.8839 7.01248 19.9309 9.33853 20.6471 11.4985C21.7142 14.8497 24.0634 17.4105 26.6529 18.1353C25.1305 17.9058 22.3261 16.8422 19.569 12.3072L15.3697 14.7331L23.2111 27.0269L32.5458 25.9341ZM32.0614 11.7936L30.386 12.4492L27.4214 4.84717L32.0614 11.7936ZM25.8698 9.09808C25.6863 9.09736 25.5071 9.04226 25.3549 8.93976C25.2026 8.83726 25.0842 8.69193 25.0144 8.52215C24.9447 8.35236 24.9268 8.16573 24.963 7.98579C24.9993 7.80584 25.088 7.64068 25.2181 7.51114C25.3481 7.3816 25.5136 7.29348 25.6936 7.25794C25.8737 7.22239 26.0602 7.241 26.2297 7.3114C26.3992 7.38181 26.5441 7.50087 26.646 7.65354C26.7478 7.80621 26.8022 7.98565 26.8022 8.1692C26.8013 8.41589 26.7026 8.65215 26.5279 8.82624C26.3531 9.00033 26.1165 9.09808 25.8698 9.09808Z" fill="#748297"/>
<path d="M15.4693 60.0747V57.4047C15.5007 56.8115 15.363 56.2215 15.0723 55.7036C14.8586 55.3363 14.5518 55.0321 14.1827 54.8217C13.8137 54.6112 13.3956 54.502 12.9708 54.5051C11.8782 54.5051 10.9968 55.1972 10.323 56.4175C10.2824 56.1586 10.1894 55.9108 10.0499 55.689C9.83621 55.3218 9.52931 55.0176 9.16028 54.8071C8.79125 54.5967 8.37318 54.4875 7.94839 54.4906C6.85576 54.4906 6.01444 55.1827 5.39893 56.3119C5.41439 55.7484 5.46425 55.1864 5.54824 54.629C4.77762 55.1501 3.95347 55.5873 3.08984 55.933C3.71993 56.3738 3.84376 56.7125 3.90931 57.5722C3.97123 58.2242 3.97122 58.8981 3.97122 59.5465V60.0747C3.97122 60.723 3.97123 61.4588 3.90931 62.1109C3.84376 62.9742 3.74178 63.5205 3.23553 64.107H3.44677C4.01494 64.107 4.26624 64.0232 4.70693 64.0232C5.14762 64.0232 5.37707 64.107 5.94524 64.107H6.17834C5.67209 63.5205 5.54825 62.9742 5.48269 62.1109C5.44262 61.4588 5.44263 60.723 5.44263 60.0747V57.9875C5.44263 56.749 6.19654 55.8456 7.43849 55.8456C8.38179 55.8456 8.99367 56.5741 8.99367 57.6669V60.0856C8.99367 60.734 8.99367 61.4698 8.92811 62.1218C8.8662 62.9851 8.76057 63.5315 8.25796 64.1179H8.46921C9.03373 64.1179 9.28504 64.0341 9.72938 64.0341C10.1737 64.0341 10.3995 64.1179 10.9677 64.1179H11.1971C10.6945 63.5315 10.5671 62.9851 10.5051 62.1218C10.4651 61.4698 10.4651 60.734 10.4651 60.0856V57.9875C10.4651 56.749 11.219 55.8456 12.4609 55.8456C13.4042 55.8456 14.0125 56.5741 14.0125 57.6669V60.0856C14.0125 60.734 14.0125 61.4698 13.9505 62.1218C13.8886 62.9851 13.783 63.5315 13.2804 64.1179H13.488C14.0562 64.1179 14.3075 64.0341 14.7482 64.0341C15.1889 64.0341 15.422 64.1179 15.9901 64.1179H16.2196C15.717 63.5315 15.5895 62.9851 15.5276 62.1218C15.4839 61.4698 15.4839 60.734 15.4839 60.0856L15.4693 60.0747ZM30.4164 60.0856V57.6669C30.4392 57.0133 30.2763 56.3667 29.9466 55.8019C29.6965 55.3935 29.3434 55.0581 28.9228 54.8292C28.5022 54.6004 28.0288 54.4861 27.5501 54.4979C26.29 54.4979 25.3212 55.2956 24.7129 56.4722C24.718 55.8533 24.7605 55.2354 24.8404 54.6217C24.0698 55.1428 23.2456 55.58 22.382 55.9258C23.0121 56.3665 23.1395 56.7053 23.2015 57.5649C23.2634 58.217 23.2634 58.8908 23.2634 59.5392V60.0674C23.2634 60.7158 23.2634 61.4516 23.2015 62.1036C23.1395 62.9669 23.0339 63.5133 22.5277 64.0997H22.7389C23.3071 64.0997 23.5584 64.0159 23.9991 64.0159C24.4398 64.0159 24.6729 64.0997 25.2374 64.0997H25.4705C24.9642 63.5133 24.8404 62.9669 24.7748 62.1036C24.7348 61.4516 24.7348 60.7158 24.7348 60.0674V58.1951C24.7188 57.8829 24.769 57.5708 24.8819 57.2793C24.9948 56.9877 25.1679 56.7233 25.3899 56.5033C25.612 56.2832 25.878 56.1126 26.1705 56.0024C26.4631 55.8922 26.7755 55.845 27.0876 55.8638C28.202 55.8638 28.9086 56.6616 28.9086 57.8381V60.0674C28.9086 60.7158 28.9086 61.4516 28.8467 62.1036C28.7811 62.9669 28.6792 63.5133 28.1729 64.0997H28.3841C28.9523 64.0997 29.2036 64.0159 29.6443 64.0159C30.085 64.0159 30.3181 64.0997 30.8826 64.0997H31.1157C30.6095 63.5133 30.4856 62.9669 30.4201 62.1036C30.38 61.4516 30.38 60.7158 30.38 60.0674L30.4164 60.0856ZM20.062 60.0674V58.4282C20.062 56.8291 20.1275 56.0532 20.1676 54.6217C19.3974 55.1436 18.5732 55.5808 17.7092 55.9258C18.3393 56.3665 18.4667 56.7053 18.5287 57.5649C18.5942 58.217 18.5942 58.8908 18.5942 59.5392V60.0674C18.5942 60.7158 18.5942 61.4516 18.5287 62.1036C18.4667 62.9669 18.3611 63.5133 17.8585 64.0997H18.0661C18.6343 64.0997 18.8856 64.0159 19.3299 64.0159C19.7743 64.0159 20.0001 64.0997 20.5682 64.0997H20.7977C20.2951 63.5133 20.1676 62.9669 20.1057 62.1036C20.062 61.4516 20.062 60.7158 20.062 60.0674ZM40.6106 61.4734C40.5487 60.8214 40.5487 60.2349 40.5487 59.5829V52.2577C40.5487 50.6586 40.6106 49.8827 40.6543 48.4512C39.8829 48.9709 39.0589 49.408 38.1959 49.7552C38.826 50.196 38.9498 50.5311 39.0154 51.3944C39.0773 52.0464 39.0773 52.7166 39.0773 53.3687V55.19C38.3745 54.7058 37.5335 54.4629 36.6808 54.4979C34.4337 54.4979 32.3103 56.5158 32.3103 59.5975C32.3103 62.6791 34.2661 64.4312 36.3858 64.4312C37.4602 64.4312 38.5711 63.546 39.1392 62.497L39.2012 64.3183C39.9143 63.8656 40.6592 63.4651 41.4301 63.1199C40.8838 62.7556 40.6726 62.344 40.6106 61.4807V61.4734ZM39.0773 60.5992C39.0773 62.1109 38.2141 63.0798 36.8083 63.0798C35.1475 63.0798 33.8436 61.6483 33.8436 59.0729C33.8436 56.6142 35.1912 55.4559 36.5133 55.4559C37.7552 55.4559 39.0628 56.2354 39.0628 58.4209L39.0773 60.5992Z" fill="#748297"/>
<path d="M10.2282 12.9221C10.3141 13.403 10.3568 13.8907 10.3556 14.3792C10.3556 16.6267 10.0169 18.7066 8.67298 21.9011C8.70945 21.622 8.73012 21.3411 8.73489 21.0597C8.68555 18.7786 8.25977 16.5214 7.47474 14.3792C7.0559 13.1808 6.61522 12.74 6.04705 12.74C5.27129 12.74 4.19686 13.9785 4.13494 16.8561C5.01633 14.7325 5.37325 14.2298 5.73381 14.2298C5.85765 14.2298 6.00698 14.3573 6.17451 14.8199C6.90871 16.8136 7.31221 18.9139 7.36911 21.0378C7.36911 24.3817 5.31134 26.9425 3.04232 26.9425C2.39797 26.9227 1.77007 26.7343 1.22127 26.3961C0.938385 26.8027 0.718587 27.2497 0.569336 27.722C0.982392 27.9888 1.46533 28.1269 1.95697 28.119C3.13336 28.119 4.45545 27.7001 5.905 26.5236C7.46152 25.1928 8.70513 23.5348 9.54709 21.668C10.9129 18.7539 11.5429 16.2478 11.5429 13.8328C11.5417 13.4517 11.5076 13.0715 11.441 12.6963L10.2282 12.9221Z" fill="#748297"/>
<path d="M14.4361 7.3562C13.114 8.63839 12.4803 9.01357 12.1234 9.01357C12.0615 9.01006 12.0027 8.98532 11.9569 8.94352C11.9112 8.90172 11.8812 8.84541 11.8721 8.78409C11.8684 8.6187 11.8969 8.45419 11.9559 8.29964L13.471 4.37292C14.0173 2.94138 14.0173 2.64998 14.0173 2.18737C14.0173 1.1383 13.4491 0.446225 12.6515 0.446225C11.7665 0.446225 10.9688 1.07637 9.83616 2.86124C9.85437 2.64997 9.87621 2.42049 9.87621 2.25293C9.87621 1.22208 9.32991 0.431641 8.47037 0.431641C7.61084 0.431641 6.70397 1.22937 5.65505 3.14173C5.77783 2.71791 5.84036 2.27892 5.8408 1.83767C5.8408 1.08002 5.47658 0.431641 4.77001 0.431641C4.06344 0.431641 2.87978 1.18566 2.62847 3.60434C3.28041 2.38407 3.84493 1.73205 4.26741 1.73205C4.43495 1.73205 4.60248 1.85954 4.60248 2.21652C4.55065 2.80337 4.42837 3.38184 4.23827 3.93945L3.6701 5.97567C3.30589 7.30157 2.81057 8.58376 2.32617 9.84409L3.75388 10.1792L4.99583 5.91373C5.79345 3.18179 7.13738 1.79396 7.9787 1.79396C8.34291 1.79396 8.54686 2.13272 8.54686 2.52248C8.54686 3.13444 8.41939 3.68084 8.01876 4.81368L6.25598 9.85865L7.59991 10.1719L8.83823 6.28528C9.86894 3.05066 11.2129 1.76846 12.0542 1.76846C12.3893 1.76846 12.6005 2.01981 12.6005 2.46056C12.6005 2.90132 12.4548 3.34206 12.1161 4.22721L11.1072 6.93729C10.499 8.57646 10.459 8.84966 10.459 9.31227C10.4569 9.43301 10.4795 9.55291 10.5253 9.66465C10.5711 9.77639 10.6392 9.87763 10.7254 9.96217C10.8116 10.0467 10.9142 10.1128 11.0268 10.1563C11.1394 10.1999 11.2597 10.2201 11.3804 10.2156C12.3492 10.2156 13.6312 9.2904 14.4288 7.30155" fill="#748297"/>
</g>
</svg>
