<svg width="24" height="25" viewBox="0 0 24 25" fill="none" xmlns="http://www.w3.org/2000/svg">
<path d="M16.0838 1.6263C16.2441 1.64222 16.401 1.69736 16.5388 1.78939C16.8154 1.97344 16.9812 2.28329 16.9812 2.61556V18.5335C16.9812 18.9353 16.7408 19.2992 16.3699 19.4525C16.2167 19.5166 13.3886 20.665 8.85524 21.2171C13.9055 22.2135 18.0135 20.2549 18.9715 19.7464V4.59798C18.9678 4.33448 19.0691 4.08002 19.2527 3.89095C19.4363 3.70188 19.6874 3.59331 19.9509 3.58919C20.084 3.58712 20.2162 3.61155 20.3396 3.66146C20.463 3.71137 20.5755 3.78522 20.6697 3.87923C20.7639 3.97327 20.8383 4.08601 20.8884 4.20931C20.9385 4.33251 20.9635 4.46501 20.9617 4.59798V20.3656C20.9617 20.5386 20.9157 20.7094 20.8298 20.8597C20.744 21.0098 20.6204 21.1352 20.4715 21.223C20.418 21.2543 12.2117 26.0524 3.66286 21.4329H3.6609L3.657 21.431C3.62768 21.4151 3.59843 21.4041 3.56911 21.388C3.38218 21.2898 3.23134 21.1343 3.13844 20.9447C3.04557 20.755 3.01551 20.5403 3.05251 20.3324V4.59798C3.05251 4.04881 3.49742 3.60287 4.04762 3.60287C10.9126 3.60283 15.5595 1.71552 15.6062 1.69662C15.7603 1.63355 15.9236 1.61042 16.0838 1.6263ZM11.9412 10.4769C11.8477 9.98575 11.3458 9.6519 10.7927 9.73763C8.88693 10.0356 7.12848 10.0559 7.10426 10.056C6.55506 10.0605 6.11394 10.4687 6.11891 10.9681C6.12401 11.4647 6.56888 11.8656 7.11403 11.8656H7.12184C7.20243 11.8655 9.05697 11.8453 11.1306 11.5208C11.6717 11.4367 12.0345 10.9689 11.9412 10.4769ZM12.9959 5.73373C12.8674 5.72065 12.7336 5.73046 12.6013 5.76595C10.1728 6.42369 7.1435 6.4563 7.10622 6.45638C6.55602 6.46181 6.11394 6.87014 6.11891 7.37044C6.12399 7.86705 6.56887 8.2679 7.11403 8.2679C7.11692 8.26702 7.11891 8.26595 7.12184 8.26595C7.26015 8.26501 10.4649 8.23082 13.1687 7.49935C13.695 7.35641 13.9949 6.85287 13.8377 6.37337C13.7204 6.01523 13.3814 5.77303 12.9959 5.73373Z" fill="#748297"/>
</svg>
