<?xml version="1.0" encoding="UTF-8"?>
<svg id="Layer_2" data-name="Layer 2" xmlns="http://www.w3.org/2000/svg" viewBox="0 0 193.28 32.95">
  <defs>
    <style>
      .cls-1 {
        fill: #8d98aa;
      }
    </style>
  </defs>
  <g id="Layer_1-2" data-name="Layer 1">
    <g>
      <path class="cls-1" d="M193.18,15.89c-.09-.16-.25-.25-.41-.25l-.25.05-.09.15c-.37.63-3.71,2.19-4.7,2.19-.34,0-.66-.11-.99-.31-.37-.31-.57-.92-.75-1.45-.1-.29-.19-.57-.32-.82-.23-.37-.77-.69-1.15-.69-.13,0-.24.03-.35.11l-2.73,2.23c-.05-.21-.09-.41-.13-.6-.12-.56-.21-1.05-.48-1.67-.25-.34-.75-.7-1.16-.7-.1,0-.19.02-.27.06-1.21.59-2.2,1.63-3.15,2.66,0-.2.02-.39.03-.57.02-.37.05-.72.02-1.05.04-.2-.02-.41-.18-.62-.21-.26-.59-.52-.93-.52-.28,0-.48.17-.53.45-.05.33-.1.69-.14,1.06l-.03.03c-1.08,1.2-3.39,2.53-4.87,2.53-.14,0-.27-.01-.37-.03-.5-.14-.5-.83-.49-1.02.04-.4.19-.79.34-1.17.06-.15.11-.3.13-.38.06-.1.14-.32-.03-.6-.21-.36-.73-.68-1.1-.68-.2,0-.37.09-.43.22l-.41.56c-.79-.32-1.66-.49-2.52-.49-1.2,0-2.35.32-3.24.92-.49.33-.85.75-1.06,1.24-1.19,1.13-3.04,2.61-5.43,2.61-.79,0-1.58-.59-1.9-1.06,1.18-.17,2.36-.98,2.75-1.95.18-.47.1-.98-.2-1.42-.37-.53-1.01-.87-1.66-.87h0c-1.76.07-2.81,1.69-2.81,3.21,0,.33.06.68.17,1.02.51,1.59,2.18,2.46,4.69,2.46.19,0,.38,0,.57-.02,1.4-.08,2.82-.73,3.96-1.8.18.29.42.56.73.79.39.25.82.37,1.31.37,1.7,0,3.68-1.47,4.59-2.24.46.94,1.24,1.55,2.32,1.81.19.04.4.07.63.07,1.39,0,3.23-.87,4.01-1.65.09-.09.17-.17.25-.26.01.31.04.64.06,1.02.12.47.87,1.07,1.33,1.07.13,0,.25-.04.34-.12.52-.45.97-.99,1.44-1.57.58-.7,1.18-1.42,1.94-2,.25,1.05.43,1.68.73,2.33.21.38.77.73,1.18.73.1,0,.19-.02.31-.08.79-.53,1.51-1.09,2.81-2.16.09.19.21.42.37.65.3.4.65.81,1.17,1.16.7.44,1.51.69,2.31.69,1.99,0,4.14-1.67,4.65-2.59.3-.55.19-.88.1-1.04ZM161.8,18.04c.29-1.21,2.12-1.85,3.77-1.85.22,0,.43.01.63.04-1.11,1-2.85,2.05-4.1,2.21-.09,0-.21-.03-.27-.12-.05-.07-.06-.17-.03-.28ZM153.12,16.67c.12-.26.3-.54.52-.77.21-.22.42-.35.56-.35.04,0,.09,0,.13.04,0,.13-.36.59-1.22,1.08Z"/>
      <path class="cls-1" d="M164.36,8.6h.11c.19,0,.36-.06.47-.19.08-.09.17-.25.14-.5v-.07s-.05-.06-.05-.06c-.14-.21-.51-.59-.92-.77-1.07-.24-2.66-.36-4.71-.36-2.82,0-6.04.23-8.64.42l-.9.06c-.2.02-.39.04-.58.05.14-2.58.33-4.84.52-6.33-.08-.54-.68-.87-1.2-.87-.24,0-.44.07-.56.21-.1.11-.15.25-.14.37-.12,1.92-.28,4.34-.4,6.75-3.91.32-6.09.58-8.26.98-.29.07-.46.29-.43.57.05.4.56.89,1.13.89h.15c2.37-.43,4.68-.62,7.13-.83l.21-.02c-.08,1.7-.14,3.46-.17,5.01-.03,1.25-.06,2.98-.06,4.84,0,2.08.04,9,.5,10.46.19.56.81,1.13,1.24,1.13.14,0,.26-.05.35-.15.11-.12.14-.29.11-.55-.35-1.28-.53-3.91-.53-7.82,0-2,.05-4.05.08-5.8.02-.79.03-1.52.04-2.15l.21-5.1c.14-.01.29-.03.47-.05l.54-.04c2.48-.2,5.87-.47,9.03-.47,2.15,0,3.82.12,5.12.38Z"/>
      <path class="cls-1" d="M135.82,25.86c-.06-.13-.13-.41-.23-.74l-.1-.33c-.15-.7-.25-1.63-.28-2.72-.09-.91-.09-1.9-.09-2.94,0-1.45.03-2.95.1-4.44.03-1.3.1-2.55.22-4.05.02-.26.09-.62.17-1.01.08-.37.15-.74.18-1.06.17-1.58.51-5.31.54-6.79-.07-.51-.79-1.02-1.27-1.02-.28,0-.49.16-.51.35-.09.18-.71,5.25-.9,7.48l-.06,1.1c-.39,1.71-.77,3.18-1.36,4.77h0c-.8-.21-1.47-.3-2.22-.3-1.29,0-2.35.38-3.16,1.14-.19.19-.35.42-.48.69l-.3.21c-1.22.87-3.06,2.17-4.39,2.17-.38,0-.65-.09-.84-.22-.24-.34-.14-1.06-.07-1.58.03-.24.06-.46.06-.62,0-.65-.71-1.34-1.45-1.42-.14-.02-.29-.02-.44-.02-1.63,0-3.4.85-4.44,1.5l.03-.45c.08-.47-.57-.9-.7-.97-.16-.06-.32-.1-.46-.1-.41,0-.59.25-.59.47l-.09.87c-1.39,1.19-4.07,2.99-5.64,2.99-.29,0-.55-.08-.72-.2-.29-.41.19-3.48.42-3.86l.06-.06.02-.09c.07-.33-.23-.71-.73-.89-.16-.04-.33-.06-.47-.06-.42,0-.57.19-.62.32-.32.51-.52,1.38-.56,2.35-1.13.76-3.42,1.7-4.14,1.7-.34,0-.66-.11-.99-.31-.37-.31-.57-.92-.75-1.45-.1-.29-.19-.57-.32-.82-.24-.38-.77-.69-1.15-.69-.13,0-.24.03-.35.11l-2.73,2.23c-.05-.22-.09-.41-.13-.6-.11-.56-.21-1.05-.48-1.67-.25-.34-.75-.7-1.16-.7-.1,0-.19.02-.27.06-1.21.59-2.2,1.63-3.15,2.66,0-.2.02-.39.03-.57.02-.37.05-.72.02-1.06.04-.19-.02-.41-.19-.62-.21-.26-.59-.52-.93-.52-.28,0-.48.17-.53.45-.09.59-.16,1.26-.19,1.98-1.32.17-3.54,1.21-4.56,1.75-.04-1.34-.14-2.5-.22-2.87h0c-.05-.51-.72-1.01-1.19-1.01-.14,0-.38.03-.51.19l-.13.1v.09s-.04.11-.04.18c-.05.81-2.29,3.82-3.52,3.82-.1,0-.18-.02-.25-.06-.37-.22-.46-.96-.51-1.41v-.07c.01-.36.08-.7.14-.99v-.08c.14-.28.25-.38.3-.4.15-.06.25-.19.29-.35.05-.24-.06-.52-.28-.75-.26-.26-.61-.42-.9-.42-.07,0-.14.01-.2.03-.37.11-.64.42-.83.95-.11.29-.18.6-.21.98-1.04.77-3.53,1.83-4.32,1.83-.34,0-.66-.11-.99-.31-.37-.31-.57-.92-.75-1.45-.1-.29-.19-.57-.32-.82-.24-.38-.77-.69-1.15-.69-.13,0-.24.03-.35.11l-2.73,2.23c-.05-.22-.09-.41-.13-.6-.11-.56-.21-1.05-.48-1.67-.25-.34-.75-.7-1.16-.7-.1,0-.19.02-.27.06-1.21.59-2.2,1.63-3.15,2.66,0-.2.02-.39.03-.56.02-.37.05-.72.02-1.06.04-.19-.02-.41-.19-.62-.21-.26-.59-.52-.93-.52-.28,0-.48.17-.53.45-.15.94-.23,1.89-.23,2.8,0,.45.03.94.07,1.48.12.47.87,1.07,1.33,1.07.13,0,.25-.04.34-.12.52-.45.97-.99,1.44-1.57.58-.7,1.18-1.43,1.94-2,.25,1.05.43,1.69.73,2.33.21.39.76.73,1.18.73.1,0,.19-.02.31-.08.79-.53,1.51-1.09,2.81-2.16.09.19.21.42.37.65.3.4.65.81,1.17,1.16.7.44,1.51.69,2.31.69,1.3,0,2.79-.76,3.78-1.62.04.13.07.25.12.37.48,1.18,1.62,2.01,2.77,2.01,1.01,0,2.26-.96,3.21-2.05l.09,1.16-.67.48c-3.4,2.52-5.9,5.76-6.39,8.26-.16,1.17.31,2.43,1.3,3.45.82.82,1.97,1.36,2.87,1.36.13,0,.26-.01.37-.04,2.42-.5,3.78-3.53,4.14-9.28l.1-2.96.02-.24.79-.55c.53-.32,2.27-1.33,3.72-1.95.01.27.03.56.05.87.12.47.87,1.07,1.33,1.07.13,0,.25-.04.34-.12.52-.45.97-.99,1.44-1.57.58-.7,1.18-1.43,1.94-2,.25,1.05.43,1.69.73,2.33.21.39.76.73,1.18.73.1,0,.19-.02.31-.08.79-.53,1.51-1.09,2.81-2.16.09.19.21.42.37.65.3.4.65.81,1.17,1.16.7.44,1.51.69,2.31.69,1.24,0,2.61-.68,3.57-1.44.11.51.3,1.05.63,1.41.55.61,1.36.93,2.33.93h.18c1.64-.07,3.54-1.35,4.74-2.46l-.02.19c-.07.4-.04.74,0,1.03.03.54.69.86,1.15.86.24,0,.38-.09.45-.17.09-.09.13-.22.12-.32l.03-.68c.55-1.12,2.62-2.5,4.76-2.86-.03.25-.04.5-.04.74,0,.73.15,1.29.47,1.77.57.83,1.64,1.34,2.77,1.34,1.81,0,3.37-1.02,4.18-1.68.2.43.52.82.96,1.17.83.61,1.51.7,2.14.7h0c1.51-.11,2.8-1.31,3.9-3.66,0,.32,0,.65-.01.97,0,.43-.02.86-.02,1.28,0,1.05.03,2.04.1,2.92.03,1,.15,2.03.32,2.89.11.61.36,1.48.9,2.1.23.26.63.58,1.1.71.08.01.15.02.22.02.27,0,.4-.12.47-.21.07-.1.13-.27.04-.52-.1-.31-.45-.58-.66-.68ZM128.11,18.36c-.12-.09-.26-.34-.26-.68,0-.28.09-.7.5-1.14.49-.52,1.26-.77,2.41-.77.26,0,.55.02.85.04-.67,1.29-1.59,2.65-2.83,2.78-.27,0-.46-.06-.66-.23ZM77.17,31.39c-.3,0-.74-.22-1.07-.52-.3-.35-.78-1.08-.6-2,.3-1.8,2.03-4.2,5.03-6.93l.23-.21c-.1,4.47-1.45,9.25-3.48,9.65-.03,0-.06.01-.1.01Z"/>
      <path class="cls-1" d="M105.98,12.12c.19.1.41.16.63.16h0c.24,0,.42-.07.54-.24.08-.13.21-.48.37-.89l.06-.16c.12-.23.13-.48.13-.64.02-.11,0-.22-.05-.33-.12-.23-.42-.43-.74-.5-.14-.06-.3-.09-.45-.09-.44,0-.64.26-.63.46l-.05.41-.09.25c-.08.22-.19.52-.17.53-.13.1-.19.27-.16.43.05.26.31.51.62.61Z"/>
      <path class="cls-1" d="M46.82,14.63c-.14,0-.28.05-.38.13-.77.6-9.83,4.45-13.83,4.45-1.22,0-2.53-.46-2.79-1.73.95-.03,1.87-.43,2.47-1.08.45-.49.67-1.05.62-1.58-.04-.47-.37-.89-.96-1.18-.4-.16-.75-.18-1.04-.18-1.5,0-2.69,1.13-2.94,2.83-1.42,1.11-4.02,2-5.29,2-.28,0-.54-.05-.76-.14-.08-.45-.06-.9-.03-1.34.02-.37.04-.73,0-1.13-.17-.55-.76-.99-1.25-1.13-.2-.06-.43-.1-.66-.1-1.72,0-3.72,1.78-4.67,2.73v-2.09c.03-2.16.07-4.44.16-6.7,1.91-.12,3.54-.17,4.98-.17,2.15,0,3.82.12,5.11.38h.11c.19,0,.36-.06.47-.19.08-.09.17-.25.14-.5v-.07s-.05-.06-.05-.06c-.14-.21-.51-.59-.92-.77-1.07-.24-2.66-.36-4.71-.36-1.41,0-3.02.06-5.06.18.09-1.74.18-3.09.31-4.39,0-.55-.76-.91-1.26-.91-.41,0-.59.25-.59.48-.09,1.66-.17,3.29-.23,4.94l-2.71.19c-.2.02-.39.04-.58.05.14-2.57.33-4.84.52-6.33-.08-.54-.68-.87-1.2-.87-.24,0-.44.07-.56.21-.1.11-.15.25-.14.37-.12,1.92-.28,4.34-.4,6.75-3.91.32-6.09.58-8.26.98-.29.07-.46.29-.43.57.05.4.56.89,1.13.89h.15c2.37-.43,4.68-.62,7.13-.83l.21-.02c-.08,1.71-.14,3.47-.18,5.01-.03,1.25-.06,2.98-.06,4.84,0,2.08.04,9,.5,10.46.19.56.81,1.13,1.24,1.13.14,0,.26-.05.35-.15.11-.12.14-.29.11-.55-.35-1.28-.53-3.91-.53-7.82,0-2,.05-4.05.08-5.8.02-.79.03-1.52.04-2.15l.21-5.1c.14-.01.29-.03.47-.05l.52-.04c.7-.06,1.49-.12,2.33-.18-.06,2.06-.1,4.01-.1,5.97v4.54c0,.93,0,1.07.04,1.13.12.49.74.89,1.17.89.2,0,.32-.08.39-.15.06-.07.14-.19.12-.33.11-1.27,2.96-4.13,4.69-4.46-.02.21-.04.45-.04.73,0,1.02.34,1.79,1.03,2.3.72.47,1.45.69,2.31.69,1.81,0,3.76-.87,4.82-1.78.7,1.9,3.03,2.59,5.1,2.59h.24c4.95-.13,13.37-3.38,13.85-5.35.04-.16.01-.31-.08-.43-.1-.12-.25-.2-.43-.2ZM29.92,16.06c.18-.47.59-.91,1.3-.97-.28.4-.86.87-1.3.97Z"/>
    </g>
  </g>
</svg>