<svg width="56" height="65" viewBox="0 0 56 65" fill="none" xmlns="http://www.w3.org/2000/svg">
<g opacity="0.8">
<path d="M21.3985 33.5512C22.0177 34.3846 19.8134 36.7889 18.9085 37.7698C16.9827 39.7876 14.9326 41.466 12.4486 42.7796C10.0542 44.0108 6.45012 45.3999 4.62477 43.0997C2.45155 39.4538 4.68214 31.7746 6.42383 27.7914C7.30602 25.729 8.38426 23.7809 9.81753 21.9848C10.8372 20.7878 11.5771 19.9841 12.647 19.6766C13.4957 19.5485 14.1436 20.0927 14.6302 20.9376C16.0491 23.8083 12.8718 27.8017 14.054 30.8314C15.4908 34.252 20.2915 32.297 21.3925 33.5397L21.3997 33.5489L21.3985 33.5512Z" fill="#748297"/>
<path d="M34.6892 23.1033C33.259 25.8576 26.8797 31.0706 23.5754 31.0145C21.2334 30.8758 19.5333 28.7484 18.3299 26.9328C16.8841 24.567 15.0712 20.5598 16.7797 18.0725C17.6364 16.9126 19.2357 16.7154 20.6563 16.587C23.7338 16.3807 26.8065 16.8873 29.7268 17.794C31.3297 18.3385 34.6556 19.534 35.1019 21.0722C35.2927 21.7599 35.0335 22.466 34.7 23.0849L34.6892 23.1044V23.1033Z" fill="#748297"/>
<path d="M15.4266 15.6913C14.4444 17.2762 13.0623 18.2732 11.4244 18.5785C9.31347 18.9716 6.90832 18.1706 4.46954 16.261C0.00265431 12.2104 0.246412 8.35358 0.789163 6.41547C1.60209 3.51116 4.1033 1.19591 7.01639 0.652414C8.72029 0.334523 10.4278 0.64102 11.9504 1.54114C12.8293 2.06071 13.6327 2.76143 14.3543 3.63763C15.9982 5.63271 16.8567 8.15191 16.8003 10.7007C16.7595 12.55 16.2948 14.2875 15.4266 15.6913Z" fill="#748297"/>
<path d="M55.4999 62.788C55.2021 64.7196 52.0232 64.4801 50.4127 64.5271C48.7674 64.5283 47.0464 64.5386 45.4167 64.5157C43.5829 64.4859 41.713 64.3301 39.8683 63.9921C37.6178 63.59 35.7383 63.0607 34.0449 61.6183C31.0041 59.1392 29.9052 55.7469 28.9229 52.168C28.5962 50.9971 28.284 49.7553 27.9357 48.5787C27.7147 47.8478 27.4745 47.1318 27.0554 46.5922C26.4861 45.7936 25.3524 45.4202 24.4962 46.1282C22.6683 47.6519 22.332 52.5105 22.4774 54.7033C22.6491 57.0851 23.3745 59.5596 25.0414 61.348C25.6251 62.0079 26.4501 62.6265 26.9629 63.2944C27.7772 64.4836 25.559 64.4274 24.7724 64.4996C24.0662 64.5294 23.3336 64.5248 22.3645 64.526C20.9906 64.526 19.547 64.526 18.1671 64.526C14.7624 64.4985 11.473 64.6485 9.04592 62.2221C6.3798 59.4038 7.49909 55.1535 9.08555 52.0477C10.1292 50.0245 11.5631 48.2923 13.146 46.6345C17.007 42.571 22.32 37.3984 25.3837 34.4587C26.1679 33.7118 27.0518 32.9889 27.9837 32.3083C31.5049 29.6837 35.7335 28.3192 35.3636 34.3235C34.8544 38.9817 35.9785 43.4634 38.976 47.7504C42.2222 52.4383 46.8795 56.3415 51.8779 59.1713C53.1977 59.9984 55.5288 61.1166 55.4999 62.7686V62.7857V62.788Z" fill="#748297"/>
<path d="M7.4094 4.67163C7.34841 4.69787 7.52649 5.27054 7.82045 6.21739C8.22907 7.52701 8.63524 8.97467 9.08167 10.4041C9.34269 11.2334 9.57932 12.016 9.82815 12.7826C10.0001 13.272 10.1599 13.7511 10.5893 14.0523C11.1979 14.4641 12.0908 14.2782 12.4225 13.7717C12.7165 13.3017 12.4347 12.786 12.1859 12.3274C11.8127 11.6772 11.4102 11.0372 10.9906 10.3379C10.1624 8.9701 9.26707 7.60573 8.49375 6.33033C7.90461 5.38804 7.59846 4.78685 7.41062 4.67163H7.40818H7.4094Z" fill="white"/>
<path d="M5.35987 8.72805C5.99064 8.72805 6.50197 8.25972 6.50197 7.68202C6.50197 7.10431 5.99064 6.63599 5.35987 6.63599C4.72911 6.63599 4.21777 7.10431 4.21777 7.68202C4.21777 8.25972 4.72911 8.72805 5.35987 8.72805Z" fill="white"/>
</g>
</svg>
