<svg width="64" height="63" viewBox="0 0 64 63" fill="none" xmlns="http://www.w3.org/2000/svg">
<g opacity="0.8">
<path d="M63.3764 13.4788L63.3592 13.5084C62.0427 15.8151 59.9868 17.7026 57.7576 19.2943C55.6256 20.8008 53.4478 22.2743 51.2319 23.6573C48.3645 25.4195 45.3236 26.9938 42.4256 28.7386C40.7375 29.7998 36.6944 32.9572 35.3035 34.328C34.6881 34.9595 34.1794 35.6449 33.9908 36.419C33.7317 37.4628 34.3471 38.2282 35.4407 38.223C36.4982 38.223 37.5404 37.7341 38.474 37.2958C40.3793 36.3703 44.5157 33.359 46.4992 32.7502C51.9026 31.101 50.7937 36.4225 49.0485 39.0997C47.629 41.4099 45.7046 43.4644 43.7841 45.4389C41.3377 47.9248 38.6378 50.3289 35.4122 51.992C32.6514 53.3575 29.3075 54.7092 26.1276 54.6309C23.5021 54.5579 21.5872 52.6408 21.4691 50.2802C21.3662 48.8763 21.8101 47.4968 22.2731 46.1695C23.1515 43.6697 24.1613 41.2064 25.5407 38.891V38.8875L25.5446 38.884C25.5446 38.8823 25.5446 38.8805 25.5484 38.8771C25.6436 38.6961 26.743 36.6539 28.7874 33.6739C32.9562 27.5975 41.0614 17.6243 52.6266 11.6122C53.8308 11.0347 55.0635 10.5076 56.3344 10.0535C57.4928 9.63604 58.6989 9.28464 59.943 9.17852C63.2259 8.88105 65.0302 10.6085 63.3764 13.4788Z" fill="#748297"/>
<path d="M32.2655 23.5476C32.0997 23.8712 31.8597 24.3409 31.5662 24.9098C31.5662 24.9098 31.5662 24.9115 31.5643 24.9132C31.4919 25.0211 29.1027 28.5351 26.0389 33.2512C23.3162 37.4454 20.0791 44.2507 19.3132 45.8877C19.2789 45.9607 19.2446 46.032 19.2122 46.1051C19.176 46.1817 19.1551 46.2269 19.1474 46.2443V46.2495C17.9147 48.8902 16.8553 51.5727 15.8741 54.3143C15.2644 55.88 14.5232 57.4125 13.3134 58.6685C10.9946 61.1075 7.12302 63.2855 3.57152 61.9286C1.66621 61.2014 0.589714 59.34 0.59543 57.5082C0.555418 55.1841 1.5195 52.8287 3.15045 51.0682C5.55305 48.5719 10.5621 45.5885 13.1533 43.3148C15.6855 40.9594 12.3741 41.8361 10.7831 42.2867C8.95593 42.7633 4.87285 44.3168 3.17522 44.4351C0.862173 44.6891 -0.513461 43.0591 0.180072 40.9576C1.9825 36.4468 9.57135 34.9577 13.7421 32.604C17.0878 30.8192 19.9191 28.3385 22.7504 25.9292C24.3623 24.5062 25.8008 22.9579 27.8318 22.0429C29.6228 21.1696 31.471 20.9678 32.2007 22.0429C32.5075 22.4934 32.5113 23.0658 32.2674 23.5476H32.2655Z" fill="#748297"/>
<path d="M19.2988 46.0495C19.3236 45.9921 19.356 45.919 19.396 45.8303C19.3636 45.9034 19.3312 45.9764 19.2988 46.0495Z" fill="#748297"/>
<path d="M28.3524 7.7359C30.1727 2.55016 34.93 -0.693784 38.9784 0.490778C43.0267 1.67539 44.8328 6.84017 43.0125 12.0259C41.1922 17.2114 36.4348 20.4547 32.3866 19.2701C28.3383 18.0855 26.5322 12.9216 28.3524 7.7359ZM38.1375 5.69C37.7737 6.19793 37.1446 8.20563 36.7254 9.20074C36.1958 10.6723 35.5347 12.1649 35.0946 13.6294C35.0279 13.9164 35.0085 14.1883 35.0809 14.4527C35.3438 15.3764 36.6298 15.6756 37.1043 14.773C37.3482 14.2755 37.3601 13.7288 37.4325 13.1617C37.5391 12.139 37.655 11.0294 37.7655 9.97027L37.7674 9.97125C37.8475 8.81776 38.2424 6.30577 38.1415 5.69H38.1375ZM34.9754 7.92437C35.9014 6.8667 34.2862 5.5393 33.242 6.51519H33.2401C32.2113 7.56939 33.8821 8.97133 34.9471 7.95367L34.9754 7.92437Z" fill="#748297"/>
</g>
</svg>
