<svg width="42" height="81" viewBox="0 0 42 81" fill="none" xmlns="http://www.w3.org/2000/svg">
<g opacity="0.8" clip-path="url(#clip0_6236_2629)">
<path d="M40.5572 44.9763C40.2994 46.3744 35.7211 63.2066 35.3524 64.5965C35.2257 65.0426 35.151 65.6902 34.5358 65.7478C33.8368 65.7889 32.8008 65.5484 32.0114 65.3818C31.4232 65.2359 31.1428 64.8946 31.197 64.3662V64.3292C31.2717 63.696 35.6238 47.5833 35.755 46.9542C35.8025 46.7691 35.8364 46.6005 35.8658 46.4402C36.0785 45.2498 36.4653 44.084 37.0941 43.0108C37.162 42.8936 37.2343 42.7764 37.309 42.6613C37.9853 41.5161 40.0619 40.6176 40.6545 42.2892C40.944 43.165 40.7405 44.0943 40.5595 44.9804L40.5572 44.9763Z" fill="#748297"/>
<path d="M40.3529 75.9251C39.7037 79.8541 34.3699 80.6827 30.7031 79.7307C23.9465 75.7134 28.932 65.4109 25.3377 59.7014C24.4804 58.3404 22.146 58.7434 21.9469 60.2895C21.1665 66.369 25.444 75.701 17.7034 79.8479C9.70265 82.3295 5.59258 77.755 8.17127 71.0545C10.1166 67.5265 13.668 45.7784 17.8662 46.7509C18.1377 46.8125 18.3616 46.9791 18.5132 47.1847C25.4643 56.4797 40.4207 64.0313 40.3461 75.9293L40.3529 75.9251Z" fill="#748297"/>
<path d="M38.9932 57.6409L38.9502 57.647C36.7945 57.9205 34.7723 56.8575 32.9061 56.0454C30.954 55.1243 29.1218 53.9586 27.5316 52.5832C27.5225 52.5749 27.5112 52.5667 27.5022 52.5585C21.1821 47.3055 20.0036 39.5236 19.7865 37.003C19.7865 36.9907 19.7842 36.9619 19.7797 36.9125C19.7729 36.7851 19.757 36.5301 19.7435 36.195C19.7005 35.1567 19.6824 33.3639 19.9606 32.3092C20.4334 29.8996 21.6436 27.6134 23.5776 25.4484C24.8126 24.0092 26.81 22.8517 28.9272 23.4253C30.1125 23.7091 31.2051 24.4369 31.7457 25.3538C34.1479 29.8482 27.8347 36.7316 27.57 41.7441C27.2126 44.4292 27.8369 46.7648 30.4541 48.4157C31.5874 49.1682 32.784 49.8631 34.0891 50.3421C36.3941 51.1399 39.4795 51.2262 40.9656 53.2164C42.3477 54.9311 41.4746 57.2811 38.9887 57.6409H38.9932Z" fill="#748297"/>
<path d="M18.3595 29.2198C18.4183 31.7096 17.7623 35.3898 17.2149 37.824C16.7286 39.9252 16.3418 42.0984 15.2243 44.0105C14.4123 45.4414 13.1817 46.71 11.5893 47.4501C7.76875 49.284 2.57291 47.7194 0.876406 44.2058C-0.136974 41.9771 0.566511 39.4606 1.39441 37.2628C2.89864 33.5024 5.64925 28.7593 9.57836 26.7259C11.0351 25.9672 12.6909 25.3114 14.41 25.3833C16.8326 25.4553 18.3572 27.0507 18.355 29.1807V29.2218L18.3595 29.2198Z" fill="#748297"/>
<path d="M31.1993 22.1017C28.5098 22.3258 26.1754 20.7427 24.8272 19.0218C21.2351 14.4719 20.8823 7.25136 25.7999 3.01811C30.3804 -1.09384 35.0854 0.180868 38.0125 4.71429C39.1729 6.45776 39.9216 8.32047 40.046 10.2593V10.3065C40.5278 14.3239 36.8068 21.5589 31.1993 22.1017Z" fill="#748297"/>
<path d="M32.3066 5.46094L33.0011 15.749C33.0441 16.4008 33.6752 16.888 34.3899 16.8243C35.1794 16.7544 35.7042 16.0471 35.4825 15.3563L32.3066 5.46299V5.46094Z" fill="white"/>
<path d="M28.2569 10.4011C29.0352 10.4011 29.6661 9.82763 29.6661 9.12023C29.6661 8.41282 29.0352 7.83936 28.2569 7.83936C27.4786 7.83936 26.8477 8.41282 26.8477 9.12023C26.8477 9.82763 27.4786 10.4011 28.2569 10.4011Z" fill="white"/>
</g>
<defs>
<clipPath id="clip0_6236_2629">
<rect width="41.25" height="80" fill="white" transform="translate(0.375 0.530273)"/>
</clipPath>
</defs>
</svg>
