<svg width="64" height="65" viewBox="0 0 64 65" fill="none" xmlns="http://www.w3.org/2000/svg">
<g opacity="0.8">
<path d="M30.9225 18.5557C35.2267 18.5006 38.2242 22.9719 37.8873 26.6436L37.8815 26.7012C37.5228 31.2306 31.3438 34.8037 27.3795 31.332C24.6223 28.9847 24.3076 25.0203 25.7828 21.9717C26.6095 20.0275 28.6302 18.5528 30.9225 18.5557ZM31.4674 21.5137C31.3868 22.0318 31.6883 23.8136 31.7535 24.7334C31.9212 26.0612 31.9951 27.4501 32.2311 28.7432C32.2932 28.9889 32.3834 29.2085 32.5416 29.3906C33.1036 30.027 34.2087 29.8336 34.2213 28.9717C34.2151 28.5003 34.011 28.0691 33.8434 27.6006C33.5267 26.7647 33.1813 25.8561 32.8522 24.9912C32.4641 24.0627 31.7873 21.9654 31.4674 21.5137ZM29.9108 24.3945C30.2155 23.2788 28.414 22.7839 27.985 23.877C27.5975 25.0269 29.469 25.5617 29.8981 24.4287L29.901 24.4258L29.9108 24.3945Z" fill="#748297"/>
<path d="M60.4029 18.5358C59.1412 20.1648 57.895 21.8025 56.4681 23.3041C48.0064 31.5445 39.0899 35.0513 43.9532 48.3205C44.8473 51.7318 46.7446 55.2849 45.6822 58.8148C44.704 62.4663 39.5479 66.7514 35.9993 63.2012C33.2733 60.1573 33.5848 51.7983 33.9462 47.8633C34.7033 39.8717 36.5196 32.8639 42.0278 26.5274C42.2272 26.2959 42.4203 26.0615 42.6104 25.8214C45.0903 22.6589 48.8756 18.7586 49.2869 14.9191C49.6576 10.6224 44.9003 9.49973 41.2489 10.4343C38.0368 11.2184 35.0834 13.7906 32.1486 15.2142C29.4973 16.632 25.9301 17.772 23.07 18.776C21.0855 19.4964 18.9763 20.3181 17.7301 21.9529C15.2626 25.2138 17.6865 28.9839 20.9235 30.8472C24.4813 32.9363 29.192 34.273 30.9989 38.1357C33.0801 42.279 31.7685 47.7157 31.4133 52.0703C31.0519 55.6408 31.4476 59.9085 29.3446 63.045C28.3601 64.3904 26.6965 64.943 25.2384 64.1936C23.8551 63.5195 22.9049 61.8182 22.3317 60.03C21.3067 56.7952 21.3534 53.789 21.8301 50.5513C22.2226 47.8257 23.2694 44.2813 21.3596 42.1402C19.7427 40.3462 17.4964 38.9053 15.5087 37.4442C12.0318 35.1526 7.95991 33.5757 4.5204 31.2002C3.13401 30.2975 1.80993 29.2211 1.01548 27.8207C-1.33983 23.6456 0.535692 17.7922 5.25877 15.8247C10.3526 13.3769 16.4371 15.2518 21.8176 14.433C25.5313 13.9122 28.7402 12.1819 31.6781 10.1131C37.0897 6.34014 42.4764 1.50817 49.3866 0.671975C52.3494 0.281366 55.3372 0.726949 58.1536 1.67309C58.1536 1.67309 58.1754 1.68177 58.219 1.69624C59.138 2.05213 69.2354 6.28806 60.4029 18.5358Z" fill="#748297"/>
</g>
</svg>
