<svg width="64" height="65" viewBox="0 0 64 65" fill="none" xmlns="http://www.w3.org/2000/svg">
<g opacity="0.8">
<path d="M48.5098 59.7376C47.8615 59.9391 47.4192 60.8241 46.6833 61.3746C46.0007 61.9322 45.1313 62.1445 44.2276 62.0617C41.4555 61.6768 38.874 60.8781 36.2316 59.9031C34.2183 59.0216 32.1401 58.2877 29.9323 57.9962C26.7903 57.4134 23.6712 56.8306 20.7695 55.5929C19.6217 55.0712 18.4282 54.42 17.1165 54.4632C16.2547 54.492 15.4654 54.8626 15.4159 55.2511C15.3548 55.5605 15.7171 55.8736 16.2929 56.1002C16.8953 56.3449 17.7495 56.5571 18.5007 56.791C20.3691 57.3558 22.2337 57.9711 24.0792 58.6151C30.592 60.7593 36.7235 64.2168 43.7472 64.5226C46.1266 64.6594 47.1752 62.9792 48.0865 61.1551C48.2695 60.8025 48.4983 60.3924 48.586 60.0326C48.6203 59.8635 48.6013 59.7592 48.5288 59.7376H48.5136H48.5098Z" fill="#748297"/>
<path d="M25.6162 32.5671C24.5333 32.2109 23.9041 32.5239 23.7021 33.5385C23.1301 35.8375 22.2264 39.0359 21.7192 41.3205C21.6544 41.6407 21.5934 41.9897 21.662 42.2991C21.7764 42.8676 22.3941 43.2633 22.8212 42.7489C23.6677 41.6695 26.07 34.956 26.2416 34.2617C26.417 33.5349 26.7068 32.819 25.6849 32.5851L25.6162 32.5635V32.5671Z" fill="#748297"/>
<path d="M4.18287 41.0326C4.37734 41.234 4.58705 41.4283 4.78915 41.6298C5.39543 42.1982 5.72336 42.9862 6.55081 42.8314C7.25623 42.6372 7.96546 41.7341 8.75478 41.4283C9.66992 40.9642 10.5622 40.4425 11.5193 40.0396C12.0264 39.8453 12.5069 39.4927 12.3925 38.9207C12.0264 37.3016 11.7862 35.5963 11.0007 34.078C9.89108 31.5164 8.61369 28.8504 6.1123 27.1595C5.34968 26.645 4.38878 26.2744 3.47745 26.5622C1.74249 27.2494 0.0647179 29.3865 0.0113345 31.2286C-0.106872 32.8728 0.720574 34.7364 1.50989 36.4778C2.22675 38.0932 2.90929 39.6798 4.12567 40.9894L4.17143 41.0397L4.18287 41.0326Z" fill="#748297"/>
<path d="M43.4766 25.6451C46.4928 24.3355 48.4146 21.4033 49.0628 18.5683L49.078 18.5035C49.8788 14.6143 49.284 8.33974 44.3193 7.00137C36.7808 5.36077 33.4291 18.1905 35.8237 22.7813C37.0782 25.476 40.4223 27.0662 43.4728 25.6487L43.4766 25.6451Z" fill="#748297"/>
<path d="M63.5377 36.6073C62.1955 39.8057 58.615 42.4609 54.8705 42.0795C52.8992 41.968 50.8134 40.8742 49.2881 39.8777C47.9116 38.9638 45.9746 38.5681 44.3159 39.1545C39.9308 40.7483 37.5591 45.6449 34.173 48.6203C30.4209 52.1317 25.2275 52.9844 20.2705 51.7576C18.4669 51.4517 16.6595 50.1421 14.8215 50.5559C12.2515 51.423 10.7949 54.4163 9.20865 56.3915C7.87407 58.0717 6.30307 59.7878 4.24399 60.7304C0.457586 62.389 -0.0953121 58.0105 0.545289 55.4021C1.29266 52.2612 3.21064 49.5521 4.90366 46.8142C6.98943 43.3279 11.2105 39.9244 15.6871 40.8455C17.4488 41.1944 18.9092 42.6228 20.3353 43.6229C21.9292 44.7311 24.0111 43.9108 25.1436 42.5796C26.7032 40.8958 27.2332 38.7084 27.9615 36.5317C28.278 35.5171 28.7508 34.4054 29.0902 33.4484C29.2999 32.8044 29.2198 32.4698 28.5373 32.1748C24.0302 31.3113 19.8205 28.7713 17.6013 24.8965C15.996 22.4895 16.0494 19.7552 17.5517 17.2907C18.4745 15.6753 19.9692 14.4629 21.4792 13.29C22.9434 12.1459 24.9606 11.25 26.8786 11.563C30.3714 12.1351 27.4734 15.6429 26.4668 17.1792C26.1045 17.7189 25.7651 18.2729 25.4143 18.8162C24.503 20.2049 23.3553 21.475 23.9196 23.1623C24.8919 26.2888 27.523 27.7387 30.9319 27.5121C34.7831 27.7135 38.9661 27.0911 42.3292 29.2858C44.7277 30.6026 46.1881 33.0598 48.8039 34.0492C51.5875 35.3516 54.9125 34.0816 55.5683 31.1494C56.1632 28.9512 55.1413 26.8177 54.657 24.6986C54.2452 23.3062 54.2833 19.8703 56.514 20.8346C57.0402 21.1008 57.7227 21.0504 58.2642 21.349C59.7055 22.306 61.0821 23.5257 62.104 25.0116C63.8618 27.5948 64.5139 33.7506 63.5644 36.5425L63.5415 36.6037L63.5377 36.6073Z" fill="#748297"/>
<path d="M51.9644 42.1084C50.3476 41.5328 49.4477 47.1885 49.013 48.2282C48.3152 50.3869 47.6174 52.4341 46.9082 54.4848C46.5078 56.0714 46.0235 57.9747 44.7728 59.2663C44.1666 59.7735 44.2543 59.09 44.5288 58.1653C44.9368 56.7406 46.4277 53.5925 45.5164 52.3477C43.5603 50.5704 39.3506 50.52 36.7425 50.2934C34.7063 50.0523 32.7959 50.7323 31.0304 51.6246C28.1668 52.9126 24.8723 53.2795 21.7799 52.8154C20.5825 52.6679 19.3547 52.3153 18.165 52.2254C16.9296 52.1426 15.492 52.596 17.0402 53.2292C19.6178 53.9595 22.3938 54.751 24.8303 55.7836C27.5796 56.737 30.5347 57.2119 33.3831 57.9243C36.2658 59 39.0036 60.4931 42.1609 61.0076C47.3848 62.015 47.953 57.6868 48.9635 54.0279C49.3104 51.9016 53.2112 43.4144 51.9949 42.1264L51.9682 42.1048L51.9644 42.1084Z" fill="#748297"/>
<path d="M29.6884 12.092C30.3024 14.5349 28.0755 16.5065 27.1489 18.6076C26.3177 20.3993 25.9211 22.4536 26.0774 24.4144C26.2109 25.7528 27.5798 26.7746 28.3691 25.116C28.9907 23.3747 29.0898 21.4822 29.6884 19.7265C31.1908 14.7292 32.0564 9.60953 33.1317 4.48627C33.1889 3.54725 34.5959 0.748171 33.1812 0.561086C32.0983 0.363207 30.5159 1.14753 30.2032 2.29162C29.738 3.84227 29.6808 5.49006 29.4101 7.08388C29.0669 8.90076 29.0555 10.3723 29.677 12.0308L29.6923 12.092H29.6884Z" fill="#748297"/>
<path d="M57.6164 20.511C59.5344 21.9501 59.6602 17.3054 60.053 16.3052C60.2894 15.1863 60.7775 13.7435 61.235 12.693C61.5935 11.6029 63.0768 8.9333 61.9786 8.08782C61.3799 7.67407 60.1025 7.40064 59.4047 7.84677C58.8328 8.25692 58.8099 9.14197 58.7031 9.78957C58.3523 12.362 57.5516 15.5604 57.0978 18.1185C56.9415 18.9208 56.9262 19.8742 57.5745 20.4714L57.6202 20.511H57.6164Z" fill="#748297"/>
<path d="M43.549 11.5598C43.2326 12.0707 42.7445 14.0459 42.4013 15.0317C41.978 16.4816 41.4328 17.9603 41.0972 19.403C41.0515 19.6836 41.0438 19.9499 41.1277 20.2017C41.4213 21.0868 42.6453 21.3206 43.0457 20.4248C43.2478 19.9319 43.2326 19.3994 43.2707 18.8453C43.3203 17.8487 43.3698 16.7658 43.4194 15.7332C43.4347 14.6107 43.6749 12.1534 43.549 11.5598Z" fill="white"/>
<path d="M40.6213 13.9811C39.6718 15.0172 38.0322 13.7292 38.9435 12.6607C39.8739 11.6677 41.4602 12.8838 40.6442 13.9523L40.6175 13.9811H40.6213Z" fill="white"/>
</g>
</svg>
