<svg width="19" height="18" viewBox="0 0 19 18" fill="none" xmlns="http://www.w3.org/2000/svg">
<g clip-path="url(#clip0_6127_1250)">
<path d="M4.44525 0.776428H13.6887C15.6781 0.776428 17.2907 2.38909 17.2907 4.37841V13.6219C17.2907 15.6112 15.6781 17.2239 13.6887 17.2239H4.44525C2.45593 17.2239 0.843262 15.6112 0.843262 13.6219V4.37841C0.843262 2.38909 2.45593 0.776428 4.44525 0.776428Z" fill="url(#paint0_linear_6127_1250)"/>
<path d="M6.11425 12.7144L6.1158 12.7149L5.55346 13.6889C5.3482 14.0444 4.89355 14.1662 4.53801 13.961C4.1825 13.7557 4.06068 13.3011 4.26594 12.9455L4.6802 12.228L4.71995 12.1592C4.79095 12.0571 4.96616 11.881 5.31663 11.9141C5.31663 11.9141 6.14137 12.0036 6.20104 12.4323C6.20106 12.4323 6.2092 12.5733 6.11425 12.7144ZM14.0902 10.2267H12.3366C12.2172 10.2187 12.165 10.176 12.1446 10.1512L12.1433 10.149L10.2661 6.89762L10.2637 6.89925L10.1511 6.73782C9.96659 6.45568 9.67361 7.17731 9.67361 7.17731C9.32381 7.98141 9.72324 8.89564 9.86253 9.17195L12.4698 13.6879C12.675 14.0434 13.1297 14.1652 13.4852 13.96C13.8407 13.7547 13.9626 13.3001 13.7573 12.9445L13.1053 11.8153C13.0927 11.7879 13.0707 11.7136 13.2044 11.7133H14.0902C14.5007 11.7133 14.8336 11.3805 14.8336 10.97C14.8336 10.5595 14.5007 10.2267 14.0902 10.2267ZM10.6842 11.2372C10.6842 11.2372 10.7778 11.7133 10.4156 11.7133H10.0534L3.93304 11.7133C3.52251 11.7133 3.1897 11.3805 3.1897 10.97C3.1897 10.5595 3.52251 10.2267 3.93304 10.2267H5.59964C5.8687 10.2111 5.93249 10.0557 5.93249 10.0557L5.93396 10.0565L8.10942 6.28846L8.10877 6.28833C8.14844 6.21554 8.11541 6.14677 8.10966 6.13588L7.39122 4.89151C7.18595 4.53598 7.30777 4.08134 7.6633 3.87608C8.01884 3.67081 8.47345 3.79263 8.67873 4.14816L9.01193 4.7253L9.34454 4.14919C9.5498 3.79365 10.0044 3.67183 10.36 3.87711C10.7155 4.08239 10.8373 4.53702 10.632 4.89253L7.60483 10.1358C7.5916 10.1677 7.58755 10.2178 7.68603 10.2267H9.49552L9.49591 10.2443C9.49591 10.2443 10.5417 10.2606 10.6842 11.2372Z" fill="white"/>
</g>
<defs>
<linearGradient id="paint0_linear_6127_1250" x1="17.2907" y1="-2.09638" x2="17.2907" y2="27.2575" gradientUnits="userSpaceOnUse">
<stop offset="0.000903478" stop-color="#17C9FB"/>
<stop offset="1" stop-color="#1A74E8"/>
</linearGradient>
<clipPath id="clip0_6127_1250">
<rect width="18" height="18" fill="white" transform="translate(0.0668945)"/>
</clipPath>
</defs>
</svg>
