<svg width="48" height="48" viewBox="0 0 48 48" fill="none" xmlns="http://www.w3.org/2000/svg">
<path d="M23.9415 0.00425027C23.9415 0.00425027 38.0882 -0.628299 45.5884 13.54H22.7378C22.7378 13.54 18.4254 13.4015 14.7417 18.6143C13.6835 20.8022 12.5461 23.056 13.8225 27.4976C11.9838 24.3937 4.06055 10.6472 4.06055 10.6472C4.06055 10.6472 9.64915 0.564374 23.9413 0.00425027H23.9415Z" fill="#EF3F36"/>
<path d="M44.8516 35.9735C44.8516 35.9735 38.3237 48.501 22.2656 47.8815C24.2498 44.4613 33.6941 28.1643 33.6941 28.1643C33.6941 28.1643 35.976 24.5135 33.2841 18.7276C31.9149 16.7177 30.5194 14.6155 26.0222 13.495C29.64 13.4623 45.5462 13.495 45.5462 13.495C45.5462 13.495 51.5049 23.3603 44.8516 35.9735Z" fill="#FCD900"/>
<path d="M3.12546 36.0737C3.12546 36.0737 -4.50024 24.1788 4.07114 10.6299C6.0487 14.0501 15.4931 30.347 15.4931 30.347C15.4931 30.347 17.5302 34.1429 23.8992 34.7094C26.3265 34.5316 28.8529 34.38 32.0806 31.0653C30.3012 34.2022 22.3183 47.9092 22.3183 47.9092C22.3183 47.9092 10.7575 48.1202 3.12527 36.0737H3.12546Z" fill="#61BC5B"/>
<path d="M22.2595 47.9999L25.4737 34.6356C25.4737 34.6356 29.0055 34.3586 31.9685 31.123C30.1298 34.3457 22.2595 47.9999 22.2595 47.9999Z" fill="#5AB055"/>
<path d="M13.1719 24.0938C13.1719 18.1702 17.9932 13.3662 23.9382 13.3662C29.8832 13.3662 34.7046 18.1702 34.7046 24.0938C34.7046 30.0176 29.8832 34.8214 23.9382 34.8214C17.9932 34.8148 13.1719 30.0176 13.1719 24.0938Z" fill="white"/>
<path d="M14.9661 24.1488C14.9661 19.246 18.9542 15.2656 23.8815 15.2656C28.802 15.2656 32.7968 19.2395 32.7968 24.1488C32.7968 29.0518 28.8088 33.0322 23.8815 33.0322C18.9608 33.0322 14.9661 29.0518 14.9661 24.1488Z" fill="url(#paint0_linear_6127_1471)"/>
<path d="M45.5382 13.501L32.3039 17.3693C32.3039 17.3693 30.3067 14.4498 26.0144 13.501C29.7379 13.4812 45.5382 13.501 45.5382 13.501Z" fill="#EACA05"/>
<path d="M13.5646 27.0073C11.706 23.798 4.06055 10.6445 4.06055 10.6445L13.8621 20.3053C13.8621 20.3053 12.8567 22.368 13.2339 25.3202L13.5645 27.0073H13.5646Z" fill="#DF3A32"/>
<defs>
<linearGradient id="paint0_linear_6127_1471" x1="23.8811" y1="15.3911" x2="23.8811" y2="32.4974" gradientUnits="userSpaceOnUse">
<stop stop-color="#86BBE5"/>
<stop offset="1" stop-color="#1072BA"/>
</linearGradient>
</defs>
</svg>
