<svg width="48" height="48" viewBox="0 0 48 48" fill="none" xmlns="http://www.w3.org/2000/svg">
<path d="M48 24C48 30.3652 45.4714 36.4697 40.9705 40.9706C36.4697 45.4714 30.3652 48 24 48C17.6348 48 11.5303 45.4714 7.02941 40.9705C2.52855 36.4697 0 30.3652 0 24C0 17.6348 2.52855 11.5303 7.02941 7.02946C11.5303 2.52859 17.6348 2.03197e-05 24 0C30.3652 0 36.4697 2.52856 40.9705 7.02943C45.4714 11.5303 48 17.6348 48 24Z" fill="#CBCFD2"/>
<path d="M46.1233 24.0003C46.1233 29.8667 43.7928 35.4928 39.6446 39.641C35.4964 43.7892 29.8703 46.1197 24.0039 46.1197C18.1374 46.1196 12.5113 43.7892 8.36312 39.641C4.21494 35.4928 1.88452 29.8667 1.88452 24.0003C1.88452 18.1338 4.21494 12.5077 8.36312 8.35951C12.5113 4.21132 18.1374 1.88088 24.0039 1.88086C29.8703 1.88086 35.4964 4.21129 39.6446 8.35948C43.7928 12.5077 46.1233 18.1338 46.1233 24.0003Z" fill="url(#paint0_radial_6127_1483)"/>
<path d="M24.0004 3.03223C23.958 3.03213 23.9161 3.0404 23.8769 3.05657C23.8377 3.07275 23.8021 3.0965 23.7721 3.12648C23.7421 3.15645 23.7184 3.19205 23.7022 3.23122C23.686 3.2704 23.6778 3.31239 23.6779 3.35478V7.07455C23.6778 7.11693 23.686 7.15892 23.7022 7.1981C23.7184 7.23728 23.7421 7.27288 23.7721 7.30285C23.8021 7.33282 23.8377 7.35658 23.8769 7.37275C23.9161 7.38893 23.958 7.3972 24.0004 7.3971C24.0428 7.39718 24.0848 7.38889 24.1239 7.37271C24.1631 7.35652 24.1987 7.33277 24.2286 7.3028C24.2586 7.27283 24.2823 7.23724 24.2985 7.19807C24.3147 7.1589 24.3229 7.11692 24.3228 7.07455V3.3547C24.3229 3.31233 24.3146 3.27035 24.2985 3.23119C24.2823 3.19202 24.2585 3.15644 24.2286 3.12648C24.1986 3.09651 24.163 3.07276 24.1239 3.05659C24.0847 3.04042 24.0427 3.03214 24.0003 3.03223H24.0004ZM21.8907 3.16554C21.8689 3.16321 21.8469 3.16331 21.8251 3.16585C21.7829 3.17015 21.742 3.18273 21.7047 3.20288C21.6675 3.22303 21.6345 3.25034 21.6078 3.28325C21.5811 3.31616 21.5612 3.35402 21.5492 3.39466C21.5372 3.43529 21.5333 3.4779 21.5378 3.52004L21.7003 5.07626C21.7046 5.11841 21.7172 5.15931 21.7374 5.19659C21.7575 5.23387 21.7848 5.2668 21.8178 5.29349C21.8507 5.32019 21.8885 5.34012 21.9292 5.35215C21.9698 5.36417 22.0124 5.36805 22.0545 5.36357C22.0967 5.35926 22.1376 5.34667 22.1749 5.32652C22.2122 5.30637 22.2451 5.27905 22.2718 5.24613C22.2985 5.21321 22.3184 5.17534 22.3305 5.1347C22.3425 5.09406 22.3463 5.05144 22.3418 5.00929L22.1794 3.45315C22.1719 3.37924 22.139 3.31021 22.0864 3.25778C22.0337 3.20535 21.9645 3.17276 21.8906 3.16554H21.8907ZM26.1249 3.16707C26.051 3.17426 25.9818 3.20681 25.9291 3.25921C25.8764 3.31161 25.8435 3.38062 25.8359 3.45453L25.6723 5.0106C25.6677 5.05274 25.6716 5.09537 25.6836 5.13602C25.6956 5.17667 25.7155 5.21455 25.7422 5.24749C25.7689 5.28043 25.8018 5.30777 25.8391 5.32795C25.8764 5.34814 25.9172 5.36076 25.9594 5.3651C26.0015 5.36962 26.0441 5.36577 26.0848 5.35378C26.1254 5.34179 26.1633 5.32189 26.1962 5.29522C26.2291 5.26855 26.2565 5.23564 26.2766 5.19838C26.2968 5.16112 26.3094 5.12024 26.3138 5.0781L26.4774 3.52188C26.4819 3.47974 26.4781 3.43713 26.4661 3.39648C26.4541 3.35584 26.4341 3.31797 26.4075 3.28504C26.3808 3.25212 26.3479 3.22479 26.3106 3.20462C26.2733 3.18446 26.2324 3.17185 26.1903 3.16753C26.1685 3.16531 26.1466 3.16518 26.1248 3.16715L26.1249 3.16707ZM19.7234 3.47982C19.6755 3.47994 19.6282 3.49076 19.585 3.51149C19.5418 3.53221 19.5038 3.56232 19.4738 3.59962C19.4437 3.63692 19.4223 3.68046 19.4112 3.72707C19.4001 3.77368 19.3996 3.82218 19.4096 3.86902L20.1799 7.50819C20.1886 7.54967 20.2054 7.58902 20.2293 7.62399C20.2533 7.65896 20.2839 7.68886 20.3194 7.71197C20.3549 7.73507 20.3947 7.75094 20.4363 7.75865C20.478 7.76635 20.5208 7.76576 20.5622 7.75689C20.6037 7.74821 20.643 7.73142 20.678 7.7075C20.713 7.68358 20.7429 7.65298 20.766 7.61748C20.7891 7.58197 20.805 7.54225 20.8127 7.50059C20.8204 7.45893 20.8198 7.41616 20.811 7.37473L20.0406 3.73548C20.0254 3.66277 19.9855 3.59756 19.9277 3.55092C19.8699 3.50428 19.7977 3.47907 19.7234 3.47959V3.47982ZM28.292 3.48288C28.2177 3.48225 28.1455 3.50736 28.0876 3.55396C28.0298 3.60056 27.9898 3.66576 27.9746 3.73847L27.2016 7.3771C27.1927 7.41854 27.1921 7.46132 27.1997 7.50299C27.2074 7.54467 27.2233 7.58442 27.2464 7.61996C27.2694 7.65549 27.2993 7.68612 27.3343 7.71008C27.3692 7.73404 27.4086 7.75085 27.45 7.75957C27.4915 7.76846 27.5343 7.76909 27.5759 7.76141C27.6176 7.75373 27.6573 7.7379 27.6929 7.71482C27.7284 7.69174 27.759 7.66187 27.783 7.62693C27.807 7.59198 27.8238 7.55265 27.8325 7.51118L28.6056 3.87247C28.6156 3.82563 28.6151 3.77714 28.604 3.73053C28.593 3.68392 28.5716 3.64037 28.5416 3.60305C28.5115 3.56574 28.4735 3.53561 28.4303 3.51486C28.3872 3.49411 28.3399 3.48326 28.292 3.48311V3.48288ZM17.6551 4.06301C17.6121 4.05911 17.5687 4.06418 17.5278 4.07788C17.4875 4.09088 17.4501 4.11172 17.4178 4.1392C17.3856 4.16668 17.3591 4.20026 17.3398 4.23801C17.3206 4.27576 17.309 4.31694 17.3057 4.35918C17.3024 4.40142 17.3075 4.4439 17.3207 4.48417L17.8041 5.97235C17.8171 6.01269 17.838 6.05006 17.8655 6.08232C17.893 6.11458 17.9266 6.14109 17.9643 6.16033C18.0021 6.17958 18.0433 6.19117 18.0855 6.19445C18.1278 6.19773 18.1703 6.19263 18.2106 6.17945C18.2509 6.16644 18.2883 6.14559 18.3205 6.11809C18.3528 6.0906 18.3793 6.057 18.3985 6.01924C18.4178 5.98147 18.4294 5.94028 18.4326 5.89802C18.4359 5.85576 18.4308 5.81328 18.4176 5.773L17.9341 4.28489C17.9146 4.22453 17.8778 4.17127 17.8281 4.13179C17.7785 4.09231 17.7183 4.06839 17.6551 4.06301ZM30.3486 4.06378C30.2854 4.06916 30.2252 4.09309 30.1756 4.13257C30.1259 4.17204 30.0891 4.2253 30.0696 4.28566L29.5858 5.77369C29.5726 5.81396 29.5675 5.85644 29.5708 5.89869C29.5741 5.94094 29.5856 5.98212 29.6049 6.01988C29.6241 6.05764 29.6506 6.09122 29.6829 6.11871C29.7151 6.1462 29.7525 6.16705 29.7928 6.18006C29.8331 6.19325 29.8755 6.19835 29.9178 6.19508C29.96 6.19181 30.0012 6.18023 30.039 6.161C30.0767 6.14177 30.1103 6.11528 30.1378 6.08304C30.1653 6.05079 30.1862 6.01344 30.1992 5.97312L30.683 4.48494C30.6962 4.44467 30.7013 4.4022 30.698 4.35995C30.6947 4.31771 30.6832 4.27652 30.6639 4.23877C30.6447 4.20101 30.6182 4.16742 30.586 4.13993C30.5537 4.11244 30.5164 4.09159 30.4761 4.07857C30.435 4.06518 30.3916 4.06016 30.3486 4.06378ZM15.6098 4.81155C15.5666 4.81241 15.5241 4.82194 15.4847 4.83959C15.4459 4.85672 15.4109 4.88134 15.3817 4.91202C15.3525 4.94271 15.3297 4.97886 15.3144 5.0184C15.2992 5.05794 15.292 5.1001 15.2931 5.14245C15.2942 5.1848 15.3037 5.22651 15.321 5.26519L16.8319 8.6644C16.849 8.70315 16.8736 8.73814 16.9043 8.76736C16.935 8.79657 16.9711 8.81944 17.0107 8.83465C17.0502 8.84985 17.0924 8.8571 17.1347 8.85597C17.1771 8.85483 17.2188 8.84535 17.2575 8.82805C17.2962 8.81093 17.3312 8.78633 17.3605 8.75565C17.3897 8.72497 17.4126 8.68882 17.4278 8.64927C17.443 8.60973 17.4503 8.56757 17.4492 8.52521C17.448 8.48286 17.4386 8.44114 17.4213 8.40245L15.9103 5.00332C15.8847 4.94527 15.8425 4.89609 15.7891 4.86196C15.7356 4.82782 15.6732 4.81026 15.6098 4.81147V4.81155ZM32.417 4.82289C32.3536 4.82167 32.2912 4.83918 32.2377 4.87322C32.1842 4.90726 32.1419 4.95633 32.1162 5.01427L30.6007 8.41141C30.5834 8.45008 30.5738 8.49178 30.5727 8.53414C30.5715 8.57649 30.5787 8.61866 30.5939 8.65823C30.609 8.69779 30.6318 8.73397 30.661 8.76469C30.6902 8.79541 30.7252 8.82007 30.7639 8.83724C30.8026 8.85458 30.8443 8.86411 30.8866 8.86529C30.929 8.86646 30.9712 8.85926 31.0107 8.8441C31.0503 8.82894 31.0865 8.80611 31.1172 8.77693C31.1479 8.74775 31.1726 8.71279 31.1897 8.67405L32.7052 5.27707C32.7225 5.2384 32.7321 5.19669 32.7333 5.15432C32.7345 5.11196 32.7273 5.06978 32.7121 5.03021C32.6969 4.99063 32.6741 4.95444 32.6449 4.92372C32.6157 4.89299 32.5807 4.86833 32.542 4.85116C32.5026 4.83352 32.4601 4.82391 32.417 4.82289ZM13.7113 5.81598C13.6472 5.81137 13.5831 5.82627 13.5276 5.85873C13.4909 5.87984 13.4586 5.90801 13.4328 5.9416C13.407 5.97519 13.388 6.01356 13.3771 6.05449C13.3661 6.09542 13.3633 6.13812 13.3689 6.18013C13.3745 6.22213 13.3883 6.26262 13.4096 6.29927L14.1919 7.65437C14.213 7.69112 14.2412 7.72333 14.2748 7.74916C14.3084 7.77499 14.3468 7.79393 14.3877 7.80489C14.4286 7.81585 14.4713 7.81862 14.5133 7.81304C14.5553 7.80746 14.5958 7.79363 14.6325 7.77236C14.6692 7.75125 14.7014 7.72309 14.7273 7.68949C14.7531 7.6559 14.772 7.61754 14.783 7.5766C14.7939 7.53567 14.7967 7.49297 14.7911 7.45097C14.7856 7.40896 14.7717 7.36847 14.7505 7.33182L13.9682 5.9768C13.9419 5.93096 13.9047 5.89232 13.8599 5.86427C13.8151 5.83622 13.7641 5.81964 13.7114 5.81598H13.7113ZM34.2894 5.81598C34.2367 5.81957 34.1857 5.83612 34.1409 5.86416C34.0961 5.8922 34.059 5.93086 34.0327 5.97672L33.2502 7.33182C33.229 7.36848 33.2152 7.40898 33.2096 7.45099C33.204 7.493 33.2068 7.5357 33.2178 7.57664C33.2288 7.61757 33.2477 7.65593 33.2736 7.68952C33.2994 7.72311 33.3316 7.75126 33.3684 7.77236C33.405 7.79363 33.4455 7.80746 33.4875 7.81304C33.5295 7.81862 33.5722 7.81585 33.6132 7.80489C33.6541 7.79393 33.6925 7.77499 33.7261 7.74916C33.7596 7.72333 33.7878 7.69112 33.8089 7.65437L34.5912 6.2992C34.6125 6.26255 34.6263 6.22206 34.6319 6.18005C34.6375 6.13804 34.6347 6.09535 34.6238 6.05441C34.6128 6.01348 34.5939 5.97512 34.568 5.94152C34.5422 5.90793 34.51 5.87977 34.4733 5.85866C34.4176 5.82639 34.3536 5.81153 34.2894 5.81598ZM11.8678 6.96575C11.8035 6.96807 11.7414 6.98949 11.6894 7.02727C11.6551 7.05208 11.626 7.08344 11.6038 7.11953C11.5815 7.15563 11.5667 7.19575 11.56 7.2376C11.5534 7.27946 11.5551 7.32221 11.565 7.36341C11.5749 7.40461 11.5928 7.44345 11.6178 7.4777L13.802 10.4887C13.8269 10.523 13.8582 10.5522 13.8943 10.5744C13.9304 10.5966 13.9706 10.6114 14.0124 10.6181C14.0543 10.6247 14.097 10.623 14.1382 10.6131C14.1794 10.6032 14.2183 10.5853 14.2525 10.5603C14.2869 10.5355 14.316 10.5042 14.3382 10.4681C14.3604 10.432 14.3752 10.3919 14.3819 10.35C14.3885 10.3082 14.3869 10.2654 14.377 10.2243C14.3671 10.1831 14.3491 10.1442 14.3242 10.11L12.1399 7.09899C12.1089 7.05616 12.068 7.02161 12.0205 6.99839C11.9731 6.97516 11.9207 6.96398 11.8679 6.96583L11.8678 6.96575ZM36.156 6.98215C36.1032 6.98021 36.0508 6.99131 36.0033 7.01447C35.9559 7.03763 35.9148 7.07213 35.8839 7.11492L33.6955 10.123C33.6705 10.1572 33.6525 10.196 33.6426 10.2372C33.6326 10.2784 33.6309 10.3212 33.6375 10.363C33.6441 10.4049 33.6589 10.445 33.6811 10.4811C33.7032 10.5173 33.7323 10.5487 33.7666 10.5735C33.8008 10.5985 33.8396 10.6165 33.8808 10.6265C33.922 10.6364 33.9648 10.6382 34.0066 10.6316C34.0485 10.625 34.0886 10.6102 34.1247 10.5881C34.1609 10.5659 34.1923 10.5369 34.2171 10.5026L36.4053 7.49455C36.4303 7.46033 36.4483 7.42152 36.4583 7.38033C36.4682 7.33914 36.47 7.29639 36.4634 7.25454C36.4568 7.21268 36.442 7.17254 36.4198 7.13642C36.3976 7.1003 36.3686 7.06891 36.3343 7.04405C36.2823 7.00608 36.2202 6.98451 36.156 6.98215ZM10.22 8.34767C10.1777 8.34538 10.1353 8.35152 10.0954 8.36572C10.0554 8.37993 10.0187 8.40191 9.98734 8.43041C9.95579 8.4587 9.93013 8.49293 9.91185 8.53116C9.89356 8.56938 9.88301 8.61084 9.88079 8.65315C9.87857 8.69546 9.88472 8.7378 9.89891 8.77773C9.91309 8.81765 9.93502 8.85439 9.96343 8.88582L11.0104 10.0488C11.0387 10.0804 11.0729 10.1061 11.1111 10.1243C11.1494 10.1426 11.1908 10.1532 11.2331 10.1554C11.2755 10.1576 11.3178 10.1514 11.3577 10.1372C11.3976 10.123 11.4344 10.1011 11.4658 10.0727C11.4973 10.0444 11.523 10.0101 11.5413 9.97191C11.5596 9.93368 11.5701 9.89221 11.5723 9.8499C11.5746 9.80758 11.5684 9.76523 11.5542 9.7253C11.54 9.68537 11.5181 9.64863 11.4897 9.61719L10.4429 8.45424C10.4146 8.42267 10.3804 8.397 10.3421 8.37871C10.3039 8.36042 10.2624 8.34987 10.2201 8.34767H10.22ZM37.7831 8.34997C37.6976 8.35456 37.6174 8.39292 37.5602 8.45662L36.5133 9.61933C36.4849 9.65076 36.4629 9.6875 36.4487 9.72743C36.4345 9.76737 36.4283 9.80972 36.4305 9.85205C36.4327 9.89438 36.4433 9.93586 36.4615 9.9741C36.4798 10.0123 36.5055 10.0466 36.5371 10.0749C36.5685 10.1033 36.6052 10.1253 36.6452 10.1394C36.6851 10.1536 36.7274 10.1598 36.7698 10.1576C36.8121 10.1554 36.8535 10.1448 36.8918 10.1265C36.93 10.1082 36.9642 10.0825 36.9925 10.051L38.0396 8.88827C38.068 8.85682 38.0899 8.82008 38.1041 8.78014C38.1183 8.7402 38.1244 8.69785 38.1222 8.65553C38.12 8.6132 38.1094 8.57173 38.0912 8.53349C38.0729 8.49526 38.0472 8.46101 38.0157 8.43271C37.9843 8.40427 37.9476 8.38232 37.9077 8.36812C37.8678 8.35392 37.8254 8.34775 37.7831 8.34997H37.7831ZM8.64074 9.86466C8.59843 9.86694 8.55698 9.87753 8.51877 9.89583C8.48055 9.91412 8.44632 9.93977 8.41802 9.97131C8.38959 10.0027 8.36765 10.0395 8.35346 10.0794C8.33927 10.1193 8.33311 10.1617 8.33533 10.204C8.33755 10.2463 8.34811 10.2878 8.36641 10.326C8.3847 10.3643 8.41036 10.3985 8.44192 10.4268L11.2066 12.9155C11.238 12.9439 11.2748 12.9658 11.3147 12.98C11.3546 12.9942 11.397 13.0004 11.4393 12.9981C11.4816 12.9959 11.523 12.9854 11.5613 12.9671C11.5995 12.9488 11.6337 12.9231 11.662 12.8916C11.6904 12.8602 11.7124 12.8234 11.7266 12.7835C11.7408 12.7436 11.7469 12.7013 11.7447 12.6589C11.7425 12.6166 11.732 12.5752 11.7137 12.5369C11.6954 12.4987 11.6697 12.4645 11.6382 12.4362L8.87342 9.94748C8.84199 9.91903 8.80525 9.89707 8.7653 9.88287C8.72536 9.86867 8.683 9.86251 8.64066 9.86474L8.64074 9.86466ZM39.37 9.87561C39.3276 9.87329 39.2853 9.87939 39.2453 9.89355C39.2053 9.90772 39.1685 9.92967 39.1371 9.95813L36.3709 12.4449C36.3393 12.4732 36.3136 12.5074 36.2953 12.5456C36.2769 12.5838 36.2663 12.6252 36.2641 12.6676C36.2618 12.7099 36.2679 12.7522 36.2821 12.7922C36.2962 12.8321 36.3181 12.8689 36.3465 12.9003C36.3748 12.9319 36.409 12.9576 36.4472 12.9759C36.4855 12.9942 36.5269 13.0048 36.5693 13.007C36.6116 13.0093 36.6539 13.0032 36.6939 12.989C36.7338 12.9748 36.7706 12.9529 36.8021 12.9245L39.5685 10.4377C39.6001 10.4095 39.6258 10.3753 39.6441 10.337C39.6624 10.2988 39.673 10.2574 39.6752 10.2151C39.6775 10.1728 39.6713 10.1304 39.6572 10.0905C39.643 10.0505 39.6211 10.0138 39.5927 9.98234C39.5645 9.95075 39.5302 9.92506 39.492 9.90675C39.4538 9.88843 39.4123 9.87785 39.37 9.87561ZM7.32739 11.5535C7.2746 11.5516 7.22216 11.5627 7.1747 11.5859C7.12725 11.6091 7.08624 11.6437 7.05533 11.6865C7.03033 11.7207 7.01235 11.7596 7.0024 11.8008C6.99246 11.842 6.99076 11.8847 6.9974 11.9266C7.00403 11.9685 7.01887 12.0086 7.04107 12.0447C7.06327 12.0808 7.09238 12.1122 7.12674 12.137L8.39258 13.0566C8.4268 13.0816 8.46561 13.0996 8.5068 13.1096C8.548 13.1195 8.59075 13.1212 8.6326 13.1146C8.67446 13.108 8.71459 13.0932 8.7507 13.071C8.78681 13.0488 8.81818 13.0197 8.843 12.9854C8.86799 12.9511 8.88597 12.9123 8.89591 12.8711C8.90586 12.8299 8.90757 12.7872 8.90095 12.7453C8.89433 12.7035 8.87951 12.6633 8.85734 12.6272C8.83517 12.5911 8.80608 12.5597 8.77175 12.5349L7.50583 11.6152C7.45385 11.5773 7.3917 11.5558 7.32739 11.5535ZM40.682 11.5652C40.6178 11.5675 40.5557 11.5889 40.5037 11.6267L39.2372 12.5456C39.2029 12.5704 39.1737 12.6018 39.1515 12.6379C39.1293 12.674 39.1145 12.7141 39.1078 12.756C39.1011 12.7978 39.1028 12.8406 39.1127 12.8818C39.1226 12.923 39.1406 12.9618 39.1655 12.9961C39.1903 13.0304 39.2217 13.0596 39.2578 13.0818C39.2939 13.104 39.334 13.1188 39.3758 13.1255C39.4177 13.1321 39.4604 13.1305 39.5016 13.1206C39.5428 13.1106 39.5817 13.0927 39.6159 13.0677L40.8825 12.1488C40.9168 12.124 40.9459 12.0926 40.9681 12.0565C40.9903 12.0205 41.0051 11.9803 41.0118 11.9385C41.0184 11.8966 41.0168 11.8539 41.0068 11.8127C40.9969 11.7715 40.979 11.7327 40.954 11.6985C40.9231 11.6556 40.8821 11.621 40.8347 11.5978C40.7873 11.5746 40.7348 11.5634 40.682 11.5652ZM6.10016 13.3548C6.04745 13.3584 5.99645 13.375 5.95167 13.403C5.9069 13.431 5.86974 13.4697 5.8435 13.5155C5.82223 13.5522 5.8084 13.5927 5.80282 13.6347C5.79724 13.6767 5.80001 13.7194 5.81097 13.7603C5.82194 13.8013 5.84088 13.8396 5.86671 13.8732C5.89254 13.9068 5.92475 13.935 5.96149 13.9561L9.18295 15.816C9.2196 15.8373 9.26009 15.8511 9.30209 15.8567C9.3441 15.8623 9.3868 15.8595 9.42773 15.8485C9.46866 15.8376 9.50703 15.8186 9.54062 15.7928C9.57422 15.767 9.60238 15.7348 9.62349 15.698C9.64476 15.6614 9.65859 15.6209 9.66417 15.5789C9.66975 15.5369 9.66698 15.4942 9.65602 15.4532C9.64505 15.4123 9.62611 15.3739 9.60028 15.3403C9.57445 15.3068 9.54224 15.2786 9.5055 15.2575L6.28404 13.3976C6.22839 13.3653 6.16435 13.3504 6.10016 13.3548ZM41.9007 13.3548C41.8365 13.3502 41.7724 13.3651 41.7168 13.3976L38.4954 15.2575C38.4587 15.2786 38.4265 15.3068 38.4006 15.3403C38.3748 15.3739 38.3559 15.4123 38.3449 15.4532C38.334 15.4942 38.3312 15.5369 38.3368 15.5789C38.3423 15.6209 38.3562 15.6614 38.3774 15.698C38.3986 15.7348 38.4267 15.767 38.4603 15.7928C38.4939 15.8186 38.5323 15.8376 38.5732 15.8485C38.6141 15.8595 38.6568 15.8623 38.6988 15.8567C38.7408 15.8511 38.7813 15.8373 38.818 15.816L42.0395 13.9562C42.0763 13.9351 42.1085 13.9069 42.1343 13.8733C42.1601 13.8397 42.1791 13.8013 42.19 13.7604C42.201 13.7195 42.2038 13.6768 42.1982 13.6348C42.1926 13.5928 42.1788 13.5523 42.1575 13.5156C42.1312 13.4698 42.094 13.4312 42.0492 13.4031C42.0044 13.3751 41.9534 13.3585 41.9007 13.3549V13.3548ZM5.17212 15.2749C5.1087 15.2735 5.04629 15.2909 4.99277 15.325C4.93925 15.359 4.89702 15.4082 4.8714 15.4662C4.85405 15.5048 4.84451 15.5466 4.84332 15.5889C4.84213 15.6313 4.84932 15.6734 4.86447 15.713C4.87963 15.7526 4.90245 15.7888 4.93163 15.8195C4.96081 15.8502 4.99578 15.8749 5.03452 15.8921L6.46363 16.5295C6.50229 16.5469 6.544 16.5564 6.58636 16.5576C6.62872 16.5588 6.67089 16.5516 6.71047 16.5365C6.75004 16.5213 6.78623 16.4985 6.81696 16.4693C6.84769 16.4401 6.87235 16.4052 6.88953 16.3664C6.90688 16.3278 6.91642 16.286 6.91761 16.2437C6.91879 16.2013 6.91159 16.1591 6.89643 16.1196C6.88127 16.08 6.85843 16.0438 6.82925 16.0131C6.80006 15.9823 6.76509 15.9577 6.72634 15.9405L5.29731 15.3031C5.25789 15.2854 5.21531 15.2758 5.17212 15.2749V15.2749ZM42.8349 15.2882C42.7916 15.2891 42.749 15.2986 42.7096 15.3163L41.2802 15.9527C41.2414 15.9698 41.2064 15.9945 41.1772 16.0252C41.148 16.0559 41.1251 16.092 41.1099 16.1316C41.0947 16.1711 41.0875 16.2133 41.0886 16.2557C41.0898 16.298 41.0993 16.3398 41.1166 16.3784C41.1338 16.4172 41.1584 16.4522 41.1891 16.4814C41.2199 16.5106 41.2561 16.5335 41.2956 16.5487C41.3352 16.5639 41.3774 16.5711 41.4198 16.5699C41.4622 16.5688 41.5039 16.5593 41.5426 16.5419L42.9719 15.9055C43.0107 15.8883 43.0457 15.8637 43.0749 15.833C43.104 15.8023 43.1269 15.7661 43.1421 15.7266C43.1573 15.687 43.1645 15.6448 43.1633 15.6025C43.1622 15.5601 43.1527 15.5184 43.1353 15.4797C43.1097 15.4218 43.0675 15.3726 43.0141 15.3386C42.9606 15.3045 42.8983 15.287 42.8349 15.2882ZM4.34513 17.2817C4.28195 17.2871 4.22176 17.3109 4.17211 17.3503C4.12247 17.3898 4.08558 17.443 4.06609 17.5033C4.05288 17.5436 4.04774 17.586 4.05098 17.6283C4.05422 17.6705 4.06577 17.7117 4.08497 17.7495C4.10416 17.7873 4.13063 17.8209 4.16286 17.8484C4.19508 17.8759 4.23241 17.8968 4.27272 17.9098L7.80954 19.0623C7.8498 19.0755 7.89228 19.0807 7.93454 19.0774C7.9768 19.0742 8.01801 19.0626 8.05579 19.0434C8.09357 19.0242 8.12718 18.9977 8.1547 18.9655C8.18222 18.9333 8.20309 18.8959 8.21614 18.8556C8.22935 18.8153 8.23448 18.7728 8.23124 18.7306C8.228 18.6883 8.21644 18.6472 8.19723 18.6094C8.17803 18.5716 8.15155 18.538 8.11932 18.5105C8.08709 18.483 8.04974 18.4621 8.00943 18.4491L4.47262 17.2965C4.43154 17.2831 4.38819 17.278 4.34513 17.2817V17.2817ZM43.6603 17.2955C43.6173 17.2916 43.5739 17.2967 43.533 17.3104L39.9953 18.4603C39.955 18.4733 39.9176 18.4942 39.8854 18.5217C39.8531 18.5492 39.8266 18.5828 39.8074 18.6206C39.7882 18.6583 39.7766 18.6995 39.7733 18.7418C39.7701 18.784 39.7752 18.8265 39.7884 18.8668C39.8014 18.9071 39.8223 18.9444 39.8498 18.9767C39.8773 19.0089 39.9109 19.0354 39.9486 19.0546C39.9864 19.0739 40.0276 19.0854 40.0698 19.0887C40.1121 19.0919 40.1546 19.0868 40.1948 19.0736L43.7323 17.9238C43.7727 17.9108 43.8101 17.8899 43.8423 17.8624C43.8746 17.8349 43.9011 17.8013 43.9203 17.7636C43.9396 17.7258 43.9512 17.6846 43.9544 17.6424C43.9577 17.6001 43.9526 17.5576 43.9394 17.5173C43.9199 17.457 43.8831 17.4037 43.8334 17.3642C43.7837 17.3248 43.7235 17.3008 43.6603 17.2955V17.2955ZM3.82989 19.3882C3.75558 19.3876 3.68335 19.4127 3.62548 19.4593C3.5676 19.5059 3.52764 19.5712 3.51239 19.6439C3.50349 19.6853 3.50287 19.7281 3.51055 19.7698C3.51824 19.8114 3.53408 19.8512 3.55716 19.8867C3.58025 19.9223 3.61013 19.9529 3.64508 19.9769C3.68004 20.0008 3.71938 20.0176 3.76086 20.0263L5.29141 20.3517C5.33284 20.3606 5.37562 20.3612 5.4173 20.3535C5.45898 20.3458 5.49872 20.33 5.53426 20.3069C5.5698 20.2838 5.60043 20.2539 5.62438 20.219C5.64834 20.184 5.66516 20.1447 5.67387 20.1032C5.68277 20.0618 5.6834 20.019 5.67572 19.9773C5.66804 19.9356 5.65221 19.8959 5.62913 19.8604C5.60605 19.8248 5.57618 19.7942 5.54123 19.7702C5.50629 19.7463 5.46695 19.7294 5.42548 19.7207L3.89501 19.3954C3.8736 19.3909 3.85177 19.3886 3.82989 19.3885V19.3882ZM44.1716 19.3913C44.1498 19.3918 44.128 19.3941 44.1066 19.3982L42.576 19.7233C42.5345 19.732 42.4952 19.7489 42.4603 19.7728C42.4253 19.7968 42.3955 19.8274 42.3724 19.8629C42.3493 19.8984 42.3335 19.9381 42.3258 19.9798C42.3181 20.0215 42.3187 20.0642 42.3276 20.1056C42.3363 20.1471 42.3531 20.1865 42.3771 20.2214C42.401 20.2564 42.4317 20.2863 42.4672 20.3094C42.5027 20.3325 42.5425 20.3483 42.5842 20.356C42.6258 20.3637 42.6686 20.3631 42.7101 20.3543L44.2405 20.0291C44.282 20.0204 44.3213 20.0036 44.3563 19.9796C44.3913 19.9556 44.4211 19.925 44.4442 19.8895C44.4673 19.8539 44.4832 19.8142 44.4909 19.7725C44.4986 19.7309 44.4979 19.6881 44.4891 19.6466C44.4738 19.5739 44.4338 19.5088 44.3759 19.4622C44.3181 19.4156 44.2459 19.3904 44.1716 19.391V19.3913ZM3.43984 21.5072C3.36592 21.5143 3.29674 21.5468 3.24405 21.5991C3.19136 21.6514 3.1584 21.7204 3.15076 21.7943C3.1462 21.8364 3.15 21.879 3.16196 21.9197C3.17392 21.9603 3.19379 21.9982 3.22044 22.0312C3.24708 22.0642 3.27998 22.0915 3.31724 22.1118C3.35449 22.132 3.39538 22.1446 3.43754 22.149L7.1367 22.54C7.17884 22.5446 7.22147 22.5408 7.26214 22.5288C7.30281 22.5169 7.34072 22.497 7.37368 22.4703C7.40664 22.4437 7.43401 22.4108 7.45422 22.3735C7.47443 22.3362 7.48707 22.2953 7.49143 22.2532C7.49598 22.211 7.49216 22.1684 7.48019 22.1277C7.46822 22.0871 7.44833 22.0492 7.42167 22.0162C7.39501 21.9833 7.3621 21.9559 7.32483 21.9357C7.28756 21.9155 7.24667 21.9029 7.2045 21.8985L3.50527 21.5074C3.48352 21.5052 3.4616 21.5051 3.43984 21.5072ZM44.5643 21.535C44.5425 21.5326 44.5205 21.5327 44.4987 21.5352L40.7991 21.9214C40.757 21.9257 40.7161 21.9382 40.6788 21.9584C40.6415 21.9785 40.6086 22.0059 40.5819 22.0388C40.5552 22.0717 40.5352 22.1095 40.5232 22.1502C40.5112 22.1908 40.5073 22.2334 40.5118 22.2756C40.5161 22.3177 40.5287 22.3586 40.5488 22.3959C40.569 22.4332 40.5963 22.4661 40.6292 22.4928C40.6622 22.5195 40.7 22.5394 40.7407 22.5515C40.7813 22.5635 40.8239 22.5674 40.8661 22.5629L44.5657 22.1767C44.6078 22.1724 44.6487 22.1598 44.686 22.1397C44.7233 22.1195 44.7562 22.0922 44.7829 22.0593C44.8096 22.0264 44.8296 21.9885 44.8416 21.9479C44.8536 21.9073 44.8575 21.8647 44.853 21.8225C44.8455 21.7486 44.8126 21.6796 44.76 21.6272C44.7074 21.5748 44.6382 21.5422 44.5643 21.5349V21.535ZM3.37724 23.6762C3.33485 23.6761 3.29286 23.6843 3.25369 23.7005C3.21451 23.7167 3.17891 23.7404 3.14894 23.7704C3.11896 23.8004 3.09521 23.836 3.07904 23.8752C3.06286 23.9143 3.05459 23.9563 3.05469 23.9987C3.05461 24.0411 3.0629 24.0831 3.07908 24.1222C3.09526 24.1614 3.11902 24.197 3.14899 24.2269C3.17896 24.2569 3.21455 24.2806 3.25372 24.2968C3.29289 24.3129 3.33487 24.3212 3.37724 24.3211H4.94196C4.98434 24.3212 5.02632 24.3129 5.06549 24.2968C5.10466 24.2806 5.14025 24.2568 5.17022 24.2269C5.20019 24.1969 5.22394 24.1613 5.24013 24.1222C5.25631 24.083 5.2646 24.041 5.26451 23.9986C5.26461 23.9563 5.25632 23.9143 5.24015 23.8751C5.22397 23.8359 5.20021 23.8003 5.17024 23.7704C5.14027 23.7404 5.10468 23.7166 5.06551 23.7005C5.02633 23.6843 4.98435 23.676 4.94196 23.6761L3.37724 23.6762ZM43.0588 23.6762C43.0164 23.6761 42.9744 23.6843 42.9353 23.7005C42.8961 23.7167 42.8605 23.7404 42.8305 23.7704C42.8005 23.8004 42.7768 23.836 42.7606 23.8752C42.7444 23.9143 42.7362 23.9563 42.7363 23.9987C42.7362 24.0411 42.7445 24.0831 42.7607 24.1222C42.7768 24.1614 42.8006 24.197 42.8306 24.2269C42.8605 24.2569 42.8961 24.2806 42.9353 24.2968C42.9745 24.3129 43.0164 24.3212 43.0588 24.3211H44.6235C44.6659 24.3212 44.7079 24.3129 44.747 24.2968C44.7862 24.2806 44.8218 24.2568 44.8518 24.2269C44.8817 24.1969 44.9055 24.1613 44.9216 24.1222C44.9378 24.083 44.9461 24.041 44.946 23.9986C44.9461 23.9563 44.9378 23.9143 44.9217 23.8751C44.9055 23.8359 44.8817 23.8003 44.8518 23.7703C44.8218 23.7404 44.7862 23.7166 44.747 23.7004C44.7078 23.6843 44.6658 23.676 44.6235 23.6761L43.0588 23.6762ZM7.20013 25.4341C7.17838 25.4318 7.15644 25.4319 7.1347 25.4344L3.43493 25.8205C3.39277 25.8248 3.35188 25.8374 3.3146 25.8575C3.27732 25.8777 3.24439 25.905 3.21769 25.9379C3.191 25.9708 3.17107 26.0087 3.15904 26.0493C3.14702 26.0899 3.14314 26.1325 3.14762 26.1747C3.15193 26.2168 3.16451 26.2577 3.18466 26.295C3.20481 26.3323 3.23212 26.3652 3.26503 26.3919C3.29794 26.4186 3.3358 26.4385 3.37644 26.4506C3.41707 26.4626 3.45968 26.4665 3.50182 26.462L7.20159 26.0758C7.24375 26.0715 7.28464 26.059 7.32192 26.0388C7.3592 26.0187 7.39213 25.9913 7.41883 25.9584C7.44552 25.9255 7.46546 25.8877 7.47748 25.847C7.48951 25.8064 7.49339 25.7638 7.4889 25.7216C7.48134 25.6477 7.44845 25.5787 7.3958 25.5263C7.34316 25.4739 7.27399 25.4413 7.20006 25.4341H7.20013ZM40.7985 25.4569C40.7246 25.4641 40.6554 25.4966 40.6027 25.5489C40.55 25.6012 40.517 25.6702 40.5094 25.7441C40.5049 25.7862 40.5087 25.8288 40.5206 25.8695C40.5326 25.9101 40.5525 25.948 40.5791 25.981C40.6057 26.0139 40.6386 26.0413 40.6759 26.0615C40.7131 26.0817 40.754 26.0944 40.7961 26.0987L44.4954 26.4898C44.5375 26.4944 44.5801 26.4905 44.6208 26.4786C44.6614 26.4666 44.6993 26.4467 44.7323 26.4201C44.7652 26.3934 44.7926 26.3605 44.8128 26.3232C44.833 26.286 44.8457 26.2451 44.85 26.2029C44.8546 26.1608 44.8507 26.1182 44.8388 26.0775C44.8268 26.0369 44.8069 25.999 44.7803 25.9661C44.7536 25.9331 44.7207 25.9058 44.6834 25.8856C44.6462 25.8654 44.6053 25.8527 44.5632 25.8484L40.8641 25.4572C40.8423 25.455 40.8203 25.4549 40.7985 25.4569ZM5.35599 27.6357C5.33411 27.6358 5.3123 27.6381 5.29087 27.6426L3.76032 27.9677C3.71885 27.9764 3.6795 27.9932 3.64455 28.0172C3.60959 28.0412 3.57971 28.0718 3.55663 28.1073C3.53354 28.1429 3.5177 28.1826 3.51002 28.2243C3.50233 28.266 3.50296 28.3087 3.51185 28.3502C3.52057 28.3917 3.53738 28.431 3.56134 28.466C3.5853 28.5009 3.61593 28.5308 3.65147 28.5539C3.687 28.577 3.72675 28.5928 3.76843 28.6005C3.8101 28.6082 3.85289 28.6075 3.89432 28.5986L5.42495 28.2736C5.46641 28.2649 5.50575 28.2481 5.5407 28.2241C5.57564 28.2002 5.60551 28.1695 5.62859 28.134C5.65167 28.0985 5.66751 28.0587 5.67518 28.0171C5.68286 27.9754 5.68223 27.9326 5.67334 27.8912C5.65809 27.8185 5.61816 27.7533 5.56032 27.7067C5.50247 27.66 5.43028 27.6349 5.35599 27.6354V27.6357ZM42.6443 27.6387C42.57 27.6381 42.4978 27.6632 42.44 27.7098C42.3821 27.7564 42.3422 27.8215 42.327 27.8942C42.3181 27.9357 42.3174 27.9784 42.3251 28.0201C42.3327 28.0618 42.3485 28.1015 42.3716 28.1371C42.3947 28.1726 42.4245 28.2033 42.4595 28.2272C42.4944 28.2512 42.5337 28.2681 42.5752 28.2768L44.1058 28.602C44.1473 28.6109 44.19 28.6116 44.2317 28.6039C44.2734 28.5963 44.3131 28.5804 44.3487 28.5574C44.3842 28.5343 44.4149 28.5045 44.4389 28.4695C44.4628 28.4346 44.4797 28.3952 44.4884 28.3538C44.4973 28.3123 44.4979 28.2695 44.4903 28.2278C44.4826 28.1861 44.4667 28.1464 44.4437 28.1108C44.4206 28.0753 44.3907 28.0446 44.3557 28.0206C44.3208 27.9966 44.2814 27.9798 44.2399 27.9711L42.7094 27.6459C42.688 27.6413 42.6662 27.639 42.6443 27.639V27.6387ZM7.93335 28.9089C7.89033 28.905 7.84697 28.9101 7.80601 28.9238L4.26836 30.0737C4.22804 30.0867 4.19068 30.1076 4.15844 30.1351C4.1262 30.1626 4.0997 30.1962 4.08048 30.2339C4.06125 30.2717 4.04967 30.3129 4.0464 30.3551C4.04313 30.3974 4.04823 30.4398 4.06142 30.4801C4.07443 30.5204 4.09528 30.5578 4.12276 30.59C4.15025 30.6223 4.18384 30.6488 4.2216 30.668C4.25936 30.6873 4.30054 30.6988 4.34279 30.7021C4.38504 30.7054 4.42752 30.7003 4.46779 30.6871L8.00529 29.5371C8.04562 29.5241 8.08298 29.5033 8.11523 29.4758C8.14749 29.4483 8.174 29.4147 8.19324 29.3769C8.21248 29.3392 8.22407 29.298 8.22736 29.2557C8.23064 29.2135 8.22555 29.171 8.21238 29.1307C8.1929 29.0704 8.15602 29.0171 8.10638 28.9776C8.05674 28.9382 7.99654 28.9142 7.93335 28.9089V28.9089ZM40.0638 28.9204C40.0006 28.9257 39.9404 28.9495 39.8907 28.989C39.8411 29.0284 39.8042 29.0816 39.7847 29.1419C39.7715 29.1822 39.7664 29.2247 39.7696 29.2669C39.7729 29.3092 39.7844 29.3504 39.8036 29.3881C39.8228 29.4259 39.8493 29.4595 39.8815 29.487C39.9138 29.5145 39.9511 29.5354 39.9914 29.5484L43.5282 30.7009C43.5684 30.7141 43.6109 30.7193 43.6532 30.716C43.6954 30.7128 43.7366 30.7012 43.7744 30.682C43.8122 30.6628 43.8458 30.6363 43.8733 30.6041C43.9008 30.5719 43.9217 30.5345 43.9348 30.4942C43.948 30.4539 43.9531 30.4115 43.9499 30.3692C43.9466 30.327 43.9351 30.2858 43.9159 30.248C43.8967 30.2102 43.8702 30.1766 43.8379 30.1491C43.8057 30.1216 43.7684 30.1007 43.7281 30.0877L40.1912 28.9352C40.1502 28.9218 40.1068 28.9167 40.0638 28.9204ZM6.58345 31.4276C6.54027 31.4284 6.49769 31.4379 6.45826 31.4556L5.02869 32.092C4.98995 32.1092 4.95498 32.1338 4.92579 32.1645C4.8966 32.1952 4.87376 32.2314 4.85859 32.271C4.84341 32.3105 4.83619 32.3527 4.83735 32.395C4.83851 32.4374 4.84803 32.4791 4.86535 32.5178C4.8825 32.5565 4.90714 32.5915 4.93784 32.6207C4.96855 32.6499 5.00472 32.6727 5.04428 32.6879C5.08384 32.7031 5.126 32.7103 5.16836 32.7092C5.21072 32.708 5.25243 32.6985 5.2911 32.6812L6.72067 32.0448C6.75941 32.0277 6.79438 32.003 6.82357 31.9723C6.85276 31.9416 6.8756 31.9054 6.89078 31.8659C6.90596 31.8263 6.91317 31.7841 6.91201 31.7418C6.91085 31.6994 6.90134 31.6577 6.88402 31.6191C6.85836 31.5611 6.81613 31.5119 6.76264 31.4779C6.70916 31.4438 6.64679 31.4263 6.58338 31.4275L6.58345 31.4276ZM41.412 31.4399C41.3486 31.4384 41.2862 31.4559 41.2327 31.4899C41.1791 31.5239 41.1369 31.5731 41.1112 31.6311C41.0939 31.6698 41.0844 31.7115 41.0832 31.7538C41.082 31.7962 41.0892 31.8384 41.1043 31.8779C41.1195 31.9175 41.1423 31.9537 41.1715 31.9844C41.2007 32.0152 41.2357 32.0398 41.2744 32.057L42.7033 32.6944C42.742 32.7118 42.7837 32.7213 42.8261 32.7225C42.8685 32.7237 42.9106 32.7165 42.9502 32.7014C42.9898 32.6862 43.026 32.6634 43.0567 32.6342C43.0875 32.605 43.1121 32.57 43.1293 32.5312C43.1466 32.4926 43.1562 32.4509 43.1573 32.4085C43.1585 32.3662 43.1513 32.324 43.1362 32.2844C43.121 32.2449 43.0982 32.2087 43.069 32.178C43.0398 32.1472 43.0048 32.1226 42.9661 32.1054L41.5372 31.468C41.4978 31.4503 41.4552 31.4407 41.412 31.4399ZM9.36667 32.1387C9.30247 32.1341 9.23838 32.149 9.1828 32.1814L5.96141 34.0413C5.92467 34.0625 5.89246 34.0906 5.86663 34.1242C5.8408 34.1578 5.82186 34.1962 5.8109 34.2371C5.79993 34.278 5.79716 34.3207 5.80275 34.3627C5.80833 34.4047 5.82215 34.4452 5.84342 34.4819C5.86454 34.5186 5.89269 34.5508 5.92628 34.5766C5.95987 34.6025 5.99822 34.6214 6.03915 34.6324C6.08007 34.6433 6.12276 34.6461 6.16476 34.6405C6.20676 34.6349 6.24724 34.6211 6.28389 34.5999L9.50527 32.7401C9.54201 32.719 9.57421 32.6908 9.60004 32.6572C9.62586 32.6236 9.6448 32.5852 9.65576 32.5443C9.66672 32.5034 9.66949 32.4607 9.66392 32.4186C9.65834 32.3766 9.64452 32.3361 9.62326 32.2995C9.59697 32.2537 9.55981 32.215 9.51504 32.187C9.47028 32.1589 9.41929 32.1423 9.3666 32.1387H9.36667ZM38.6341 32.1387C38.5814 32.1422 38.5303 32.1588 38.4855 32.1868C38.4407 32.2149 38.4036 32.2535 38.3773 32.2994C38.356 32.3361 38.3422 32.3766 38.3366 32.4186C38.331 32.4606 38.3338 32.5033 38.3447 32.5443C38.3557 32.5852 38.3746 32.6236 38.4005 32.6572C38.4263 32.6908 38.4585 32.719 38.4953 32.7401L41.7167 34.5999C41.7534 34.6211 41.7939 34.635 41.8359 34.6405C41.8779 34.6461 41.9206 34.6433 41.9615 34.6324C42.0025 34.6214 42.0409 34.6025 42.0745 34.5766C42.1081 34.5508 42.1362 34.5186 42.1574 34.4819C42.1786 34.4452 42.1924 34.4047 42.198 34.3627C42.2036 34.3207 42.2008 34.278 42.1899 34.2371C42.1789 34.1962 42.16 34.1578 42.1341 34.1242C42.1083 34.0906 42.0761 34.0625 42.0394 34.0413L38.8178 32.1814C38.7622 32.1491 38.6982 32.1342 38.6341 32.1387ZM8.5632 34.8681C8.49888 34.8704 8.43672 34.8919 8.38469 34.9298L7.11823 35.8486C7.08388 35.8734 7.05476 35.9048 7.03255 35.9409C7.01035 35.977 6.99549 36.0171 6.98884 36.059C6.98218 36.1008 6.98386 36.1436 6.99377 36.1848C7.00368 36.226 7.02163 36.2648 7.0466 36.2991C7.07141 36.3334 7.10276 36.3625 7.13884 36.3847C7.17493 36.4069 7.21505 36.4218 7.25689 36.4284C7.29873 36.4351 7.34148 36.4334 7.38267 36.4235C7.42387 36.4136 7.4627 36.3956 7.49694 36.3707L8.76355 35.4518C8.79791 35.427 8.82702 35.3956 8.84923 35.3595C8.87143 35.3234 8.88629 35.2833 8.89296 35.2415C8.89962 35.1996 8.89795 35.1569 8.88805 35.1157C8.87815 35.0745 8.86021 35.0357 8.83527 35.0014C8.80433 34.9586 8.76332 34.924 8.71586 34.9007C8.6684 34.8775 8.61595 34.8663 8.56313 34.8681H8.5632ZM39.4298 34.879C39.377 34.8771 39.3245 34.8882 39.2771 34.9114C39.2296 34.9346 39.1886 34.9692 39.1577 35.012C39.1327 35.0462 39.1147 35.0851 39.1048 35.1263C39.0949 35.1675 39.0932 35.2102 39.0998 35.2521C39.1064 35.2939 39.1213 35.3341 39.1435 35.3702C39.1656 35.4063 39.1948 35.4377 39.2291 35.4625L40.4949 36.3823C40.5292 36.4072 40.568 36.4252 40.6092 36.4352C40.6504 36.4451 40.6931 36.4468 40.735 36.4402C40.7768 36.4335 40.817 36.4187 40.8531 36.3965C40.8892 36.3743 40.9205 36.3452 40.9454 36.3109C40.9703 36.2766 40.9883 36.2378 40.9982 36.1966C41.0082 36.1555 41.0099 36.1127 41.0033 36.0709C40.9966 36.029 40.9818 35.9889 40.9597 35.9528C40.9375 35.9167 40.9084 35.8853 40.8741 35.8605L39.6083 34.9407C39.5563 34.9028 39.4941 34.8812 39.4298 34.8789V34.879ZM11.4315 34.9903C11.3891 34.988 11.3468 34.9941 11.3068 35.0082C11.2669 35.0224 11.2301 35.0444 11.1987 35.0728L8.43234 37.5596C8.40077 37.5879 8.37509 37.6221 8.35678 37.6603C8.33847 37.6985 8.32789 37.74 8.32564 37.7823C8.32339 37.8246 8.32952 37.8669 8.34367 37.9069C8.35783 37.9468 8.37974 37.9836 8.40813 38.015C8.4364 38.0466 8.47062 38.0723 8.50883 38.0906C8.54704 38.1089 8.58849 38.1195 8.63081 38.1217C8.67312 38.124 8.71546 38.1178 8.7554 38.1037C8.79534 38.0895 8.83209 38.0676 8.86354 38.0392L11.6299 35.5524C11.6615 35.5242 11.6872 35.49 11.7055 35.4517C11.7238 35.4135 11.7344 35.3721 11.7366 35.3298C11.7389 35.2874 11.7327 35.2451 11.7186 35.2052C11.7044 35.1652 11.6825 35.1285 11.6541 35.097C11.6259 35.0654 11.5917 35.0398 11.5534 35.0214C11.5152 35.0031 11.4738 34.9925 11.4315 34.9903ZM36.5614 34.9992C36.476 35.0038 36.3958 35.0421 36.3386 35.1058C36.3102 35.1372 36.2883 35.1739 36.2741 35.2139C36.2599 35.2538 36.2537 35.2961 36.2559 35.3385C36.2582 35.3808 36.2687 35.4223 36.287 35.4605C36.3053 35.4987 36.331 35.533 36.3625 35.5612L39.1272 38.0499C39.1586 38.0784 39.1954 38.1003 39.2353 38.1145C39.2752 38.1286 39.3176 38.1348 39.3599 38.1326C39.4022 38.1303 39.4437 38.1198 39.4819 38.1015C39.5201 38.0832 39.5544 38.0576 39.5827 38.026C39.6111 37.9946 39.633 37.9579 39.6472 37.918C39.6614 37.878 39.6675 37.8357 39.6653 37.7934C39.6631 37.7511 39.6525 37.7096 39.6343 37.6714C39.616 37.6332 39.5903 37.5989 39.5588 37.5706L36.794 35.0819C36.7626 35.0534 36.7259 35.0315 36.686 35.0173C36.6461 35.0031 36.6038 34.997 36.5615 34.9992H36.5614ZM14.056 37.3616C14.0032 37.3597 13.9508 37.3708 13.9033 37.3939C13.8558 37.4171 13.8148 37.4516 13.7838 37.4944L11.5956 40.5024C11.5706 40.5366 11.5526 40.5754 11.5426 40.6166C11.5326 40.6578 11.5309 40.7005 11.5375 40.7424C11.5441 40.7843 11.5589 40.8244 11.581 40.8605C11.6031 40.8967 11.6322 40.9281 11.6665 40.9529C11.7007 40.9779 11.7395 40.9959 11.7807 41.0059C11.8219 41.0159 11.8647 41.0176 11.9065 41.011C11.9484 41.0044 11.9885 40.9896 12.0246 40.9675C12.0608 40.9453 12.0922 40.9163 12.117 40.882L14.3053 37.8739C14.3303 37.8397 14.3483 37.8009 14.3583 37.7597C14.3683 37.7185 14.37 37.6758 14.3634 37.6339C14.3568 37.592 14.342 37.5519 14.3199 37.5158C14.2978 37.4796 14.2687 37.4482 14.2344 37.4234C14.1824 37.3854 14.1203 37.3639 14.056 37.3616ZM33.9269 37.3751C33.8626 37.3774 33.8004 37.3988 33.7484 37.4366C33.7141 37.4615 33.6849 37.4928 33.6627 37.5289C33.6405 37.565 33.6257 37.6051 33.619 37.6469C33.6124 37.6888 33.6141 37.7315 33.624 37.7727C33.6339 37.8139 33.6518 37.8527 33.6768 37.887L35.8609 40.898C35.8857 40.9323 35.9171 40.9615 35.9532 40.9837C35.9893 41.0059 36.0294 41.0208 36.0712 41.0274C36.1131 41.0341 36.1558 41.0324 36.197 41.0225C36.2383 41.0126 36.2771 40.9947 36.3113 40.9697C36.3457 40.9449 36.3748 40.9135 36.397 40.8774C36.4193 40.8414 36.4341 40.8012 36.4408 40.7594C36.4474 40.7175 36.4458 40.6748 36.4359 40.6336C36.426 40.5924 36.408 40.5535 36.3831 40.5193L34.1988 37.5083C34.1679 37.4655 34.1269 37.4309 34.0795 37.4077C34.032 37.3845 33.9796 37.3733 33.9268 37.3751H33.9269ZM11.2312 37.8397C11.1457 37.8443 11.0655 37.8826 11.0083 37.9463L9.96136 39.1092C9.93294 39.1407 9.91101 39.1774 9.89682 39.2173C9.88263 39.2573 9.87646 39.2996 9.87867 39.3419C9.88089 39.3842 9.89144 39.4257 9.90972 39.4639C9.928 39.5022 9.95364 39.5364 9.98519 39.5647C10.0166 39.5931 10.0534 39.6151 10.0933 39.6293C10.1332 39.6434 10.1756 39.6496 10.2179 39.6474C10.2602 39.6451 10.3017 39.6346 10.3399 39.6163C10.3781 39.598 10.4123 39.5723 10.4406 39.5407L11.4877 38.378C11.5161 38.3466 11.5381 38.3098 11.5522 38.2699C11.5664 38.2299 11.5726 38.1876 11.5704 38.1453C11.5681 38.1029 11.5576 38.0615 11.5393 38.0232C11.521 37.985 11.4954 37.9508 11.4638 37.9225C11.4324 37.894 11.3957 37.8721 11.3558 37.8579C11.3158 37.8437 11.2735 37.8376 11.2312 37.8398V37.8397ZM36.7677 37.8412C36.7254 37.839 36.6831 37.8451 36.6432 37.8593C36.6033 37.8735 36.5666 37.8954 36.5352 37.9239C36.5037 37.9522 36.478 37.9864 36.4597 38.0246C36.4414 38.0629 36.4309 38.1043 36.4286 38.1466C36.4264 38.1889 36.4325 38.2313 36.4467 38.2712C36.4609 38.3111 36.4828 38.3479 36.5112 38.3793L37.558 39.5423C37.5863 39.5739 37.6205 39.5996 37.6588 39.6179C37.697 39.6361 37.7385 39.6467 37.7808 39.6489C37.8231 39.6511 37.8654 39.645 37.9053 39.6308C37.9453 39.6166 37.982 39.5947 38.0134 39.5662C38.045 39.538 38.0707 39.5037 38.089 39.4655C38.1073 39.4272 38.1178 39.3858 38.12 39.3434C38.1223 39.3011 38.1161 39.2588 38.1019 39.2188C38.0877 39.1789 38.0658 39.1421 38.0373 39.1107L36.9905 37.9478C36.9623 37.9162 36.928 37.8905 36.8898 37.8722C36.8515 37.8539 36.81 37.8434 36.7677 37.8412L36.7677 37.8412ZM17.1118 39.1311C17.0484 39.1297 16.986 39.1472 16.9325 39.1812C16.879 39.2152 16.8368 39.2644 16.8112 39.3224L15.2956 42.7195C15.2782 42.7582 15.2687 42.7999 15.2675 42.8422C15.2664 42.8846 15.2736 42.9268 15.2887 42.9663C15.3039 43.0059 15.3267 43.0421 15.3559 43.0728C15.3851 43.1035 15.42 43.1282 15.4588 43.1453C15.4974 43.1627 15.5391 43.1722 15.5815 43.1734C15.6239 43.1746 15.666 43.1674 15.7056 43.1523C15.7452 43.1371 15.7814 43.1143 15.8121 43.0851C15.8428 43.0559 15.8675 43.021 15.8847 42.9822L17.4002 39.5852C17.4176 39.5465 17.4271 39.5048 17.4283 39.4624C17.4295 39.4201 17.4223 39.3779 17.4071 39.3383C17.3919 39.2987 17.3691 39.2626 17.3399 39.2318C17.3107 39.2011 17.2758 39.1764 17.237 39.1593C17.1976 39.1416 17.155 39.132 17.1118 39.1311ZM30.8686 39.1405C30.8254 39.1413 30.7828 39.1508 30.7434 39.1685C30.7046 39.1856 30.6696 39.2102 30.6404 39.2409C30.6112 39.2716 30.5883 39.3077 30.5731 39.3473C30.5579 39.3868 30.5506 39.429 30.5517 39.4714C30.5529 39.5137 30.5624 39.5555 30.5796 39.5941L32.0905 42.9933C32.1077 43.032 32.1323 43.067 32.163 43.0962C32.1937 43.1254 32.2298 43.1483 32.2694 43.1635C32.309 43.1787 32.3511 43.1859 32.3935 43.1848C32.4359 43.1837 32.4776 43.1742 32.5163 43.1569C32.555 43.1398 32.59 43.1152 32.6192 43.0845C32.6484 43.0538 32.6713 43.0177 32.6865 42.9781C32.7017 42.9386 32.7089 42.8964 32.7078 42.8541C32.7067 42.8117 32.6972 42.77 32.6799 42.7313L31.1691 39.3322C31.1434 39.2742 31.1012 39.2251 31.0478 39.191C30.9944 39.1569 30.932 39.1393 30.8686 39.1405ZM14.4487 40.1815C14.396 40.1851 14.345 40.2016 14.3002 40.2296C14.2554 40.2577 14.2182 40.2964 14.192 40.3422L13.4097 41.6973C13.3884 41.734 13.3746 41.7745 13.369 41.8165C13.3634 41.8585 13.3662 41.9012 13.3772 41.9421C13.3881 41.983 13.4071 42.0214 13.4329 42.055C13.4587 42.0886 13.4909 42.1167 13.5277 42.1379C13.5643 42.1591 13.6048 42.173 13.6468 42.1785C13.6888 42.1841 13.7315 42.1813 13.7725 42.1704C13.8134 42.1594 13.8518 42.1405 13.8853 42.1146C13.9189 42.0888 13.9471 42.0566 13.9682 42.0199L14.7506 40.6647C14.7719 40.628 14.7857 40.5875 14.7913 40.5455C14.7969 40.5035 14.7941 40.4608 14.7831 40.4199C14.7721 40.379 14.7532 40.3406 14.7274 40.307C14.7015 40.2734 14.6693 40.2453 14.6325 40.2241C14.5769 40.1919 14.5128 40.177 14.4487 40.1815ZM33.5522 40.1815C33.488 40.1769 33.424 40.1918 33.3685 40.2242C33.3317 40.2453 33.2995 40.2735 33.2737 40.3071C33.2478 40.3407 33.2289 40.379 33.2179 40.42C33.207 40.4609 33.2042 40.5036 33.2098 40.5456C33.2154 40.5876 33.2292 40.6281 33.2505 40.6648L34.0328 42.0199C34.0539 42.0566 34.0821 42.0888 34.1157 42.1146C34.1493 42.1405 34.1876 42.1594 34.2286 42.1704C34.2695 42.1813 34.3122 42.1841 34.3542 42.1785C34.3962 42.173 34.4367 42.1591 34.4733 42.1379C34.5101 42.1167 34.5423 42.0886 34.5681 42.055C34.5939 42.0214 34.6129 41.983 34.6238 41.9421C34.6348 41.9012 34.6376 41.8585 34.632 41.8165C34.6264 41.7745 34.6126 41.734 34.5913 41.6973L33.809 40.3423C33.7827 40.2965 33.7455 40.2578 33.7007 40.2298C33.6559 40.2017 33.6049 40.1851 33.5522 40.1815ZM20.4858 40.23C20.4115 40.2294 20.3393 40.2545 20.2814 40.3011C20.2236 40.3477 20.1836 40.4129 20.1684 40.4856L19.3954 44.1243C19.3865 44.1657 19.3858 44.2085 19.3935 44.2502C19.4012 44.2918 19.417 44.3316 19.4401 44.3671C19.4632 44.4027 19.4931 44.4333 19.5281 44.4572C19.563 44.4812 19.6024 44.498 19.6438 44.5067C19.6853 44.5156 19.7281 44.5163 19.7697 44.5086C19.8114 44.5009 19.8512 44.4851 19.8867 44.462C19.9223 44.4389 19.9529 44.409 19.9769 44.3741C20.0008 44.3391 20.0177 44.2998 20.0264 44.2583L20.7994 40.6196C20.8095 40.5728 20.809 40.5243 20.7979 40.4777C20.7868 40.4311 20.7655 40.3875 20.7354 40.3502C20.7053 40.3129 20.6673 40.2827 20.6241 40.262C20.5809 40.2413 20.5337 40.2304 20.4858 40.2303V40.23ZM27.5038 40.2323C27.4559 40.2325 27.4086 40.2433 27.3654 40.264C27.3223 40.2848 27.2843 40.3149 27.2542 40.3521C27.2242 40.3894 27.2028 40.4329 27.1917 40.4795C27.1806 40.5261 27.1801 40.5746 27.1901 40.6214L27.9604 44.2606C27.9691 44.3021 27.9858 44.3415 28.0098 44.3765C28.0337 44.4114 28.0643 44.4414 28.0999 44.4645C28.1354 44.4876 28.1751 44.5035 28.2168 44.5112C28.2585 44.5189 28.3013 44.5183 28.3427 44.5094C28.3842 44.5007 28.4235 44.4839 28.4585 44.46C28.4935 44.4361 28.5234 44.4055 28.5465 44.3699C28.5696 44.3344 28.5855 44.2947 28.5932 44.253C28.6009 44.2113 28.6003 44.1685 28.5915 44.1271L27.8209 40.4881C27.8057 40.4154 27.7658 40.3502 27.708 40.3035C27.6502 40.2569 27.578 40.2317 27.5038 40.2322V40.2323ZM24.0004 40.5993C23.958 40.5992 23.9161 40.6075 23.8769 40.6237C23.8377 40.6399 23.8021 40.6636 23.7722 40.6936C23.7422 40.7236 23.7185 40.7592 23.7023 40.7983C23.6861 40.8375 23.6778 40.8795 23.6779 40.9219V44.6417C23.6778 44.684 23.6861 44.726 23.7023 44.7652C23.7185 44.8044 23.7422 44.84 23.7722 44.87C23.8022 44.8999 23.8378 44.9237 23.8769 44.9399C23.9161 44.956 23.9581 44.9643 24.0005 44.9642C24.0429 44.9643 24.0848 44.956 24.124 44.9398C24.1632 44.9236 24.1988 44.8999 24.2287 44.8699C24.2587 44.8399 24.2824 44.8043 24.2986 44.7652C24.3147 44.726 24.323 44.684 24.3229 44.6417V40.922C24.323 40.8796 24.3147 40.8376 24.2986 40.7984C24.2824 40.7593 24.2586 40.7237 24.2287 40.6937C24.1987 40.6637 24.1631 40.64 24.124 40.6238C24.0848 40.6076 24.0428 40.5993 24.0004 40.5994V40.5993ZM18.0807 41.8014C18.0175 41.8068 17.9573 41.8307 17.9077 41.8702C17.858 41.9096 17.8211 41.9629 17.8016 42.0232L17.3179 43.5113C17.3047 43.5516 17.2996 43.5941 17.3029 43.6364C17.3062 43.6786 17.3177 43.7198 17.337 43.7576C17.3562 43.7953 17.3827 43.8289 17.415 43.8564C17.4472 43.8839 17.4846 43.9048 17.5249 43.9178C17.5652 43.931 17.6077 43.9361 17.65 43.9328C17.6922 43.9295 17.7334 43.9179 17.7711 43.8986C17.8089 43.8794 17.8425 43.8529 17.87 43.8206C17.8975 43.7884 17.9183 43.751 17.9313 43.7107L18.415 42.2227C18.4282 42.1824 18.4333 42.1399 18.43 42.0977C18.4267 42.0554 18.4152 42.0143 18.3959 41.9765C18.3767 41.9387 18.3502 41.9052 18.318 41.8777C18.2857 41.8502 18.2484 41.8293 18.208 41.8163C18.167 41.8029 18.1237 41.7978 18.0807 41.8014ZM29.9177 41.8022C29.8747 41.7983 29.8313 41.8033 29.7904 41.8169C29.75 41.8299 29.7126 41.8508 29.6804 41.8783C29.6481 41.9058 29.6216 41.9394 29.6024 41.9771C29.5831 42.0149 29.5715 42.0561 29.5683 42.0983C29.565 42.1406 29.5701 42.1831 29.5833 42.2234L30.0667 43.7115C30.0797 43.7518 30.1006 43.7892 30.1281 43.8214C30.1556 43.8537 30.1891 43.8802 30.2269 43.8994C30.2647 43.9187 30.3059 43.9302 30.3481 43.9335C30.3904 43.9368 30.4329 43.9317 30.4732 43.9185C30.5135 43.9055 30.5509 43.8847 30.5831 43.8572C30.6154 43.8297 30.6419 43.7961 30.6611 43.7584C30.6804 43.7206 30.692 43.6794 30.6953 43.6372C30.6986 43.5949 30.6935 43.5525 30.6803 43.5122L30.1966 42.024C30.1772 41.9637 30.1403 41.9104 30.0907 41.871C30.0411 41.8315 29.9809 41.8076 29.9178 41.8022H29.9177ZM21.9762 42.631C21.9022 42.6381 21.833 42.6706 21.7803 42.723C21.7277 42.7754 21.6947 42.8444 21.6871 42.9183L21.5235 44.4745C21.519 44.5166 21.5228 44.5592 21.5348 44.5999C21.5468 44.6405 21.5667 44.6784 21.5934 44.7113C21.6201 44.7442 21.653 44.7715 21.6902 44.7917C21.7275 44.8119 21.7684 44.8245 21.8105 44.8288C21.8527 44.8334 21.8953 44.8295 21.9359 44.8175C21.9766 44.8055 22.0145 44.7856 22.0474 44.759C22.0803 44.7323 22.1077 44.6994 22.1279 44.6621C22.1481 44.6249 22.1607 44.584 22.165 44.5418L22.3286 42.9858C22.3331 42.9436 22.3293 42.901 22.3173 42.8604C22.3053 42.8197 22.2854 42.7818 22.2588 42.7489C22.2321 42.7159 22.1992 42.6886 22.1619 42.6684C22.1246 42.6482 22.0838 42.6356 22.0416 42.6313C22.0198 42.629 21.9979 42.6289 21.9762 42.631ZM26.0118 42.6325C25.99 42.6302 25.968 42.6303 25.9462 42.6328C25.9041 42.6371 25.8632 42.6497 25.8259 42.6698C25.7886 42.69 25.7557 42.7173 25.729 42.7502C25.7023 42.7831 25.6824 42.821 25.6703 42.8616C25.6583 42.9022 25.6544 42.9448 25.6589 42.987L25.8215 44.5434C25.8258 44.5855 25.8384 44.6264 25.8585 44.6637C25.8787 44.7009 25.906 44.7339 25.9389 44.7605C25.9718 44.7872 26.0097 44.8071 26.0503 44.8192C26.091 44.8312 26.1336 44.835 26.1757 44.8305C26.2179 44.8262 26.2588 44.8136 26.296 44.7935C26.3333 44.7733 26.3663 44.746 26.393 44.7131C26.4197 44.6802 26.4396 44.6423 26.4516 44.6016C26.4636 44.561 26.4675 44.5184 26.463 44.4762L26.3006 42.92C26.293 42.8461 26.2601 42.7771 26.2075 42.7247C26.1548 42.6723 26.0857 42.6397 26.0117 42.6325H26.0118Z" fill="#F4F2F3"/>
<g opacity="0.409" filter="url(#filter0_f_6127_1483)">
<path d="M39.115 11.0996L21.471 21.3508L10.3152 38.9132L26.6352 26.8251L39.115 11.0996Z" fill="black"/>
</g>
<path d="M26.5296 26.6479L21.4722 21.3517L39.4126 9.2832L26.5296 26.6479Z" fill="#FF5150"/>
<path d="M26.5309 26.6458L21.4735 21.3496L8.59058 38.7144L26.5309 26.6458Z" fill="#F1F1F1"/>
<path opacity="0.243" d="M8.59058 38.7164L26.5309 26.6479L39.414 9.2832L8.59058 38.7164Z" fill="black"/>
<defs>
<filter id="filter0_f_6127_1483" x="7.49763" y="8.28206" width="34.4349" height="33.4486" filterUnits="userSpaceOnUse" color-interpolation-filters="sRGB">
<feFlood flood-opacity="0" result="BackgroundImageFix"/>
<feBlend mode="normal" in="SourceGraphic" in2="BackgroundImageFix" result="shape"/>
<feGaussianBlur stdDeviation="1.40878" result="effect1_foregroundBlur_6127_1483"/>
</filter>
<radialGradient id="paint0_radial_6127_1483" cx="0" cy="0" r="1" gradientUnits="userSpaceOnUse" gradientTransform="translate(24.1036 20.7749) scale(23.9999 23.9999)">
<stop stop-color="#06C2E7"/>
<stop offset="0.25" stop-color="#0DB8EC"/>
<stop offset="0.5" stop-color="#12AEF1"/>
<stop offset="0.75" stop-color="#1F86F9"/>
<stop offset="1" stop-color="#107DDD"/>
</radialGradient>
</defs>
</svg>
