<svg width="48" height="48" viewBox="0 0 48 48" fill="none" xmlns="http://www.w3.org/2000/svg">
<path d="M10.512 0H37.488C43.2936 0 48 4.70637 48 10.512V37.488C48 43.2936 43.2936 48 37.488 48H10.512C4.70637 48 0 43.2936 0 37.488V10.512C0 4.70637 4.70637 0 10.512 0Z" fill="url(#paint0_linear_6127_1456)"/>
<path d="M15.3835 34.8395L15.388 34.8409L13.7469 37.6834C13.1478 38.721 11.821 39.0765 10.7834 38.4774C9.74588 37.8784 9.39036 36.5516 9.98938 35.514L11.1984 33.42L11.3144 33.2191C11.5216 32.9212 12.0329 32.4073 13.0557 32.5039C13.0557 32.5039 15.4626 32.7651 15.6368 34.0161C15.6368 34.0161 15.6606 34.4277 15.3835 34.8395ZM38.6604 27.5793H33.5427C33.1942 27.5559 33.042 27.4315 32.9823 27.3591L32.9785 27.3525L27.5001 17.8639L27.4931 17.8686L27.1645 17.3975C26.6261 16.5741 25.771 18.6801 25.771 18.6801C24.7502 21.0268 25.9159 23.6949 26.3224 24.5012L33.9314 37.6804C34.5304 38.718 35.8572 39.0735 36.8948 38.4745C37.9323 37.8755 38.2878 36.5487 37.6888 35.5111L35.7861 32.2155C35.7493 32.1357 35.6851 31.9189 36.0753 31.918H38.6604C39.8585 31.918 40.8297 30.9467 40.8297 29.7486C40.8297 28.5505 39.8585 27.5793 38.6604 27.5793ZM28.7202 30.5285C28.7202 30.5285 28.9934 31.918 27.9364 31.918H26.8795L9.01788 31.918C7.81978 31.918 6.84851 30.9467 6.84851 29.7486C6.84851 28.5505 7.81978 27.5793 9.01788 27.5793H13.8816C14.6669 27.5338 14.853 27.0805 14.853 27.0805L14.8573 27.0827L21.2061 16.0861L21.2042 16.0858C21.32 15.8733 21.2236 15.6726 21.2068 15.6408L19.1102 12.0093C18.5111 10.9717 18.8666 9.64492 19.9042 9.0459C20.9418 8.44682 22.2685 8.80234 22.8676 9.83993L23.84 11.5242L24.8107 9.84292C25.4097 8.80533 26.7365 8.44981 27.7741 9.04889C28.8117 9.64796 29.1672 10.9748 28.5681 12.0123L19.7336 27.3141C19.6949 27.4073 19.6831 27.5535 19.9705 27.5793H25.2513L25.2524 27.6307C25.2524 27.6307 28.3046 27.6782 28.7202 30.5285Z" fill="white"/>
<defs>
<linearGradient id="paint0_linear_6127_1456" x1="47.9999" y1="-8.38395" x2="47.9999" y2="77.2819" gradientUnits="userSpaceOnUse">
<stop offset="0.000903478" stop-color="#17C9FB"/>
<stop offset="1" stop-color="#1A74E8"/>
</linearGradient>
</defs>
</svg>
