<svg width="40" height="20" viewBox="0 0 40 20" fill="none" xmlns="http://www.w3.org/2000/svg">
<path d="M37.5986 14.0001C37.3794 14.1146 37.1534 14.2155 36.9219 14.3023C36.1848 14.5778 35.4039 14.7182 34.6169 14.7167C31.5788 14.7167 28.9323 12.6287 28.9323 9.94929C28.9362 9.58992 29.036 9.23809 29.2214 8.93014C29.4069 8.62218 29.6712 8.36925 29.9872 8.19745C27.2392 8.31291 26.533 11.1738 26.533 12.85C26.533 17.5891 30.9046 18.0696 31.8465 18.0696C32.3544 18.0696 33.1203 17.922 33.58 17.7771L33.6641 17.7489C35.4331 17.1379 36.9412 15.9433 37.9401 14.3619C37.9707 14.3138 37.9844 14.2568 37.979 14.2C37.9735 14.1432 37.9493 14.0899 37.9101 14.0484C37.871 14.0069 37.8191 13.9796 37.7626 13.9709C37.7062 13.9621 37.6485 13.9724 37.5986 14.0001Z" fill="url(#paint0_linear_6127_1271)"/>
<path opacity="0.35" d="M37.5986 14.0001C37.3794 14.1146 37.1534 14.2155 36.9219 14.3023C36.1848 14.5778 35.4039 14.7182 34.6169 14.7167C31.5788 14.7167 28.9323 12.6287 28.9323 9.94929C28.9362 9.58992 29.036 9.23809 29.2214 8.93014C29.4069 8.62218 29.6712 8.36925 29.9872 8.19745C27.2392 8.31291 26.533 11.1738 26.533 12.85C26.533 17.5891 30.9046 18.0696 31.8465 18.0696C32.3544 18.0696 33.1203 17.922 33.58 17.7771L33.6641 17.7489C35.4331 17.1379 36.9412 15.9433 37.9401 14.3619C37.9707 14.3138 37.9844 14.2568 37.979 14.2C37.9735 14.1432 37.9493 14.0899 37.9101 14.0484C37.871 14.0069 37.8191 13.9796 37.7626 13.9709C37.7062 13.9621 37.6485 13.9724 37.5986 14.0001Z" fill="url(#paint1_radial_6127_1271)"/>
<path d="M29.5526 17.2635C28.9799 16.9083 28.4836 16.443 28.0926 15.8946C27.6469 15.2845 27.3402 14.5843 27.194 13.8432C27.0478 13.1022 27.0656 12.3381 27.2463 11.6046C27.4269 10.8712 27.766 10.1861 28.2397 9.59743C28.7134 9.00877 29.3103 8.53078 29.9885 8.197C30.1889 8.10271 30.5311 7.93208 30.9863 7.94042C31.307 7.94275 31.6228 8.01925 31.909 8.16393C32.1951 8.30861 32.4439 8.51753 32.6357 8.77432C32.895 9.12019 33.0379 9.53922 33.044 9.97129C33.044 9.95782 34.6145 4.86523 27.9077 4.86523C25.0891 4.86523 22.7713 7.53758 22.7713 9.88213C22.7602 11.1224 23.0258 12.3495 23.5488 13.4743C24.4036 15.2965 25.8984 16.7415 27.7493 17.5351C29.6002 18.3287 31.6783 18.4156 33.5891 17.7792C32.9201 17.99 32.2133 18.0532 31.5174 17.9646C30.8215 17.876 30.1531 17.6377 29.5584 17.266L29.5526 17.2635Z" fill="url(#paint2_linear_6127_1271)"/>
<path opacity="0.41" d="M29.5526 17.2635C28.9799 16.9083 28.4836 16.443 28.0926 15.8946C27.6469 15.2845 27.3402 14.5843 27.194 13.8432C27.0478 13.1022 27.0656 12.3381 27.2463 11.6046C27.4269 10.8712 27.766 10.1861 28.2397 9.59743C28.7134 9.00877 29.3103 8.53078 29.9885 8.197C30.1889 8.10271 30.5311 7.93208 30.9863 7.94042C31.307 7.94275 31.6228 8.01925 31.909 8.16393C32.1951 8.30861 32.4439 8.51753 32.6357 8.77432C32.895 9.12019 33.0379 9.53922 33.044 9.97129C33.044 9.95782 34.6145 4.86523 27.9077 4.86523C25.0891 4.86523 22.7713 7.53758 22.7713 9.88213C22.7602 11.1224 23.0258 12.3495 23.5488 13.4743C24.4036 15.2965 25.8984 16.7415 27.7493 17.5351C29.6002 18.3287 31.6783 18.4156 33.5891 17.7792C32.9201 17.99 32.2133 18.0532 31.5174 17.9646C30.8215 17.876 30.1531 17.6377 29.5584 17.266L29.5526 17.2635Z" fill="url(#paint3_radial_6127_1271)"/>
<path d="M32.5442 11.3257C32.4922 11.393 32.3323 11.4861 32.3323 11.6888C32.3323 11.8562 32.4414 12.0172 32.6353 12.1525C33.5586 12.794 35.2992 12.7093 35.3037 12.7093C35.9878 12.7077 36.6589 12.5227 37.2471 12.1737C37.8405 11.8275 38.333 11.3324 38.6757 10.7374C39.0184 10.1424 39.1995 9.46815 39.2009 8.78165C39.2176 7.34412 38.6872 6.38834 38.4728 5.96498C37.1123 3.30611 34.1756 1.77686 30.9821 1.77686C28.8224 1.77664 26.7494 2.62583 25.2114 4.14076C23.6735 5.65569 22.7943 7.71458 22.7639 9.87213C22.7947 7.52822 25.1266 5.63526 27.9003 5.63526C28.125 5.63526 29.4065 5.65707 30.5969 6.28122C31.646 6.83159 32.1955 7.49615 32.5776 8.15493C32.9743 8.83938 33.045 9.70407 33.045 10.0485C33.045 10.393 32.869 10.9036 32.5442 11.3257Z" fill="url(#paint4_radial_6127_1271)"/>
<path d="M32.5442 11.3257C32.4922 11.393 32.3323 11.4861 32.3323 11.6888C32.3323 11.8562 32.4414 12.0172 32.6353 12.1525C33.5586 12.794 35.2992 12.7093 35.3037 12.7093C35.9878 12.7077 36.6589 12.5227 37.2471 12.1737C37.8405 11.8275 38.333 11.3324 38.6757 10.7374C39.0184 10.1424 39.1995 9.46815 39.2009 8.78165C39.2176 7.34412 38.6872 6.38834 38.4728 5.96498C37.1123 3.30611 34.1756 1.77686 30.9821 1.77686C28.8224 1.77664 26.7494 2.62583 25.2114 4.14076C23.6735 5.65569 22.7943 7.71458 22.7639 9.87213C22.7947 7.52822 25.1266 5.63526 27.9003 5.63526C28.125 5.63526 29.4065 5.65707 30.5969 6.28122C31.646 6.83159 32.1955 7.49615 32.5776 8.15493C32.9743 8.83938 33.045 9.70407 33.045 10.0485C33.045 10.393 32.869 10.9036 32.5442 11.3257Z" fill="url(#paint5_radial_6127_1271)"/>
<path d="M20.5525 1.02686C25.502 1.02698 29.5144 5.04642 29.5144 10.0005C29.5144 14.9548 25.502 18.974 20.5525 18.9741H20.5515C15.6033 18.9686 11.5906 14.9556 11.5906 10.0005C11.5906 5.04635 15.6029 1.02686 20.5525 1.02686Z" fill="white" stroke="#F5F7F9" stroke-width="1.5"/>
<path d="M28.7639 9.98853C28.7639 12.1664 27.8988 14.2551 26.3588 15.7951C24.8188 17.3351 22.7301 18.2002 20.5522 18.2002C18.3744 18.2002 16.2857 17.335 14.7457 15.7951C13.2057 14.2551 12.3406 12.1664 12.3406 9.98853C12.3406 7.81066 13.2057 5.722 14.7457 4.18201C16.2857 2.64202 18.3744 1.77686 20.5522 1.77686C22.7301 1.77686 24.8188 2.64201 26.3588 4.182C27.8988 5.72198 28.7639 7.81066 28.7639 9.98853Z" fill="#CBCFD2"/>
<path d="M28.1218 9.98869C28.1218 11.9959 27.3244 13.9209 25.9051 15.3402C24.4858 16.7596 22.5608 17.5569 20.5536 17.5569C18.5463 17.5569 16.6213 16.7595 15.202 15.3402C13.7827 13.9209 12.9854 11.9959 12.9854 9.98869C12.9854 7.98148 13.7827 6.05648 15.202 4.63716C16.6213 3.21785 18.5463 2.42048 20.5536 2.42047C22.5608 2.42047 24.4858 3.21784 25.9051 4.63715C27.3244 6.05647 28.1218 7.98148 28.1218 9.98869Z" fill="url(#paint6_radial_6127_1271)"/>
<path d="M20.5526 2.81415C20.5381 2.81411 20.5238 2.81694 20.5104 2.82248C20.497 2.82801 20.4848 2.83614 20.4745 2.8464C20.4643 2.85665 20.4561 2.86883 20.4506 2.88224C20.4451 2.89564 20.4422 2.91001 20.4423 2.92451V4.19724C20.4422 4.21174 20.4451 4.22611 20.4506 4.23952C20.4561 4.25292 20.4643 4.2651 20.4745 4.27536C20.4848 4.28561 20.497 4.29374 20.5104 4.29927C20.5238 4.30481 20.5381 4.30764 20.5526 4.3076C20.5671 4.30763 20.5815 4.30479 20.5949 4.29926C20.6083 4.29372 20.6205 4.28559 20.6307 4.27534C20.641 4.26508 20.6491 4.2529 20.6546 4.2395C20.6602 4.2261 20.663 4.21174 20.6629 4.19724V2.92448C20.663 2.90999 20.6601 2.89562 20.6546 2.88222C20.6491 2.86882 20.641 2.85665 20.6307 2.8464C20.6204 2.83614 20.6083 2.82802 20.5949 2.82248C20.5815 2.81695 20.5671 2.81412 20.5526 2.81415H20.5526ZM19.8308 2.85976C19.8233 2.85896 19.8158 2.859 19.8083 2.85987C19.7939 2.86134 19.7799 2.86564 19.7672 2.87254C19.7544 2.87943 19.7431 2.88878 19.734 2.90004C19.7249 2.9113 19.7181 2.92425 19.7139 2.93815C19.7098 2.95206 19.7085 2.96664 19.71 2.98105L19.7657 3.51352C19.7671 3.52794 19.7714 3.54193 19.7783 3.55469C19.7852 3.56745 19.7946 3.57871 19.8058 3.58785C19.8171 3.59698 19.83 3.6038 19.8439 3.60792C19.8578 3.61203 19.8724 3.61336 19.8868 3.61182C19.9013 3.61035 19.9153 3.60604 19.928 3.59915C19.9408 3.59225 19.9521 3.5829 19.9612 3.57164C19.9703 3.56038 19.9771 3.54742 19.9813 3.53352C19.9854 3.51961 19.9867 3.50503 19.9851 3.49061L19.9296 2.95817C19.927 2.93288 19.9157 2.90926 19.8977 2.89132C19.8797 2.87338 19.856 2.86223 19.8307 2.85976H19.8308ZM21.2795 2.86029C21.2542 2.86274 21.2306 2.87388 21.2125 2.89181C21.1945 2.90974 21.1832 2.93335 21.1807 2.95864L21.1247 3.49105C21.1231 3.50547 21.1244 3.52006 21.1285 3.53397C21.1327 3.54788 21.1395 3.56084 21.1486 3.57211C21.1577 3.58338 21.169 3.59273 21.1817 3.59964C21.1945 3.60654 21.2085 3.61086 21.2229 3.61235C21.2373 3.61389 21.2519 3.61258 21.2658 3.60847C21.2797 3.60437 21.2927 3.59756 21.3039 3.58844C21.3152 3.57931 21.3246 3.56805 21.3315 3.55531C21.3384 3.54256 21.3427 3.52857 21.3442 3.51415L21.4001 2.98168C21.4017 2.96727 21.4004 2.95269 21.3963 2.93878C21.3922 2.92487 21.3853 2.91192 21.3762 2.90065C21.3671 2.88938 21.3558 2.88003 21.3431 2.87313C21.3303 2.86623 21.3163 2.86192 21.3019 2.86044C21.2945 2.85968 21.287 2.85964 21.2795 2.86031L21.2795 2.86029ZM19.0892 2.96729C19.0729 2.96733 19.0567 2.97104 19.0419 2.97813C19.0271 2.98522 19.0141 2.99552 19.0038 3.00828C18.9935 3.02105 18.9862 3.03594 18.9824 3.05189C18.9786 3.06784 18.9784 3.08443 18.9819 3.10046L19.2454 4.34561C19.2484 4.3598 19.2542 4.37327 19.2623 4.38523C19.2705 4.3972 19.281 4.40743 19.2932 4.41534C19.3053 4.42324 19.3189 4.42867 19.3332 4.43131C19.3474 4.43394 19.3621 4.43374 19.3762 4.4307C19.3904 4.42774 19.4039 4.42199 19.4159 4.41381C19.4278 4.40562 19.4381 4.39515 19.446 4.38301C19.4539 4.37086 19.4593 4.35727 19.4619 4.34301C19.4646 4.32876 19.4644 4.31412 19.4614 4.29995L19.1978 3.05477C19.1926 3.02989 19.1789 3.00758 19.1591 2.99162C19.1394 2.97566 19.1147 2.96704 19.0892 2.96721V2.96729ZM22.021 2.96834C21.9956 2.96812 21.9709 2.97672 21.9511 2.99266C21.9313 3.0086 21.9176 3.03091 21.9124 3.05579L21.6479 4.30076C21.6449 4.31494 21.6447 4.32958 21.6473 4.34384C21.6499 4.35809 21.6553 4.37169 21.6632 4.38385C21.6711 4.39601 21.6814 4.40649 21.6933 4.41469C21.7053 4.42289 21.7187 4.42864 21.7329 4.43162C21.7471 4.43467 21.7617 4.43488 21.776 4.43225C21.7903 4.42963 21.8039 4.42421 21.816 4.41631C21.8282 4.40842 21.8387 4.3982 21.8469 4.38624C21.8551 4.37428 21.8608 4.36082 21.8638 4.34664L22.1283 3.10164C22.1317 3.08561 22.1316 3.06902 22.1278 3.05307C22.124 3.03713 22.1167 3.02222 22.1064 3.00946C22.0961 2.99669 22.0831 2.98638 22.0683 2.97928C22.0536 2.97218 22.0374 2.96847 22.021 2.96842V2.96834ZM18.3816 3.16684C18.3668 3.1655 18.352 3.16723 18.338 3.17192C18.3242 3.17637 18.3114 3.1835 18.3004 3.1929C18.2893 3.2023 18.2803 3.21379 18.2737 3.22671C18.2671 3.23963 18.2631 3.25372 18.262 3.26817C18.2609 3.28262 18.2626 3.29716 18.2671 3.31094L18.4326 3.82012C18.437 3.83392 18.4441 3.84671 18.4535 3.85775C18.463 3.86879 18.4744 3.87786 18.4874 3.88444C18.5003 3.89102 18.5144 3.89499 18.5288 3.89611C18.5433 3.89723 18.5578 3.89549 18.5716 3.89098C18.5854 3.88653 18.5982 3.87939 18.6092 3.86999C18.6203 3.86058 18.6294 3.84909 18.6359 3.83616C18.6425 3.82324 18.6465 3.80915 18.6476 3.79469C18.6487 3.78023 18.647 3.76569 18.6425 3.75191L18.477 3.24275C18.4704 3.2221 18.4577 3.20387 18.4408 3.19037C18.4238 3.17686 18.4032 3.16867 18.3816 3.16684ZM22.7247 3.1671C22.7031 3.16894 22.6825 3.17713 22.6655 3.19063C22.6485 3.20414 22.6359 3.22236 22.6292 3.24301L22.4637 3.75215C22.4592 3.76593 22.4574 3.78046 22.4585 3.79492C22.4597 3.80937 22.4636 3.82346 22.4702 3.83638C22.4768 3.8493 22.4859 3.86079 22.4969 3.8702C22.5079 3.8796 22.5207 3.88674 22.5345 3.89119C22.5483 3.8957 22.5628 3.89745 22.5773 3.89633C22.5917 3.89521 22.6058 3.89125 22.6187 3.88467C22.6317 3.87809 22.6432 3.86902 22.6526 3.85799C22.662 3.84696 22.6691 3.83418 22.6736 3.82038L22.8391 3.3112C22.8436 3.29742 22.8454 3.28289 22.8442 3.26843C22.8431 3.25398 22.8392 3.23989 22.8326 3.22697C22.826 3.21405 22.8169 3.20256 22.8059 3.19315C22.7949 3.18375 22.7821 3.17661 22.7683 3.17216C22.7542 3.16758 22.7394 3.16586 22.7247 3.1671ZM17.6818 3.42295C17.667 3.42324 17.6524 3.42651 17.6389 3.43254C17.6257 3.43841 17.6137 3.44683 17.6037 3.45733C17.5937 3.46783 17.5859 3.48019 17.5807 3.49372C17.5755 3.50725 17.573 3.52168 17.5734 3.53617C17.5738 3.55066 17.577 3.56493 17.5829 3.57816L18.0999 4.74121C18.1058 4.75447 18.1142 4.76644 18.1247 4.77644C18.1352 4.78644 18.1475 4.79426 18.1611 4.79946C18.1746 4.80467 18.189 4.80715 18.2035 4.80676C18.218 4.80637 18.2323 4.80313 18.2455 4.79721C18.2588 4.79135 18.2708 4.78293 18.2808 4.77243C18.2908 4.76194 18.2986 4.74957 18.3038 4.73604C18.309 4.72251 18.3115 4.70808 18.3111 4.69359C18.3107 4.6791 18.3075 4.66482 18.3016 4.65159L17.7846 3.48856C17.7758 3.4687 17.7614 3.45188 17.7431 3.4402C17.7248 3.42852 17.7035 3.42251 17.6818 3.42292V3.42295ZM23.4324 3.42683C23.4107 3.42641 23.3894 3.4324 23.371 3.44405C23.3527 3.4557 23.3383 3.47249 23.3295 3.49231L22.8109 4.65465C22.805 4.66788 22.8018 4.68215 22.8014 4.69664C22.8009 4.71114 22.8034 4.72556 22.8086 4.7391C22.8138 4.75264 22.8216 4.76502 22.8316 4.77553C22.8416 4.78604 22.8535 4.79448 22.8668 4.80035C22.88 4.80628 22.8943 4.80955 22.9088 4.80995C22.9233 4.81035 22.9377 4.80789 22.9512 4.8027C22.9648 4.79751 22.9771 4.7897 22.9877 4.77972C22.9982 4.76973 23.0066 4.75777 23.0125 4.74452L23.531 3.58223C23.5369 3.569 23.5402 3.55473 23.5406 3.54023C23.541 3.52574 23.5385 3.5113 23.5334 3.49776C23.5282 3.48422 23.5204 3.47184 23.5104 3.46133C23.5004 3.45081 23.4884 3.44238 23.4752 3.4365C23.4617 3.43046 23.4471 3.42718 23.4324 3.42683ZM17.0322 3.76662C17.0102 3.76504 16.9883 3.77014 16.9693 3.78125C16.9568 3.78847 16.9457 3.7981 16.9369 3.8096C16.9281 3.82109 16.9216 3.83422 16.9178 3.84823C16.9141 3.86223 16.9131 3.87684 16.915 3.89121C16.9169 3.90558 16.9217 3.91944 16.929 3.93198L17.1966 4.39563C17.2039 4.4082 17.2135 4.41922 17.225 4.42806C17.2365 4.4369 17.2496 4.44338 17.2636 4.44713C17.2776 4.45088 17.2922 4.45183 17.3066 4.44992C17.321 4.44801 17.3348 4.44328 17.3474 4.436C17.3599 4.42878 17.371 4.41914 17.3798 4.40765C17.3886 4.39615 17.3951 4.38303 17.3989 4.36902C17.4026 4.35502 17.4036 4.34041 17.4016 4.32603C17.3997 4.31166 17.395 4.29781 17.3877 4.28527L17.1201 3.82164C17.1111 3.80596 17.0984 3.79274 17.083 3.78314C17.0677 3.77354 17.0503 3.76787 17.0322 3.76662H17.0322ZM24.073 3.76662C24.055 3.76785 24.0375 3.77351 24.0222 3.7831C24.0069 3.7927 23.9942 3.80593 23.9852 3.82162L23.7175 4.28527C23.7102 4.29781 23.7055 4.31167 23.7036 4.32604C23.7017 4.34042 23.7026 4.35503 23.7064 4.36903C23.7101 4.38304 23.7166 4.39616 23.7255 4.40766C23.7343 4.41915 23.7453 4.42878 23.7579 4.436C23.7705 4.44328 23.7843 4.44801 23.7987 4.44992C23.8131 4.45183 23.8277 4.45088 23.8417 4.44713C23.8557 4.44338 23.8688 4.4369 23.8803 4.42806C23.8918 4.41922 23.9014 4.4082 23.9086 4.39563L24.1763 3.93195C24.1836 3.91941 24.1883 3.90556 24.1902 3.89119C24.1921 3.87681 24.1912 3.8622 24.1874 3.8482C24.1837 3.83419 24.1772 3.82107 24.1684 3.80957C24.1595 3.79808 24.1485 3.78844 24.1359 3.78122C24.1169 3.77018 24.095 3.76509 24.073 3.76662ZM16.4014 4.16002C16.3794 4.16081 16.3582 4.16814 16.3404 4.18107C16.3286 4.18956 16.3187 4.20028 16.3111 4.21263C16.3035 4.22498 16.2984 4.23871 16.2961 4.25303C16.2938 4.26735 16.2944 4.28198 16.2978 4.29608C16.3012 4.31017 16.3073 4.32346 16.3159 4.33518L17.0632 5.3654C17.0717 5.37715 17.0824 5.38711 17.0948 5.39471C17.1072 5.40231 17.1209 5.40739 17.1352 5.40967C17.1495 5.41194 17.1642 5.41137 17.1783 5.40798C17.1924 5.40459 17.2056 5.39845 17.2174 5.38991C17.2291 5.38142 17.2391 5.3707 17.2467 5.35835C17.2543 5.346 17.2593 5.33228 17.2616 5.31796C17.2639 5.30364 17.2633 5.28902 17.2599 5.27492C17.2566 5.26083 17.2504 5.24754 17.2419 5.23582L16.4945 4.2056C16.4839 4.19095 16.4699 4.17913 16.4537 4.17118C16.4374 4.16324 16.4195 4.15941 16.4014 4.16004L16.4014 4.16002ZM24.7117 4.16563C24.6936 4.16496 24.6757 4.16876 24.6595 4.17669C24.6432 4.18461 24.6292 4.19641 24.6186 4.21106L23.8698 5.24028C23.8613 5.25199 23.8551 5.26527 23.8517 5.27936C23.8483 5.29346 23.8477 5.30808 23.85 5.3224C23.8522 5.33673 23.8573 5.35046 23.8649 5.36282C23.8725 5.37518 23.8824 5.38592 23.8942 5.39442C23.9059 5.40297 23.9192 5.40913 23.9332 5.41254C23.9473 5.41595 23.962 5.41655 23.9763 5.41429C23.9906 5.41204 24.0043 5.40698 24.0167 5.3994C24.0291 5.39183 24.0398 5.38188 24.0483 5.37015L24.797 4.34095C24.8056 4.32924 24.8117 4.31596 24.8151 4.30187C24.8185 4.28777 24.8191 4.27315 24.8169 4.25882C24.8146 4.2445 24.8095 4.23077 24.802 4.21841C24.7944 4.20605 24.7844 4.19531 24.7727 4.18681C24.7549 4.17381 24.7337 4.16644 24.7117 4.16563ZM15.8376 4.63284C15.8231 4.63206 15.8086 4.63416 15.795 4.63902C15.7813 4.64388 15.7688 4.6514 15.758 4.66115C15.7472 4.67083 15.7384 4.68255 15.7322 4.69562C15.7259 4.7087 15.7223 4.72289 15.7216 4.73736C15.7208 4.75184 15.7229 4.76633 15.7278 4.77999C15.7326 4.79365 15.7401 4.80622 15.7498 4.81697L16.1081 5.21491C16.1177 5.2257 16.1294 5.23448 16.1425 5.24074C16.1556 5.24699 16.1698 5.2506 16.1843 5.25136C16.1987 5.25212 16.2132 5.25001 16.2269 5.24515C16.2406 5.24029 16.2531 5.23279 16.2639 5.22306C16.2747 5.21338 16.2834 5.20166 16.2897 5.18858C16.296 5.1755 16.2996 5.16131 16.3003 5.14683C16.3011 5.13236 16.299 5.11787 16.2941 5.1042C16.2893 5.09054 16.2818 5.07797 16.2721 5.06721L15.9139 4.66931C15.9042 4.65851 15.8925 4.64972 15.8794 4.64346C15.8663 4.63721 15.8521 4.6336 15.8377 4.63284H15.8376ZM25.2684 4.63363C25.2392 4.6352 25.2117 4.64833 25.1921 4.67012L24.834 5.06795C24.8242 5.0787 24.8167 5.09127 24.8118 5.10493C24.807 5.1186 24.8049 5.13309 24.8056 5.14757C24.8064 5.16206 24.81 5.17625 24.8162 5.18933C24.8225 5.20242 24.8313 5.21414 24.8421 5.22382C24.8528 5.23354 24.8654 5.24105 24.8791 5.24591C24.8927 5.25076 24.9072 5.25287 24.9217 5.25211C24.9362 5.25135 24.9504 5.24774 24.9635 5.24148C24.9765 5.23522 24.9882 5.22644 24.9979 5.21564L25.3562 4.81781C25.3659 4.80705 25.3734 4.79448 25.3783 4.78081C25.3831 4.76715 25.3852 4.75266 25.3845 4.73818C25.3837 4.7237 25.3801 4.70951 25.3738 4.69642C25.3676 4.68334 25.3588 4.67162 25.348 4.66194C25.3373 4.65221 25.3247 4.6447 25.311 4.63984C25.2974 4.63498 25.2829 4.63287 25.2684 4.63363H25.2684ZM15.2973 5.15189C15.2828 5.15267 15.2686 5.15629 15.2555 5.16255C15.2425 5.16881 15.2307 5.17759 15.2211 5.18838C15.2113 5.19913 15.2038 5.2117 15.199 5.22537C15.1941 5.23903 15.192 5.25352 15.1928 5.268C15.1935 5.28248 15.1971 5.29667 15.2034 5.30975C15.2097 5.32283 15.2184 5.33454 15.2292 5.34422L16.1752 6.19574C16.1859 6.20546 16.1985 6.21296 16.2122 6.21782C16.2258 6.22267 16.2403 6.22478 16.2548 6.22402C16.2693 6.22326 16.2835 6.21965 16.2965 6.21339C16.3096 6.20713 16.3213 6.19836 16.331 6.18756C16.3407 6.17681 16.3482 6.16424 16.3531 6.15058C16.358 6.13692 16.3601 6.12244 16.3593 6.10796C16.3586 6.09348 16.3549 6.07929 16.3487 6.06621C16.3424 6.05313 16.3336 6.04142 16.3229 6.03174L15.3769 5.18022C15.3661 5.17049 15.3536 5.16298 15.3399 5.15812C15.3262 5.15326 15.3117 5.15115 15.2972 5.15191L15.2973 5.15189ZM25.8114 5.15563C25.7969 5.15484 25.7824 5.15693 25.7687 5.16177C25.755 5.16662 25.7425 5.17413 25.7317 5.18387L24.7852 6.03473C24.7744 6.0444 24.7656 6.0561 24.7594 6.06918C24.7531 6.08225 24.7495 6.09643 24.7487 6.11091C24.7479 6.12539 24.75 6.13987 24.7548 6.15354C24.7597 6.16721 24.7672 6.17978 24.7769 6.19055C24.7866 6.20135 24.7983 6.21014 24.8114 6.21641C24.8244 6.22267 24.8386 6.22629 24.8531 6.22706C24.8676 6.22783 24.8821 6.22574 24.8957 6.22089C24.9094 6.21605 24.922 6.20855 24.9328 6.19883L25.8793 5.34797C25.8901 5.3383 25.8989 5.32659 25.9052 5.31352C25.9114 5.30044 25.915 5.28626 25.9158 5.27178C25.9166 5.2573 25.9145 5.24282 25.9096 5.22915C25.9048 5.21549 25.8973 5.20291 25.8876 5.19215C25.8779 5.18134 25.8662 5.17255 25.8531 5.16629C25.8401 5.16002 25.8259 5.1564 25.8114 5.15563ZM14.8479 5.72973C14.8298 5.72907 14.8119 5.73288 14.7957 5.74082C14.7794 5.74876 14.7654 5.76058 14.7548 5.77524C14.7463 5.78695 14.7401 5.80023 14.7367 5.81433C14.7333 5.82843 14.7327 5.84306 14.735 5.85738C14.7373 5.87171 14.7423 5.88544 14.7499 5.8978C14.7575 5.91015 14.7675 5.92088 14.7793 5.92938L15.2124 6.24403C15.2241 6.25258 15.2374 6.25874 15.2514 6.26214C15.2655 6.26555 15.2802 6.26614 15.2945 6.26387C15.3088 6.26161 15.3225 6.25653 15.3349 6.24894C15.3473 6.24135 15.358 6.2314 15.3665 6.21965C15.375 6.20794 15.3812 6.19465 15.3846 6.18056C15.388 6.16646 15.3886 6.15183 15.3863 6.13751C15.384 6.12319 15.379 6.10946 15.3714 6.0971C15.3638 6.08475 15.3538 6.07401 15.3421 6.06551L14.909 5.75083C14.8912 5.73786 14.8699 5.73051 14.8479 5.72973ZM26.2603 5.73374C26.2383 5.73452 26.2171 5.74185 26.1993 5.75479L25.766 6.06918C25.7542 6.07767 25.7442 6.0884 25.7366 6.10075C25.729 6.1131 25.724 6.12683 25.7217 6.14115C25.7194 6.15547 25.72 6.1701 25.7234 6.1842C25.7267 6.1983 25.7329 6.21159 25.7414 6.22332C25.7499 6.23507 25.7606 6.24503 25.773 6.25263C25.7853 6.26023 25.7991 6.26531 25.8134 6.26759C25.8277 6.26987 25.8423 6.26929 25.8564 6.2659C25.8705 6.26251 25.8838 6.25637 25.8955 6.24783L26.3289 5.93341C26.3406 5.92492 26.3506 5.91419 26.3582 5.90185C26.3658 5.8895 26.3709 5.87577 26.3731 5.86145C26.3754 5.84714 26.3748 5.83251 26.3714 5.81842C26.368 5.80433 26.3619 5.79104 26.3534 5.77933C26.3428 5.76467 26.3288 5.75284 26.3125 5.74489C26.2963 5.73694 26.2784 5.73311 26.2603 5.73374ZM14.428 6.34605C14.41 6.34728 14.3925 6.35294 14.3772 6.36254C14.3619 6.37213 14.3492 6.38536 14.3402 6.40105C14.3329 6.41359 14.3282 6.42744 14.3263 6.44182C14.3244 6.45619 14.3253 6.4708 14.3291 6.4848C14.3328 6.49881 14.3393 6.51193 14.3481 6.52343C14.357 6.53492 14.368 6.54456 14.3806 6.55178L15.4828 7.18816C15.4953 7.19544 15.5092 7.20017 15.5236 7.20208C15.5379 7.20399 15.5525 7.20304 15.5665 7.19929C15.5805 7.19554 15.5937 7.18906 15.6052 7.18022C15.6167 7.17138 15.6263 7.16036 15.6335 7.14779C15.6408 7.13525 15.6455 7.1214 15.6474 7.10702C15.6494 7.09265 15.6484 7.07804 15.6447 7.06404C15.6409 7.05003 15.6344 7.0369 15.6256 7.02541C15.6167 7.01392 15.6057 7.00428 15.5932 6.99706L14.4909 6.36068C14.4719 6.34963 14.45 6.34454 14.428 6.34605ZM26.6773 6.34605C26.6553 6.34447 26.6334 6.34957 26.6144 6.36068L25.5121 6.99706C25.4996 7.00428 25.4886 7.01392 25.4797 7.02541C25.4709 7.0369 25.4644 7.05003 25.4606 7.06404C25.4569 7.07804 25.4559 7.09265 25.4579 7.10702C25.4598 7.1214 25.4645 7.13525 25.4718 7.14779C25.479 7.16036 25.4886 7.17138 25.5001 7.18022C25.5116 7.18906 25.5248 7.19554 25.5388 7.19929C25.5528 7.20304 25.5674 7.20399 25.5817 7.20208C25.5961 7.20017 25.61 7.19544 25.6225 7.18816L26.7248 6.55181C26.7373 6.54458 26.7484 6.53495 26.7572 6.52345C26.766 6.51196 26.7725 6.49883 26.7763 6.48483C26.78 6.47082 26.781 6.45621 26.7791 6.44184C26.7771 6.42747 26.7724 6.41362 26.7651 6.40108C26.7561 6.3854 26.7434 6.37218 26.7281 6.36259C26.7128 6.353 26.6953 6.34733 26.6773 6.34608V6.34605ZM14.1105 7.00301C14.0888 7.00253 14.0674 7.0085 14.0491 7.02015C14.0308 7.0318 14.0163 7.04861 14.0076 7.06847C14.0016 7.08169 13.9984 7.09596 13.998 7.11046C13.9976 7.12495 14 7.13938 14.0052 7.15292C14.0104 7.16646 14.0182 7.17885 14.0282 7.18936C14.0382 7.19987 14.0501 7.20831 14.0634 7.21419L14.5524 7.43229C14.5656 7.43823 14.5799 7.4415 14.5944 7.4419C14.6089 7.44231 14.6233 7.43985 14.6368 7.43466C14.6504 7.42948 14.6627 7.42167 14.6733 7.41168C14.6838 7.4017 14.6922 7.38974 14.6981 7.37648C14.704 7.36325 14.7073 7.34898 14.7077 7.33449C14.7081 7.31999 14.7056 7.30556 14.7005 7.29202C14.6953 7.27848 14.6875 7.2661 14.6775 7.25558C14.6675 7.24507 14.6555 7.23663 14.6423 7.23076L14.1533 7.01266C14.1398 7.0066 14.1253 7.00333 14.1105 7.00303V7.00301ZM26.9969 7.00757C26.9821 7.00787 26.9675 7.01114 26.954 7.01719L26.465 7.23493C26.4517 7.24079 26.4397 7.24922 26.4297 7.25972C26.4197 7.27022 26.4119 7.2826 26.4067 7.29613C26.4015 7.30967 26.399 7.3241 26.3994 7.33859C26.3998 7.35309 26.4031 7.36736 26.409 7.3806C26.4149 7.39386 26.4233 7.40583 26.4338 7.41583C26.4443 7.42582 26.4567 7.43364 26.4702 7.43884C26.4838 7.44404 26.4982 7.44651 26.5127 7.44611C26.5272 7.44572 26.5415 7.44247 26.5547 7.43654L27.0438 7.21878C27.0571 7.21291 27.069 7.20448 27.079 7.19397C27.089 7.18347 27.0968 7.17109 27.102 7.15756C27.1072 7.14402 27.1097 7.12959 27.1093 7.1151C27.1089 7.10061 27.1056 7.08634 27.0997 7.07311C27.0909 7.05326 27.0765 7.03646 27.0582 7.0248C27.0399 7.01314 27.0186 7.00714 26.9969 7.00757ZM13.8275 7.68967C13.8059 7.69148 13.7853 7.69965 13.7683 7.71314C13.7513 7.72663 13.7387 7.74484 13.732 7.76548C13.7275 7.77925 13.7258 7.79378 13.7269 7.80824C13.728 7.82269 13.7319 7.83679 13.7385 7.84971C13.7451 7.86263 13.7541 7.87413 13.7651 7.88355C13.7762 7.89296 13.7889 7.90011 13.8027 7.90457L15.0129 8.29889C15.0266 8.30341 15.0412 8.30517 15.0556 8.30406C15.0701 8.30295 15.0842 8.299 15.0971 8.29243C15.1101 8.28586 15.1216 8.2768 15.131 8.26577C15.1404 8.25474 15.1475 8.24196 15.152 8.22816C15.1565 8.21438 15.1583 8.19985 15.1572 8.18539C15.156 8.17094 15.1521 8.15684 15.1455 8.14392C15.139 8.131 15.1299 8.1195 15.1189 8.11008C15.1078 8.10067 15.0951 8.09353 15.0813 8.08907L13.8711 7.69473C13.8571 7.69012 13.8422 7.6884 13.8275 7.68964V7.68967ZM27.2793 7.69438C27.2646 7.69305 27.2498 7.69478 27.2358 7.69947L26.0253 8.09292C26.0115 8.09737 25.9988 8.10451 25.9877 8.11392C25.9767 8.12333 25.9676 8.13482 25.961 8.14774C25.9545 8.16066 25.9505 8.17476 25.9494 8.18922C25.9483 8.20367 25.95 8.21821 25.9545 8.23199C25.959 8.24578 25.9661 8.25856 25.9755 8.2696C25.985 8.28063 25.9964 8.28969 26.0094 8.29627C26.0223 8.30284 26.0364 8.3068 26.0508 8.30792C26.0653 8.30903 26.0798 8.30728 26.0936 8.30277L27.304 7.90934C27.3178 7.90489 27.3306 7.89776 27.3416 7.88835C27.3526 7.87894 27.3617 7.86745 27.3683 7.85453C27.3749 7.84161 27.3788 7.82751 27.38 7.81305C27.3811 7.79859 27.3793 7.78406 27.3748 7.77027C27.3682 7.74962 27.3555 7.73139 27.3386 7.71789C27.3216 7.70438 27.301 7.6962 27.2793 7.69436V7.69438ZM13.6512 8.4104C13.6258 8.41019 13.6011 8.41879 13.5813 8.43474C13.5615 8.45068 13.5478 8.47299 13.5426 8.49788C13.5395 8.51205 13.5393 8.52669 13.542 8.54095C13.5446 8.55521 13.55 8.56881 13.5579 8.58097C13.5658 8.59313 13.576 8.60361 13.588 8.61181C13.6 8.62 13.6134 8.62576 13.6276 8.62874L14.1513 8.74005C14.1655 8.74309 14.1801 8.7433 14.1944 8.74067C14.2086 8.73805 14.2222 8.73263 14.2344 8.72473C14.2465 8.71683 14.257 8.7066 14.2652 8.69464C14.2734 8.68268 14.2792 8.66922 14.2821 8.65503C14.2852 8.64086 14.2854 8.62622 14.2828 8.61196C14.2802 8.59771 14.2747 8.58411 14.2668 8.57195C14.2589 8.55979 14.2487 8.54931 14.2368 8.54111C14.2248 8.53291 14.2113 8.52715 14.1972 8.52417L13.6735 8.41287C13.6662 8.41131 13.6587 8.41052 13.6512 8.41051V8.4104ZM27.4543 8.41145C27.4468 8.41162 27.4394 8.41241 27.432 8.41381L26.9083 8.52506C26.8941 8.52804 26.8807 8.5338 26.8687 8.54199C26.8568 8.55018 26.8466 8.56066 26.8387 8.57281C26.8308 8.58497 26.8253 8.59856 26.8227 8.61281C26.8201 8.62707 26.8203 8.6417 26.8233 8.65587C26.8263 8.67006 26.8321 8.68353 26.8403 8.69549C26.8485 8.70745 26.8589 8.71768 26.8711 8.72558C26.8833 8.73348 26.8969 8.73891 26.9111 8.74154C26.9254 8.74418 26.94 8.74397 26.9542 8.74094L27.4779 8.62968C27.492 8.6267 27.5055 8.62094 27.5175 8.61274C27.5294 8.60455 27.5396 8.59407 27.5475 8.58191C27.5554 8.56975 27.5609 8.55615 27.5635 8.5419C27.5661 8.52764 27.5659 8.513 27.5629 8.49882C27.5577 8.47395 27.544 8.45164 27.5242 8.4357C27.5044 8.41976 27.4797 8.41115 27.4543 8.41135V8.41145ZM13.5178 9.13541C13.4925 9.13785 13.4688 9.14896 13.4508 9.16687C13.4327 9.18477 13.4215 9.20836 13.4189 9.23363C13.4173 9.24805 13.4186 9.26264 13.4227 9.27655C13.4268 9.29046 13.4336 9.30343 13.4427 9.31471C13.4518 9.32599 13.4631 9.33535 13.4758 9.34227C13.4886 9.34918 13.5026 9.35351 13.517 9.35501L14.7827 9.4888C14.7971 9.49037 14.8117 9.48906 14.8256 9.48497C14.8395 9.48088 14.8525 9.47408 14.8637 9.46496C14.875 9.45584 14.8844 9.44458 14.8913 9.43183C14.8982 9.41908 14.9025 9.40509 14.904 9.39066C14.9056 9.37624 14.9043 9.36165 14.9002 9.34774C14.8961 9.33383 14.8893 9.32086 14.8802 9.30958C14.871 9.29831 14.8598 9.28894 14.847 9.28203C14.8343 9.27512 14.8203 9.2708 14.8059 9.26931L13.5402 9.13549C13.5327 9.13472 13.5252 9.1347 13.5178 9.13541ZM27.5886 9.14493C27.5812 9.14412 27.5736 9.14415 27.5662 9.145L26.3004 9.27712C26.2859 9.2786 26.2719 9.2829 26.2592 9.2898C26.2464 9.29669 26.2352 9.30604 26.226 9.3173C26.2169 9.32856 26.2101 9.34151 26.206 9.35541C26.2018 9.36932 26.2005 9.38389 26.2021 9.39831C26.2035 9.41274 26.2078 9.42673 26.2147 9.43949C26.2216 9.45225 26.231 9.46352 26.2422 9.47265C26.2535 9.48179 26.2665 9.48861 26.2804 9.49272C26.2943 9.49683 26.3089 9.49816 26.3233 9.49662L27.5891 9.3645C27.6035 9.36302 27.6175 9.35872 27.6303 9.35182C27.643 9.34493 27.6543 9.33559 27.6634 9.32432C27.6726 9.31306 27.6794 9.30011 27.6835 9.28621C27.6876 9.2723 27.6889 9.25773 27.6874 9.24331C27.6848 9.21802 27.6736 9.19441 27.6556 9.17647C27.6376 9.15853 27.6139 9.14738 27.5886 9.1449V9.14493ZM13.4963 9.87754C13.4818 9.8775 13.4675 9.88033 13.4541 9.88587C13.4407 9.8914 13.4285 9.89953 13.4182 9.90978C13.408 9.92004 13.3999 9.93222 13.3943 9.94562C13.3888 9.95903 13.386 9.9734 13.386 9.9879C13.386 10.0024 13.3888 10.0168 13.3943 10.0302C13.3999 10.0436 13.408 10.0557 13.4183 10.066C13.4285 10.0762 13.4407 10.0844 13.4541 10.0899C13.4675 10.0954 13.4819 10.0982 13.4963 10.0982H14.0317C14.0462 10.0982 14.0606 10.0954 14.074 10.0899C14.0874 10.0843 14.0996 10.0762 14.1098 10.066C14.1201 10.0557 14.1282 10.0435 14.1337 10.0301C14.1393 10.0167 14.1421 10.0024 14.1421 9.98787C14.1421 9.97337 14.1393 9.95901 14.1337 9.9456C14.1282 9.9322 14.1201 9.92002 14.1098 9.90977C14.0996 9.89951 14.0874 9.89138 14.074 9.88585C14.0606 9.88031 14.0462 9.87748 14.0317 9.87751L13.4963 9.87754ZM27.0735 9.87754C27.059 9.8775 27.0447 9.88033 27.0312 9.88587C27.0178 9.8914 27.0057 9.89953 26.9954 9.90978C26.9852 9.92004 26.977 9.93222 26.9715 9.94562C26.966 9.95903 26.9631 9.9734 26.9632 9.9879C26.9631 10.0024 26.966 10.0168 26.9715 10.0302C26.977 10.0436 26.9852 10.0557 26.9954 10.066C27.0057 10.0762 27.0179 10.0844 27.0313 10.0899C27.0447 10.0954 27.059 10.0982 27.0735 10.0982H27.6089C27.6234 10.0982 27.6378 10.0954 27.6512 10.0899C27.6646 10.0843 27.6767 10.0762 27.687 10.066C27.6972 10.0557 27.7054 10.0435 27.7109 10.0301C27.7164 10.0167 27.7193 10.0024 27.7192 9.98787C27.7193 9.97337 27.7164 9.959 27.7109 9.9456C27.7054 9.93219 27.6972 9.92001 27.687 9.90976C27.6767 9.8995 27.6646 9.89137 27.6511 9.88584C27.6377 9.88031 27.6234 9.87748 27.6089 9.87751L27.0735 9.87754ZM14.8044 10.479C14.7969 10.4782 14.7894 10.4783 14.782 10.4791L13.5161 10.6112C13.5017 10.6127 13.4877 10.617 13.4749 10.6239C13.4622 10.6308 13.4509 10.6401 13.4418 10.6514C13.4326 10.6627 13.4258 10.6756 13.4217 10.6895C13.4176 10.7034 13.4162 10.718 13.4178 10.7324C13.4193 10.7468 13.4236 10.7608 13.4305 10.7736C13.4374 10.7863 13.4467 10.7976 13.458 10.8067C13.4692 10.8159 13.4822 10.8227 13.4961 10.8268C13.51 10.8309 13.5246 10.8322 13.539 10.8307L14.8049 10.6986C14.8193 10.6971 14.8333 10.6928 14.846 10.6859C14.8588 10.679 14.8701 10.6697 14.8792 10.6584C14.8883 10.6472 14.8951 10.6342 14.8993 10.6203C14.9034 10.6064 14.9047 10.5918 14.9032 10.5774C14.9006 10.5521 14.8893 10.5285 14.8713 10.5106C14.8533 10.4926 14.8296 10.4815 14.8043 10.479H14.8044ZM26.3001 10.4868C26.2749 10.4893 26.2512 10.5004 26.2332 10.5183C26.2151 10.5362 26.2038 10.5598 26.2012 10.5851C26.1997 10.5995 26.201 10.6141 26.2051 10.628C26.2092 10.6419 26.216 10.6549 26.2251 10.6661C26.2342 10.6774 26.2454 10.6868 26.2582 10.6937C26.2709 10.7006 26.2849 10.7049 26.2993 10.7064L27.565 10.8402C27.5795 10.8418 27.594 10.8405 27.608 10.8364C27.6219 10.8323 27.6348 10.8255 27.6461 10.8164C27.6574 10.8073 27.6667 10.796 27.6737 10.7832C27.6806 10.7705 27.6849 10.7565 27.6864 10.7421C27.6879 10.7277 27.6866 10.7131 27.6825 10.6992C27.6784 10.6853 27.6716 10.6723 27.6625 10.661C27.6534 10.6498 27.6421 10.6404 27.6294 10.6335C27.6167 10.6266 27.6027 10.6223 27.5882 10.6208L26.3226 10.4869C26.3151 10.4862 26.3076 10.4861 26.3001 10.4868ZM14.1734 11.2323C14.1659 11.2323 14.1584 11.2331 14.1511 11.2347L13.6274 11.3459C13.6132 11.3489 13.5998 11.3546 13.5878 11.3628C13.5758 11.371 13.5656 11.3815 13.5577 11.3937C13.5498 11.4058 13.5444 11.4194 13.5418 11.4337C13.5391 11.448 13.5394 11.4626 13.5424 11.4768C13.5454 11.491 13.5511 11.5044 13.5593 11.5164C13.5675 11.5283 13.578 11.5386 13.5902 11.5465C13.6023 11.5544 13.6159 11.5598 13.6302 11.5624C13.6445 11.565 13.6591 11.5648 13.6733 11.5618L14.197 11.4506C14.2112 11.4476 14.2246 11.4418 14.2366 11.4336C14.2485 11.4254 14.2588 11.415 14.2667 11.4028C14.2746 11.3906 14.28 11.377 14.2826 11.3628C14.2852 11.3485 14.285 11.3339 14.282 11.3197C14.2767 11.2948 14.2631 11.2725 14.2433 11.2566C14.2235 11.2406 14.1988 11.232 14.1734 11.2322V11.2323ZM26.9317 11.2333C26.9063 11.2331 26.8816 11.2417 26.8618 11.2576C26.842 11.2736 26.8283 11.2959 26.8231 11.3208C26.8201 11.3349 26.8198 11.3496 26.8225 11.3638C26.8251 11.3781 26.8305 11.3917 26.8384 11.4039C26.8463 11.416 26.8565 11.4265 26.8685 11.4347C26.8804 11.4429 26.8939 11.4487 26.9081 11.4517L27.4318 11.5629C27.4459 11.566 27.4606 11.5662 27.4748 11.5636C27.4891 11.561 27.5027 11.5556 27.5149 11.5477C27.527 11.5398 27.5375 11.5296 27.5457 11.5176C27.5539 11.5056 27.5597 11.4922 27.5627 11.478C27.5657 11.4638 27.5659 11.4492 27.5633 11.4349C27.5607 11.4206 27.5553 11.407 27.5474 11.3949C27.5395 11.3827 27.5292 11.3722 27.5173 11.364C27.5053 11.3558 27.4918 11.35 27.4776 11.3471L26.954 11.2358C26.9467 11.2342 26.9392 11.2334 26.9317 11.2334V11.2333ZM15.0552 11.6679C15.0405 11.6666 15.0257 11.6683 15.0117 11.673L13.8012 12.0665C13.7875 12.0709 13.7747 12.0781 13.7636 12.0875C13.7526 12.0969 13.7435 12.1084 13.737 12.1213C13.7304 12.1342 13.7264 12.1483 13.7253 12.1628C13.7242 12.1772 13.7259 12.1917 13.7304 12.2055C13.7349 12.2193 13.742 12.2321 13.7514 12.2431C13.7608 12.2542 13.7723 12.2632 13.7852 12.2698C13.7982 12.2764 13.8123 12.2804 13.8267 12.2815C13.8412 12.2826 13.8557 12.2809 13.8695 12.2764L15.0799 11.8829C15.0936 11.8784 15.1064 11.8713 15.1175 11.8619C15.1285 11.8525 15.1376 11.841 15.1442 11.8281C15.1507 11.8152 15.1547 11.8011 15.1558 11.7866C15.157 11.7722 15.1552 11.7576 15.1507 11.7438C15.144 11.7232 15.1314 11.705 15.1144 11.6915C15.0975 11.678 15.0769 11.6698 15.0552 11.6679V11.6679ZM26.0488 11.6719C26.0271 11.6737 26.0065 11.6818 25.9896 11.6953C25.9726 11.7088 25.9599 11.727 25.9533 11.7477C25.9488 11.7614 25.947 11.776 25.9481 11.7904C25.9492 11.8049 25.9532 11.819 25.9597 11.8319C25.9663 11.8448 25.9754 11.8563 25.9864 11.8657C25.9974 11.8752 26.0102 11.8823 26.024 11.8868L27.2341 12.2811C27.2479 12.2856 27.2624 12.2874 27.2769 12.2862C27.2913 12.2851 27.3054 12.2812 27.3184 12.2746C27.3313 12.268 27.3428 12.259 27.3522 12.248C27.3616 12.2369 27.3688 12.2241 27.3732 12.2103C27.3778 12.1966 27.3795 12.182 27.3784 12.1676C27.3773 12.1531 27.3733 12.139 27.3668 12.1261C27.3602 12.1132 27.3511 12.1017 27.3401 12.0923C27.3291 12.0829 27.3163 12.0757 27.3025 12.0713L26.0924 11.6769C26.0783 11.6723 26.0635 11.6706 26.0488 11.6719ZM14.5934 12.5297C14.5786 12.53 14.564 12.5332 14.5505 12.5393L14.0614 12.757C14.0481 12.7629 14.0362 12.7713 14.0262 12.7819C14.0162 12.7924 14.0084 12.8047 14.0032 12.8183C13.998 12.8318 13.9955 12.8462 13.9959 12.8607C13.9963 12.8752 13.9996 12.8895 14.0055 12.9027C14.0114 12.916 14.0198 12.9279 14.0303 12.9379C14.0408 12.9479 14.0532 12.9557 14.0667 12.9609C14.0803 12.9661 14.0947 12.9686 14.1092 12.9682C14.1237 12.9678 14.138 12.9646 14.1512 12.9586L14.6403 12.7409C14.6536 12.735 14.6655 12.7266 14.6755 12.7161C14.6855 12.7056 14.6933 12.6932 14.6985 12.6797C14.7037 12.6661 14.7062 12.6517 14.7058 12.6372C14.7054 12.6227 14.7021 12.6085 14.6962 12.5952C14.6874 12.5754 14.673 12.5586 14.6547 12.5469C14.6364 12.5353 14.615 12.5293 14.5933 12.5297L14.5934 12.5297ZM26.5101 12.5339C26.4884 12.5334 26.467 12.5394 26.4487 12.551C26.4304 12.5627 26.4159 12.5795 26.4072 12.5993C26.4012 12.6126 26.398 12.6268 26.3976 12.6413C26.3971 12.6558 26.3996 12.6703 26.4048 12.6838C26.41 12.6973 26.4178 12.7097 26.4278 12.7202C26.4378 12.7308 26.4497 12.7392 26.463 12.7451L26.9519 12.9632C26.9651 12.9691 26.9794 12.9724 26.9939 12.9728C27.0084 12.9732 27.0228 12.9707 27.0364 12.9655C27.0499 12.9604 27.0623 12.9525 27.0728 12.9425C27.0833 12.9326 27.0918 12.9206 27.0976 12.9073C27.1036 12.8941 27.1068 12.8798 27.1072 12.8653C27.1076 12.8509 27.1052 12.8364 27.1 12.8229C27.0948 12.8093 27.087 12.797 27.077 12.7865C27.067 12.7759 27.0551 12.7675 27.0418 12.7616L26.5529 12.5435C26.5394 12.5375 26.5249 12.5342 26.5101 12.5339ZM15.5457 12.773C15.5237 12.7714 15.5018 12.7765 15.4827 12.7876L14.3805 13.424C14.368 13.4312 14.3569 13.4409 14.3481 13.4524C14.3393 13.4639 14.3328 13.477 14.329 13.491C14.3253 13.505 14.3243 13.5196 14.3262 13.534C14.3282 13.5484 14.3329 13.5622 14.3402 13.5747C14.3474 13.5873 14.357 13.5983 14.3685 13.6072C14.38 13.616 14.3931 13.6225 14.4071 13.6262C14.4211 13.63 14.4357 13.6309 14.4501 13.629C14.4645 13.6271 14.4783 13.6224 14.4909 13.6151L15.5931 12.9788C15.6056 12.9716 15.6167 12.9619 15.6255 12.9504C15.6343 12.9389 15.6408 12.9258 15.6446 12.9118C15.6483 12.8978 15.6493 12.8832 15.6474 12.8688C15.6454 12.8544 15.6407 12.8406 15.6334 12.828C15.6245 12.8124 15.6117 12.7991 15.5964 12.7895C15.5811 12.7799 15.5637 12.7743 15.5456 12.773H15.5457ZM25.5596 12.773C25.5416 12.7742 25.5241 12.7799 25.5088 12.7895C25.4934 12.7991 25.4807 12.8123 25.4717 12.828C25.4644 12.8406 25.4597 12.8544 25.4578 12.8688C25.4559 12.8832 25.4568 12.8978 25.4606 12.9118C25.4643 12.9258 25.4708 12.9389 25.4797 12.9504C25.4885 12.9619 25.4995 12.9716 25.5121 12.9788L26.6143 13.6151C26.6269 13.6224 26.6407 13.6271 26.6551 13.629C26.6695 13.6309 26.6841 13.63 26.6981 13.6262C26.7121 13.6225 26.7252 13.616 26.7367 13.6072C26.7482 13.5983 26.7579 13.5873 26.7651 13.5747C26.7724 13.5622 26.7771 13.5484 26.779 13.534C26.7809 13.5196 26.78 13.505 26.7762 13.491C26.7725 13.477 26.766 13.4639 26.7571 13.4524C26.7483 13.4409 26.7373 13.4312 26.7247 13.424L25.6225 12.7876C25.6034 12.7766 25.5815 12.7715 25.5596 12.773ZM15.2707 13.7069C15.2487 13.7077 15.2275 13.715 15.2097 13.728L14.7763 14.0424C14.7646 14.0509 14.7546 14.0616 14.747 14.074C14.7394 14.0863 14.7343 14.1 14.7321 14.1143C14.7298 14.1287 14.7304 14.1433 14.7338 14.1574C14.7371 14.1715 14.7433 14.1848 14.7518 14.1965C14.7603 14.2082 14.771 14.2182 14.7834 14.2258C14.7957 14.2334 14.8095 14.2385 14.8238 14.2408C14.8381 14.243 14.8527 14.2425 14.8668 14.2391C14.8809 14.2357 14.8942 14.2295 14.9059 14.221L15.3393 13.9066C15.351 13.8981 15.361 13.8874 15.3686 13.875C15.3762 13.8627 15.3813 13.849 15.3836 13.8346C15.3858 13.8203 15.3853 13.8057 15.3819 13.7916C15.3785 13.7775 15.3724 13.7642 15.3638 13.7525C15.3532 13.7378 15.3392 13.726 15.323 13.7181C15.3067 13.7101 15.2888 13.7063 15.2707 13.7069H15.2707ZM25.8318 13.7106C25.8138 13.71 25.7958 13.7138 25.7796 13.7217C25.7633 13.7296 25.7493 13.7415 25.7387 13.7561C25.7302 13.7678 25.724 13.7811 25.7206 13.7952C25.7172 13.8093 25.7167 13.8239 25.7189 13.8383C25.7212 13.8526 25.7263 13.8663 25.7339 13.8787C25.7415 13.891 25.7514 13.9018 25.7632 13.9103L26.1963 14.225C26.208 14.2335 26.2213 14.2397 26.2354 14.2431C26.2495 14.2465 26.2641 14.247 26.2784 14.2448C26.2927 14.2425 26.3065 14.2374 26.3188 14.2298C26.3312 14.2222 26.3419 14.2123 26.3504 14.2005C26.3589 14.1888 26.3651 14.1755 26.3685 14.1615C26.3719 14.1474 26.3725 14.1327 26.3702 14.1184C26.3679 14.1041 26.3629 14.0904 26.3553 14.078C26.3477 14.0657 26.3378 14.0549 26.326 14.0464L25.8929 13.7317C25.8751 13.7188 25.8538 13.7114 25.8318 13.7106V13.7106ZM16.2521 13.7487C16.2376 13.7479 16.2232 13.75 16.2095 13.7548C16.1958 13.7597 16.1832 13.7672 16.1725 13.7769L15.226 14.6278C15.2152 14.6375 15.2064 14.6492 15.2001 14.6623C15.1938 14.6753 15.1902 14.6895 15.1895 14.704C15.1887 14.7185 15.1908 14.733 15.1956 14.7466C15.2005 14.7603 15.208 14.7729 15.2177 14.7836C15.2274 14.7944 15.2391 14.8032 15.2521 14.8095C15.2652 14.8157 15.2794 14.8194 15.2939 14.8201C15.3084 14.8209 15.3228 14.8188 15.3365 14.814C15.3502 14.8091 15.3627 14.8016 15.3735 14.7919L16.32 13.941C16.3308 13.9314 16.3396 13.9197 16.3459 13.9066C16.3521 13.8935 16.3558 13.8793 16.3565 13.8649C16.3573 13.8504 16.3552 13.8359 16.3504 13.8222C16.3455 13.8086 16.338 13.796 16.3283 13.7852C16.3186 13.7744 16.3069 13.7656 16.2939 13.7594C16.2808 13.7531 16.2666 13.7495 16.2521 13.7487ZM24.8504 13.7517C24.8212 13.7533 24.7938 13.7664 24.7742 13.7882C24.7645 13.799 24.757 13.8115 24.7521 13.8252C24.7472 13.8389 24.7451 13.8534 24.7459 13.8678C24.7467 13.8823 24.7503 13.8965 24.7565 13.9096C24.7628 13.9227 24.7716 13.9344 24.7824 13.9441L25.7283 14.7956C25.7391 14.8053 25.7516 14.8128 25.7653 14.8176C25.779 14.8225 25.7935 14.8246 25.8079 14.8238C25.8224 14.8231 25.8366 14.8195 25.8497 14.8132C25.8628 14.807 25.8745 14.7982 25.8842 14.7874C25.8939 14.7766 25.9014 14.7641 25.9062 14.7504C25.9111 14.7367 25.9132 14.7223 25.9124 14.7078C25.9117 14.6933 25.9081 14.6791 25.9018 14.666C25.8955 14.653 25.8868 14.6413 25.876 14.6316L24.93 13.78C24.9193 13.7703 24.9067 13.7628 24.893 13.7579C24.8794 13.7531 24.8649 13.751 24.8504 13.7517H24.8504ZM17.1501 14.5601C17.1321 14.5594 17.1141 14.5632 17.0979 14.5711C17.0816 14.579 17.0676 14.5908 17.057 14.6055L16.3083 15.6347C16.2997 15.6464 16.2936 15.6597 16.2901 15.6738C16.2867 15.6879 16.2861 15.7025 16.2884 15.7168C16.2907 15.7311 16.2957 15.7449 16.3033 15.7572C16.3109 15.7696 16.3208 15.7803 16.3326 15.7888C16.3443 15.7974 16.3575 15.8036 16.3716 15.807C16.3857 15.8104 16.4003 15.811 16.4147 15.8087C16.429 15.8065 16.4427 15.8014 16.4551 15.7938C16.4674 15.7862 16.4782 15.7763 16.4867 15.7646L17.2354 14.7353C17.244 14.7236 17.2501 14.7104 17.2536 14.6963C17.257 14.6822 17.2576 14.6675 17.2553 14.6532C17.2531 14.6389 17.248 14.6252 17.2404 14.6128C17.2328 14.6004 17.2229 14.5897 17.2112 14.5812C17.1934 14.5682 17.1721 14.5608 17.1501 14.5601ZM23.949 14.5647C23.927 14.5654 23.9057 14.5728 23.8879 14.5857C23.8762 14.5942 23.8662 14.6049 23.8586 14.6173C23.851 14.6296 23.846 14.6434 23.8437 14.6577C23.8414 14.672 23.842 14.6866 23.8454 14.7007C23.8487 14.7148 23.8549 14.7281 23.8634 14.7398L24.6107 15.77C24.6192 15.7818 24.63 15.7918 24.6423 15.7994C24.6547 15.807 24.6684 15.812 24.6827 15.8143C24.697 15.8166 24.7117 15.816 24.7257 15.8126C24.7398 15.8093 24.7531 15.8031 24.7649 15.7946C24.7766 15.7861 24.7866 15.7754 24.7942 15.763C24.8018 15.7507 24.8069 15.7369 24.8091 15.7226C24.8114 15.7083 24.8109 15.6937 24.8075 15.6796C24.8041 15.6655 24.7979 15.6522 24.7894 15.6405L24.042 14.6102C24.0315 14.5956 24.0174 14.5838 24.0012 14.5758C23.985 14.5679 23.967 14.564 23.949 14.5647H23.949ZM16.1836 14.7236C16.1544 14.7252 16.1269 14.7383 16.1073 14.7601L15.7491 15.158C15.7394 15.1688 15.7319 15.1813 15.727 15.195C15.7222 15.2087 15.7201 15.2231 15.7208 15.2376C15.7216 15.2521 15.7252 15.2663 15.7315 15.2794C15.7377 15.2925 15.7465 15.3042 15.7573 15.3139C15.768 15.3236 15.7806 15.3311 15.7943 15.3359C15.8079 15.3408 15.8224 15.3429 15.8369 15.3421C15.8514 15.3414 15.8656 15.3378 15.8786 15.3315C15.8917 15.3252 15.9034 15.3165 15.9131 15.3057L16.2714 14.9078C16.2811 14.8971 16.2886 14.8845 16.2935 14.8708C16.2983 14.8572 16.3004 14.8427 16.2997 14.8282C16.2989 14.8137 16.2953 14.7995 16.289 14.7864C16.2828 14.7734 16.274 14.7616 16.2632 14.752C16.2524 14.7422 16.2399 14.7347 16.2262 14.7299C16.2126 14.725 16.1981 14.7229 16.1836 14.7237V14.7236ZM24.921 14.7242C24.9065 14.7234 24.8921 14.7255 24.8784 14.7303C24.8647 14.7352 24.8522 14.7427 24.8415 14.7525C24.8307 14.7621 24.8219 14.7738 24.8156 14.7869C24.8094 14.8 24.8057 14.8142 24.805 14.8287C24.8042 14.8431 24.8063 14.8576 24.8112 14.8713C24.816 14.8849 24.8235 14.8975 24.8333 14.9083L25.1914 15.3062C25.2011 15.317 25.2128 15.3258 25.2259 15.332C25.239 15.3383 25.2531 15.3419 25.2676 15.3427C25.2821 15.3434 25.2966 15.3413 25.3103 15.3365C25.3239 15.3316 25.3365 15.3241 25.3472 15.3144C25.358 15.3047 25.3668 15.293 25.3731 15.2799C25.3793 15.2668 25.3829 15.2526 25.3837 15.2381C25.3845 15.2237 25.3824 15.2092 25.3775 15.1955C25.3726 15.1818 25.3651 15.1693 25.3554 15.1585L24.9972 14.7606C24.9876 14.7498 24.9759 14.741 24.9628 14.7348C24.9497 14.7285 24.9355 14.7249 24.921 14.7241L24.921 14.7242ZM18.1957 15.1655C18.174 15.165 18.1526 15.171 18.1343 15.1826C18.116 15.1943 18.1016 15.2111 18.0928 15.2309L17.5742 16.3933C17.5683 16.4065 17.5651 16.4208 17.5647 16.4353C17.5642 16.4498 17.5667 16.4642 17.5719 16.4777C17.5771 16.4913 17.5849 16.5036 17.5949 16.5142C17.6049 16.5247 17.6168 16.5331 17.6301 16.539C17.6433 16.5449 17.6576 16.5482 17.6721 16.5486C17.6866 16.549 17.701 16.5465 17.7145 16.5414C17.7281 16.5362 17.7405 16.5284 17.751 16.5184C17.7615 16.5084 17.7699 16.4964 17.7758 16.4832L18.2944 15.3209C18.3003 15.3076 18.3036 15.2934 18.304 15.2789C18.3044 15.2644 18.3019 15.2499 18.2967 15.2364C18.2915 15.2228 18.2837 15.2105 18.2737 15.2C18.2637 15.1894 18.2518 15.181 18.2385 15.1751C18.225 15.1691 18.2105 15.1658 18.1957 15.1655ZM22.9026 15.1687C22.8878 15.169 22.8733 15.1722 22.8598 15.1783C22.8465 15.1841 22.8345 15.1926 22.8245 15.2031C22.8145 15.2136 22.8067 15.2259 22.8015 15.2395C22.7963 15.253 22.7938 15.2674 22.7942 15.2819C22.7946 15.2964 22.7978 15.3107 22.8037 15.3239L23.3207 16.4869C23.3266 16.5002 23.335 16.5122 23.3455 16.5222C23.356 16.5322 23.3684 16.54 23.3819 16.5452C23.3954 16.5504 23.4099 16.5529 23.4243 16.5525C23.4388 16.5521 23.4531 16.5489 23.4664 16.5429C23.4796 16.5371 23.4916 16.5287 23.5016 16.5182C23.5116 16.5077 23.5194 16.4953 23.5246 16.4818C23.5298 16.4682 23.5323 16.4538 23.5319 16.4393C23.5315 16.4248 23.5283 16.4106 23.5224 16.3973L23.0054 15.2343C22.9966 15.2145 22.9822 15.1976 22.9639 15.186C22.9456 15.1743 22.9243 15.1683 22.9026 15.1687ZM17.2845 15.5249C17.2664 15.5261 17.249 15.5318 17.2337 15.5414C17.2183 15.551 17.2056 15.5642 17.1967 15.5799L16.929 16.0435C16.9217 16.0561 16.917 16.0699 16.9151 16.0843C16.9132 16.0987 16.9141 16.1133 16.9179 16.1273C16.9216 16.1413 16.9281 16.1544 16.9369 16.1659C16.9458 16.1774 16.9568 16.187 16.9694 16.1943C16.9819 16.2015 16.9957 16.2063 17.0101 16.2082C17.0245 16.2101 17.0391 16.2091 17.0531 16.2054C17.0671 16.2016 17.0802 16.1952 17.0917 16.1863C17.1032 16.1775 17.1129 16.1665 17.1201 16.1539L17.3878 15.6902C17.3951 15.6777 17.3998 15.6638 17.4017 15.6494C17.4036 15.6351 17.4027 15.6205 17.3989 15.6065C17.3951 15.5924 17.3887 15.5793 17.3798 15.5678C17.371 15.5563 17.36 15.5467 17.3474 15.5395C17.3283 15.5284 17.3064 15.5234 17.2845 15.5249ZM23.8208 15.5249C23.7989 15.5233 23.7769 15.5284 23.7579 15.5395C23.7454 15.5467 23.7343 15.5564 23.7255 15.5679C23.7167 15.5794 23.7102 15.5925 23.7064 15.6065C23.7027 15.6205 23.7017 15.6351 23.7037 15.6495C23.7056 15.6638 23.7103 15.6777 23.7176 15.6902L23.9852 16.1539C23.9925 16.1665 24.0021 16.1775 24.0136 16.1863C24.0251 16.1952 24.0382 16.2016 24.0522 16.2054C24.0662 16.2091 24.0808 16.2101 24.0952 16.2082C24.1096 16.2063 24.1234 16.2015 24.136 16.1943C24.1485 16.187 24.1596 16.1774 24.1684 16.1659C24.1772 16.1544 24.1837 16.1413 24.1875 16.1273C24.1912 16.1133 24.1922 16.0987 24.1903 16.0843C24.1884 16.0699 24.1836 16.0561 24.1763 16.0435L23.9087 15.5799C23.8997 15.5642 23.8869 15.551 23.8716 15.5414C23.8563 15.5318 23.8388 15.5261 23.8208 15.5249ZM19.3501 15.5415C19.3247 15.5413 19.3 15.5499 19.2802 15.5658C19.2604 15.5817 19.2467 15.6041 19.2415 15.6289L18.977 16.8739C18.974 16.8881 18.9737 16.9027 18.9764 16.917C18.979 16.9313 18.9844 16.9449 18.9923 16.957C19.0002 16.9692 19.0104 16.9797 19.0224 16.9878C19.0344 16.996 19.0478 17.0018 19.062 17.0048C19.0762 17.0078 19.0908 17.008 19.1051 17.0054C19.1194 17.0028 19.133 16.9974 19.1451 16.9895C19.1573 16.9816 19.1678 16.9714 19.176 16.9594C19.1842 16.9474 19.1899 16.934 19.1929 16.9198L19.4574 15.6748C19.4608 15.6588 19.4607 15.6422 19.4569 15.6262C19.4531 15.6103 19.4458 15.5954 19.4355 15.5826C19.4252 15.5698 19.4122 15.5595 19.3974 15.5524C19.3827 15.5453 19.3665 15.5416 19.3501 15.5416V15.5415ZM21.7513 15.5423C21.7349 15.5423 21.7188 15.546 21.704 15.5531C21.6892 15.5602 21.6762 15.5705 21.6659 15.5833C21.6556 15.596 21.6483 15.6109 21.6445 15.6269C21.6408 15.6428 21.6406 15.6594 21.644 15.6754L21.9075 16.9206C21.9105 16.9348 21.9163 16.9482 21.9245 16.9602C21.9326 16.9722 21.9431 16.9824 21.9553 16.9903C21.9674 16.9982 21.981 17.0037 21.9953 17.0063C22.0095 17.0089 22.0242 17.0087 22.0384 17.0057C22.0526 17.0027 22.066 16.997 22.078 16.9888C22.09 16.9806 22.1002 16.9701 22.1081 16.958C22.116 16.9458 22.1214 16.9322 22.1241 16.918C22.1267 16.9037 22.1265 16.8891 22.1235 16.8749L21.8598 15.6298C21.8546 15.6049 21.841 15.5826 21.8212 15.5666C21.8014 15.5507 21.7767 15.5421 21.7513 15.5422V15.5423ZM20.5526 15.6679C20.5381 15.6678 20.5238 15.6707 20.5104 15.6762C20.497 15.6817 20.4848 15.6899 20.4745 15.7001C20.4643 15.7104 20.4562 15.7225 20.4506 15.7359C20.4451 15.7494 20.4423 15.7637 20.4423 15.7782V17.0509C20.4423 17.0654 20.4451 17.0798 20.4506 17.0932C20.4562 17.1066 20.4643 17.1188 20.4745 17.1291C20.4848 17.1393 20.497 17.1474 20.5104 17.153C20.5238 17.1585 20.5382 17.1613 20.5527 17.1613C20.5672 17.1613 20.5815 17.1585 20.5949 17.153C20.6083 17.1474 20.6205 17.1393 20.6307 17.129C20.641 17.1188 20.6491 17.1066 20.6546 17.0932C20.6602 17.0798 20.663 17.0654 20.663 17.0509V15.7782C20.663 15.7637 20.6602 15.7494 20.6546 15.736C20.6491 15.7226 20.641 15.7104 20.6307 15.7001C20.6205 15.6899 20.6083 15.6818 20.5949 15.6762C20.5815 15.6707 20.5671 15.6678 20.5526 15.6679V15.6679ZM18.5272 16.0792C18.5056 16.081 18.485 16.0892 18.468 16.1027C18.451 16.1162 18.4384 16.1344 18.4317 16.155L18.2662 16.6642C18.2617 16.678 18.2599 16.6925 18.2611 16.707C18.2622 16.7214 18.2661 16.7355 18.2727 16.7485C18.2793 16.7614 18.2884 16.7729 18.2994 16.7823C18.3104 16.7917 18.3232 16.7988 18.337 16.8033C18.3508 16.8078 18.3653 16.8095 18.3798 16.8084C18.3943 16.8073 18.4083 16.8033 18.4213 16.7967C18.4342 16.7901 18.4457 16.7811 18.4551 16.77C18.4645 16.759 18.4716 16.7462 18.4761 16.7324L18.6416 16.2233C18.6461 16.2095 18.6478 16.195 18.6467 16.1805C18.6456 16.1661 18.6416 16.152 18.635 16.1391C18.6285 16.1261 18.6194 16.1146 18.6084 16.1052C18.5973 16.0958 18.5846 16.0887 18.5708 16.0842C18.5567 16.0797 18.5419 16.0779 18.5272 16.0792ZM22.5772 16.0794C22.5625 16.0781 22.5477 16.0798 22.5337 16.0845C22.5199 16.0889 22.5071 16.096 22.4961 16.1054C22.485 16.1148 22.4759 16.1263 22.4694 16.1393C22.4628 16.1522 22.4588 16.1663 22.4577 16.1807C22.4566 16.1952 22.4583 16.2097 22.4628 16.2235L22.6282 16.7327C22.6327 16.7465 22.6398 16.7593 22.6492 16.7703C22.6586 16.7813 22.6701 16.7904 22.683 16.797C22.696 16.8036 22.7101 16.8075 22.7245 16.8087C22.739 16.8098 22.7535 16.808 22.7673 16.8035C22.7811 16.7991 22.7939 16.7919 22.8049 16.7825C22.816 16.7731 22.825 16.7616 22.8316 16.7487C22.8382 16.7358 22.8422 16.7217 22.8433 16.7073C22.8444 16.6928 22.8427 16.6783 22.8382 16.6645L22.6727 16.1553C22.666 16.1347 22.6534 16.1165 22.6364 16.103C22.6195 16.0894 22.5989 16.0813 22.5773 16.0794H22.5772ZM19.86 16.363C19.8347 16.3654 19.8111 16.3766 19.793 16.3945C19.775 16.4124 19.7637 16.436 19.7611 16.4613L19.7052 16.9937C19.7036 17.0082 19.7049 17.0227 19.709 17.0366C19.7131 17.0505 19.7199 17.0635 19.7291 17.0748C19.7382 17.086 19.7494 17.0954 19.7622 17.1023C19.7749 17.1092 19.7889 17.1135 19.8034 17.115C19.8178 17.1165 19.8324 17.1152 19.8463 17.1111C19.8602 17.107 19.8731 17.1002 19.8844 17.0911C19.8957 17.082 19.905 17.0707 19.9119 17.058C19.9188 17.0452 19.9232 17.0312 19.9246 17.0168L19.9806 16.4844C19.9822 16.47 19.9809 16.4554 19.9768 16.4415C19.9727 16.4276 19.9658 16.4146 19.9567 16.4033C19.9476 16.3921 19.9363 16.3827 19.9236 16.3758C19.9108 16.3689 19.8968 16.3646 19.8824 16.3631C19.875 16.3623 19.8675 16.3623 19.86 16.363ZM21.2408 16.3635C21.2334 16.3627 21.2259 16.3627 21.2184 16.3636C21.204 16.3651 21.19 16.3694 21.1772 16.3763C21.1645 16.3832 21.1532 16.3925 21.1441 16.4038C21.1349 16.415 21.1281 16.428 21.124 16.4419C21.1199 16.4558 21.1186 16.4704 21.1201 16.4848L21.1757 17.0173C21.1772 17.0317 21.1815 17.0457 21.1884 17.0585C21.1953 17.0712 21.2046 17.0825 21.2159 17.0916C21.2272 17.1008 21.2401 17.1076 21.254 17.1117C21.2679 17.1158 21.2825 17.1171 21.2969 17.1156C21.3113 17.1141 21.3253 17.1098 21.3381 17.1029C21.3508 17.096 21.3621 17.0866 21.3713 17.0754C21.3804 17.0641 21.3872 17.0512 21.3913 17.0373C21.3954 17.0233 21.3968 17.0088 21.3952 16.9943L21.3396 16.4619C21.3371 16.4366 21.3258 16.413 21.3078 16.3951C21.2898 16.3771 21.2661 16.366 21.2408 16.3635H21.2408Z" fill="#F4F2F3"/>
<g opacity="0.409" filter="url(#filter0_f_6127_1271)">
<path d="M25.7236 5.57477L19.6866 9.08225L15.8696 15.0913L21.4536 10.9553L25.7236 5.57477Z" fill="black"/>
</g>
<path d="M21.4179 10.8945L19.6875 9.0824L25.8259 4.95312L21.4179 10.8945Z" fill="#FF5150"/>
<path d="M21.4184 10.894L19.688 9.08185L15.28 15.0233L21.4184 10.894Z" fill="#F1F1F1"/>
<path opacity="0.243" d="M15.28 15.0238L21.4184 10.8945L25.8264 4.95312L15.28 15.0238Z" fill="black"/>
<path d="M10.1587 1.02686C15.092 1.02704 19.0903 5.03388 19.0903 9.97217C19.0903 14.9106 15.092 18.9173 10.1587 18.9175H10.1577C5.22567 18.912 1.22607 14.9115 1.22607 9.97217C1.22611 5.03376 5.22525 1.02686 10.1587 1.02686Z" fill="white" stroke="#F5F7F9" stroke-width="1.5"/>
<path d="M10.1384 1.77831C10.1384 1.77831 14.9614 1.56188 17.5184 6.40972H9.72796C9.72796 6.40972 8.25776 6.36233 7.00187 8.14592C6.6411 8.89453 6.25332 9.66569 6.68849 11.1855C6.0616 10.1234 3.36035 5.41989 3.36035 5.41989C3.36035 5.41989 5.26567 1.96996 10.1383 1.77831H10.1384Z" fill="#EF3F36"/>
<path d="M17.2671 14.0855C17.2671 14.0855 15.0416 18.3719 9.56689 18.16C10.2433 16.9897 13.4632 11.4135 13.4632 11.4135C13.4632 11.4135 14.2411 10.1644 13.3234 8.18464C12.8566 7.49692 12.3808 6.77763 10.8476 6.39426C12.081 6.38306 17.5039 6.39426 17.5039 6.39426C17.5039 6.39426 19.5354 9.76978 17.2671 14.0855Z" fill="#FCD900"/>
<path d="M3.04163 14.1198C3.04163 14.1198 0.441814 10.0498 3.36404 5.41394C4.03825 6.58422 7.25811 12.1604 7.25811 12.1604C7.25811 12.1604 7.95261 13.4592 10.124 13.653C10.9516 13.5922 11.8129 13.5403 12.9133 12.4061C12.3066 13.4795 9.58502 18.1695 9.58502 18.1695C9.58502 18.1695 5.64363 18.2416 3.04157 14.1198H3.04163Z" fill="#61BC5B"/>
<path d="M9.5647 18.2006L10.6605 13.6278C10.6605 13.6278 11.8646 13.533 12.8748 12.426C12.2479 13.5286 9.5647 18.2006 9.5647 18.2006Z" fill="#5AB055"/>
<path d="M6.46655 10.0208C6.46655 7.99395 8.11029 6.35022 10.1371 6.35022C12.1639 6.35022 13.8077 7.99395 13.8077 10.0208C13.8077 12.0477 12.1639 13.6913 10.1371 13.6913C8.11029 13.6891 6.46655 12.0477 6.46655 10.0208Z" fill="white"/>
<path d="M7.07812 10.0394C7.07812 8.36187 8.43781 6.99994 10.1177 6.99994C11.7952 6.99994 13.1571 8.35962 13.1571 10.0394C13.1571 11.717 11.7975 13.079 10.1177 13.079C8.44005 13.079 7.07812 11.717 7.07812 10.0394Z" fill="url(#paint7_linear_6127_1271)"/>
<path d="M17.5014 6.39627L12.9895 7.71984C12.9895 7.71984 12.3086 6.72092 10.8452 6.39627C12.1147 6.38948 17.5014 6.39627 17.5014 6.39627Z" fill="#EACA05"/>
<path d="M6.60057 11.0175C5.9669 9.91941 3.36035 5.41882 3.36035 5.41882L6.702 8.72436C6.702 8.72436 6.35923 9.43013 6.48781 10.4403L6.60051 11.0175H6.60057Z" fill="#DF3A32"/>
<defs>
<filter id="filter0_f_6127_1271" x="14.3272" y="4.03231" width="12.9389" height="12.6014" filterUnits="userSpaceOnUse" color-interpolation-filters="sRGB">
<feFlood flood-opacity="0" result="BackgroundImageFix"/>
<feBlend mode="normal" in="SourceGraphic" in2="BackgroundImageFix" result="shape"/>
<feGaussianBlur stdDeviation="0.771228" result="effect1_foregroundBlur_6127_1271"/>
</filter>
<linearGradient id="paint0_linear_6127_1271" x1="26.533" y1="13.1348" x2="37.9832" y2="13.1348" gradientUnits="userSpaceOnUse">
<stop stop-color="#0C59A4"/>
<stop offset="1" stop-color="#114A8B"/>
</linearGradient>
<radialGradient id="paint1_radial_6127_1271" cx="0" cy="0" r="1" gradientUnits="userSpaceOnUse" gradientTransform="translate(32.8571 13.225) scale(6.12381 5.81237)">
<stop offset="0.72" stop-opacity="0"/>
<stop offset="0.95" stop-opacity="0.53"/>
<stop offset="1"/>
</radialGradient>
<linearGradient id="paint2_linear_6127_1271" x1="32.5708" y1="8.17198" x2="25.4261" y2="15.9613" gradientUnits="userSpaceOnUse">
<stop stop-color="#1B9DE2"/>
<stop offset="0.16" stop-color="#1595DF"/>
<stop offset="0.67" stop-color="#0680D7"/>
<stop offset="1" stop-color="#0078D4"/>
</linearGradient>
<radialGradient id="paint3_radial_6127_1271" cx="0" cy="0" r="1" gradientUnits="userSpaceOnUse" gradientTransform="translate(27.2967 14.5429) rotate(-81.3767) scale(9.20046 7.43946)">
<stop offset="0.76" stop-opacity="0"/>
<stop offset="0.95" stop-opacity="0.5"/>
<stop offset="1"/>
</radialGradient>
<radialGradient id="paint4_radial_6127_1271" cx="0" cy="0" r="1" gradientUnits="userSpaceOnUse" gradientTransform="translate(24.4244 4.81591) rotate(92.2927) scale(12.9956 27.7028)">
<stop stop-color="#35C1F1"/>
<stop offset="0.11" stop-color="#34C1ED"/>
<stop offset="0.23" stop-color="#2FC2DF"/>
<stop offset="0.31" stop-color="#2BC3D2"/>
<stop offset="0.67" stop-color="#36C752"/>
</radialGradient>
<radialGradient id="paint5_radial_6127_1271" cx="0" cy="0" r="1" gradientUnits="userSpaceOnUse" gradientTransform="translate(38.1776 6.74218) rotate(73.7259) scale(6.24446 5.08186)">
<stop stop-color="#66EB6E"/>
<stop offset="1" stop-color="#66EB6E" stop-opacity="0"/>
</radialGradient>
<radialGradient id="paint6_radial_6127_1271" cx="0" cy="0" r="1" gradientUnits="userSpaceOnUse" gradientTransform="translate(20.5877 8.88514) scale(8.21166 8.21165)">
<stop stop-color="#06C2E7"/>
<stop offset="0.25" stop-color="#0DB8EC"/>
<stop offset="0.5" stop-color="#12AEF1"/>
<stop offset="0.75" stop-color="#1F86F9"/>
<stop offset="1" stop-color="#107DDD"/>
</radialGradient>
<linearGradient id="paint7_linear_6127_1271" x1="10.1175" y1="7.04286" x2="10.1175" y2="12.896" gradientUnits="userSpaceOnUse">
<stop stop-color="#86BBE5"/>
<stop offset="1" stop-color="#1072BA"/>
</linearGradient>
</defs>
</svg>
