<svg width="19" height="18" viewBox="0 0 19 18" fill="none" xmlns="http://www.w3.org/2000/svg">
<g clip-path="url(#clip0_6127_1257)">
<path d="M9.16535 8.63992L2.23535 15.8849C2.46035 16.6499 3.18035 17.2349 4.03535 17.2349C4.39535 17.2349 4.71035 17.1449 4.98035 16.9649L12.8104 12.5099L9.16535 8.63992Z" fill="#EA4335"/>
<path d="M16.185 7.37985L12.81 5.44485L9.03003 8.77485L12.855 12.5099L16.23 10.6199C16.815 10.3049 17.22 9.67485 17.22 8.99985C17.175 8.32485 16.77 7.69485 16.185 7.37985Z" fill="#FBBC04"/>
<path d="M2.23519 2.11487C2.19019 2.24987 2.19019 2.42987 2.19019 2.60987V15.4349C2.19019 15.6149 2.19019 15.7499 2.23519 15.9299L9.43518 8.86487L2.23519 2.11487Z" fill="#4285F4"/>
<path d="M9.21035 8.99992L12.8104 5.44492L5.02535 1.03492C4.75535 0.854923 4.39535 0.764923 4.03535 0.764923C3.18035 0.764923 2.41535 1.34992 2.23535 2.11492L9.21035 8.99992Z" fill="#34A853"/>
</g>
<defs>
<clipPath id="clip0_6127_1257">
<rect width="18" height="18" fill="white" transform="translate(0.300293)"/>
</clipPath>
</defs>
</svg>
