<svg width="44" height="48" viewBox="0 0 44 48" fill="none" xmlns="http://www.w3.org/2000/svg">
<path d="M20.4265 22.9512L0.229736 44.0659C0.885475 46.2954 2.98384 48.0004 5.47565 48.0004C6.52483 48.0004 7.44286 47.7381 8.22975 47.2135L31.0494 34.2299L20.4265 22.9512Z" fill="#EA4335"/>
<path d="M40.8852 19.279L31.0491 13.6396L20.0327 23.3446L31.1803 34.2298L41.0163 28.7216C42.7213 27.8036 43.9016 25.9675 43.9016 24.0003C43.7704 22.0331 42.5901 20.197 40.8852 19.279Z" fill="#FBBC04"/>
<path d="M0.229781 3.93457C0.0986333 4.32801 0.0986328 4.8526 0.0986328 5.37719V42.7543C0.0986328 43.2788 0.0986333 43.6723 0.229781 44.1969L21.2134 23.6067L0.229781 3.93457Z" fill="#4285F4"/>
<path d="M20.5576 24L31.0494 13.6394L8.36089 0.786885C7.57401 0.262295 6.52483 0 5.47565 0C2.98384 0 0.754327 1.70492 0.229736 3.93443L20.5576 24Z" fill="#34A853"/>
</svg>
