<svg width="48" height="48" viewBox="0 0 48 48" fill="none" xmlns="http://www.w3.org/2000/svg">
<path d="M43.319 35.7237C42.679 36.0583 42.0191 36.3532 41.3428 36.6067C39.1904 37.412 36.9102 37.8223 34.612 37.8178C25.7401 37.8178 18.0118 31.7155 18.0118 23.8846C18.0232 22.8343 18.3146 21.8061 18.8562 20.906C19.3977 20.006 20.1696 19.2667 21.0922 18.7646C13.0677 19.1021 11.0054 27.4635 11.0054 32.3623C11.0054 46.213 23.7714 47.6171 26.5219 47.6171C28.0049 47.6171 30.2417 47.1859 31.5841 46.7623L31.8297 46.6798C36.9954 44.894 41.3993 41.4029 44.3164 36.7811C44.4058 36.6403 44.4456 36.4738 44.4298 36.3078C44.4139 36.1419 44.3432 35.9859 44.2288 35.8646C44.1144 35.7434 43.9628 35.6637 43.798 35.6381C43.6333 35.6126 43.4647 35.6427 43.319 35.7237Z" fill="url(#paint0_linear_6127_1494)"/>
<path opacity="0.35" d="M43.319 35.7237C42.679 36.0583 42.0191 36.3532 41.3428 36.6067C39.1904 37.412 36.9102 37.8223 34.612 37.8178C25.7401 37.8178 18.0118 31.7155 18.0118 23.8846C18.0232 22.8343 18.3146 21.8061 18.8562 20.906C19.3977 20.006 20.1696 19.2667 21.0922 18.7646C13.0677 19.1021 11.0054 27.4635 11.0054 32.3623C11.0054 46.213 23.7714 47.6171 26.5219 47.6171C28.0049 47.6171 30.2417 47.1859 31.5841 46.7623L31.8297 46.6798C36.9954 44.894 41.3993 41.4029 44.3164 36.7811C44.4058 36.6403 44.4456 36.4738 44.4298 36.3078C44.4139 36.1419 44.3432 35.9859 44.2288 35.8646C44.1144 35.7434 43.9628 35.6637 43.798 35.6381C43.6333 35.6126 43.4647 35.6427 43.319 35.7237Z" fill="url(#paint1_radial_6127_1494)"/>
<path d="M19.8233 45.2607C18.151 44.2228 16.7017 42.8629 15.5598 41.26C14.2582 39.4768 13.3626 37.4306 12.9356 35.2647C12.5087 33.0988 12.5608 30.8657 13.0884 28.7221C13.6159 26.5785 14.6061 24.5762 15.9894 22.8558C17.3728 21.1354 19.1158 19.7384 21.0963 18.7629C21.6813 18.4873 22.6806 17.9886 24.0099 18.013C24.9464 18.0198 25.8686 18.2434 26.7043 18.6662C27.5399 19.0891 28.2663 19.6997 28.8265 20.4502C29.5836 21.461 30.001 22.6857 30.0189 23.9485C30.0189 23.9091 34.6048 9.02539 15.0198 9.02539C6.78908 9.02539 0.0207541 16.8356 0.0207541 23.6879C-0.0117115 27.3126 0.763907 30.899 2.29124 34.1865C4.78732 39.5119 9.15229 43.7353 14.5573 46.0546C19.9622 48.374 26.0308 48.6279 31.6107 46.768C29.6569 47.3839 27.5929 47.5688 25.5608 47.3099C23.5287 47.051 21.5769 46.3544 19.8401 45.2682L19.8233 45.2607Z" fill="url(#paint2_linear_6127_1494)"/>
<path opacity="0.41" d="M19.8233 45.2607C18.151 44.2228 16.7017 42.8629 15.5598 41.26C14.2582 39.4768 13.3626 37.4306 12.9356 35.2647C12.5087 33.0988 12.5608 30.8657 13.0884 28.7221C13.6159 26.5785 14.6061 24.5762 15.9894 22.8558C17.3728 21.1354 19.1158 19.7384 21.0963 18.7629C21.6813 18.4873 22.6806 17.9886 24.0099 18.013C24.9464 18.0198 25.8686 18.2434 26.7043 18.6662C27.5399 19.0891 28.2663 19.6997 28.8265 20.4502C29.5836 21.461 30.001 22.6857 30.0189 23.9485C30.0189 23.9091 34.6048 9.02539 15.0198 9.02539C6.78908 9.02539 0.0207541 16.8356 0.0207541 23.6879C-0.0117115 27.3126 0.763907 30.899 2.29124 34.1865C4.78732 39.5119 9.15229 43.7353 14.5573 46.0546C19.9622 48.374 26.0308 48.6279 31.6107 46.768C29.6569 47.3839 27.5929 47.5688 25.5608 47.3099C23.5287 47.051 21.5769 46.3544 19.8401 45.2682L19.8233 45.2607Z" fill="url(#paint3_radial_6127_1494)"/>
<path d="M28.5601 27.9076C28.4082 28.1045 27.9414 28.3763 27.9414 28.9687C27.9414 29.458 28.2601 29.9286 28.8263 30.3242C31.5224 32.1989 36.6052 31.9515 36.6183 31.9515C38.6161 31.9467 40.5759 31.4061 42.2936 30.386C44.0264 29.3744 45.4645 27.9272 46.4653 26.1882C47.4661 24.4492 47.9948 22.4787 47.9989 20.4723C48.0476 16.271 46.499 13.4776 45.8728 12.2403C41.8999 4.46942 33.3242 1.1748e-07 23.9985 1.1748e-07C17.6917 -0.000623464 11.6382 2.48124 7.14721 6.9088C2.65619 11.3364 0.0886887 17.3537 0 23.6594C0.0899944 16.8091 6.89957 11.2767 14.9991 11.2767C15.6553 11.2767 19.3975 11.3404 22.8736 13.1645C25.9371 14.7731 27.542 16.7153 28.6576 18.6407C29.8163 20.6411 30.0225 23.1682 30.0225 24.175C30.0225 25.1817 29.5088 26.674 28.5601 27.9076Z" fill="url(#paint4_radial_6127_1494)"/>
<path d="M28.5601 27.9076C28.4082 28.1045 27.9414 28.3763 27.9414 28.9687C27.9414 29.458 28.2601 29.9286 28.8263 30.3242C31.5224 32.1989 36.6052 31.9515 36.6183 31.9515C38.6161 31.9467 40.5759 31.4061 42.2936 30.386C44.0264 29.3744 45.4645 27.9272 46.4653 26.1882C47.4661 24.4492 47.9948 22.4787 47.9989 20.4723C48.0476 16.271 46.499 13.4776 45.8728 12.2403C41.8999 4.46942 33.3242 1.1748e-07 23.9985 1.1748e-07C17.6917 -0.000623464 11.6382 2.48124 7.14721 6.9088C2.65619 11.3364 0.0886887 17.3537 0 23.6594C0.0899944 16.8091 6.89957 11.2767 14.9991 11.2767C15.6553 11.2767 19.3975 11.3404 22.8736 13.1645C25.9371 14.7731 27.542 16.7153 28.6576 18.6407C29.8163 20.6411 30.0225 23.1682 30.0225 24.175C30.0225 25.1817 29.5088 26.674 28.5601 27.9076Z" fill="url(#paint5_radial_6127_1494)"/>
<defs>
<linearGradient id="paint0_linear_6127_1494" x1="11.0054" y1="33.1946" x2="44.442" y2="33.1946" gradientUnits="userSpaceOnUse">
<stop stop-color="#0C59A4"/>
<stop offset="1" stop-color="#114A8B"/>
</linearGradient>
<radialGradient id="paint1_radial_6127_1494" cx="0" cy="0" r="1" gradientUnits="userSpaceOnUse" gradientTransform="translate(29.473 33.4581) scale(17.8826 16.9874)">
<stop offset="0.72" stop-opacity="0"/>
<stop offset="0.95" stop-opacity="0.53"/>
<stop offset="1"/>
</radialGradient>
<linearGradient id="paint2_linear_6127_1494" x1="28.6371" y1="18.6898" x2="7.75429" y2="41.4376" gradientUnits="userSpaceOnUse">
<stop stop-color="#1B9DE2"/>
<stop offset="0.16" stop-color="#1595DF"/>
<stop offset="0.67" stop-color="#0680D7"/>
<stop offset="1" stop-color="#0078D4"/>
</linearGradient>
<radialGradient id="paint3_radial_6127_1494" cx="0" cy="0" r="1" gradientUnits="userSpaceOnUse" gradientTransform="translate(13.2358 37.3095) rotate(-81.3838) scale(26.8889 21.725)">
<stop offset="0.76" stop-opacity="0"/>
<stop offset="0.95" stop-opacity="0.5"/>
<stop offset="1"/>
</radialGradient>
<radialGradient id="paint4_radial_6127_1494" cx="0" cy="0" r="1" gradientUnits="userSpaceOnUse" gradientTransform="translate(4.84891 8.88199) rotate(92.2908) scale(37.981 80.8972)">
<stop stop-color="#35C1F1"/>
<stop offset="0.11" stop-color="#34C1ED"/>
<stop offset="0.23" stop-color="#2FC2DF"/>
<stop offset="0.31" stop-color="#2BC3D2"/>
<stop offset="0.67" stop-color="#36C752"/>
</radialGradient>
<radialGradient id="paint5_radial_6127_1494" cx="0" cy="0" r="1" gradientUnits="userSpaceOnUse" gradientTransform="translate(45.0107 14.5118) rotate(73.7388) scale(18.249 14.8409)">
<stop stop-color="#66EB6E"/>
<stop offset="1" stop-color="#66EB6E" stop-opacity="0"/>
</radialGradient>
</defs>
</svg>
