<svg width="16" height="17" viewBox="0 0 16 17" fill="none" xmlns="http://www.w3.org/2000/svg">
<path d="M8.00027 1.15869C6.56186 1.15869 5.15575 1.58523 3.95976 2.38437C2.76376 3.1835 1.8316 4.31935 1.28115 5.64827C0.73069 6.97718 0.586666 8.43949 0.867286 9.85026C1.14791 11.261 1.84057 12.5569 2.85767 13.574C3.87478 14.5911 5.17066 15.2838 6.58143 15.5644C7.9922 15.845 9.4545 15.701 10.7834 15.1505C12.1123 14.6001 13.2482 13.6679 14.0473 12.4719C14.8465 11.2759 15.273 9.86983 15.273 8.43142C15.271 6.5032 14.5041 4.65453 13.1406 3.29107C11.7772 1.92761 9.92849 1.16073 8.00027 1.15869ZM10.8359 8.89156L7.19957 11.409C7.11562 11.4671 7.01739 11.5011 6.91552 11.5073C6.81364 11.5135 6.712 11.4918 6.62161 11.4444C6.53122 11.397 6.45551 11.3257 6.40269 11.2384C6.34987 11.1511 6.32195 11.051 6.32195 10.9489V5.91394C6.32195 5.81187 6.34987 5.71175 6.40269 5.62442C6.45551 5.53708 6.53122 5.46587 6.62161 5.41847C6.712 5.37108 6.81364 5.34932 6.91552 5.35554C7.01739 5.36177 7.11562 5.39575 7.19957 5.4538L10.8359 7.97128C10.9104 8.02275 10.9712 8.0915 11.0132 8.17164C11.0552 8.25179 11.0772 8.34093 11.0772 8.43142C11.0772 8.52191 11.0552 8.61105 11.0132 8.69119C10.9712 8.77133 10.9104 8.84009 10.8359 8.89156Z" fill="#27B07E"/>
</svg>
